<?xml version="1.0" encoding="iso-8859-1"?>
<!-- Generator: Adobe Illustrator 22.0.1, SVG Export Plug-In . SVG Version: 6.00 Build 0)  -->
<svg version="1.1" xmlns="http://www.w3.org/2000/svg" xmlns:xlink="http://www.w3.org/1999/xlink" x="0px" y="0px"
	 viewBox="0 0 2048 2048" style="enable-background:new 0 0 2048 2048;" xml:space="preserve">
<g id="Layer_1">
	<g>
		<g>
			<g>
				<g>
					<path style="fill:#465A65;" d="M1288.099,1168.687H921.853c-13.547,0-24.529-10.982-24.529-24.528s10.982-24.529,24.529-24.529
						h366.246c13.547,0,24.529,10.982,24.529,24.529S1301.646,1168.687,1288.099,1168.687z"/>
				</g>
				<g>
					<g>
						<path style="fill:#465A65;" d="M1036.938,1168.687c-13.547,0-24.529-10.982-24.529-24.528V950.021
							c0-13.547,10.982-24.529,24.529-24.529s24.529,10.982,24.529,24.529v194.138
							C1061.466,1157.705,1050.484,1168.687,1036.938,1168.687z"/>
					</g>
					<g>
						<path style="fill:#465A65;" d="M1173.015,1168.687c-13.547,0-24.529-10.982-24.529-24.528V950.021
							c0-13.547,10.982-24.529,24.529-24.529s24.528,10.982,24.528,24.529v194.138
							C1197.544,1157.705,1186.562,1168.687,1173.015,1168.687z"/>
					</g>
				</g>
			</g>
		</g>
		<path style="fill:#CFD8DD;" d="M1509.945,982.015V559.677c0-20.932-16.969-37.901-37.901-37.901H737.908
			c-20.932,0-37.901,16.969-37.901,37.901v422.337H1509.945z"/>
		<path style="fill:#CFD8DD;" d="M1513.484,1497.976H696.469c-13.656,0-23.471-13.134-19.603-26.23l54.252-183.681
			c2.566-8.688,10.544-14.65,19.603-14.65h708.512c9.059,0,17.037,5.963,19.603,14.65l54.252,183.681
			C1536.956,1484.843,1527.14,1497.976,1513.484,1497.976z"/>
		<g>
			<g>
				<g>
					<g>
						<path style="fill:#465A65;" d="M819.3,1445.223h-46.902c-13.547,0-24.529-10.982-24.529-24.528s10.982-24.529,24.529-24.529
							H819.3c13.547,0,24.529,10.982,24.529,24.529S832.846,1445.223,819.3,1445.223z"/>
					</g>
					<g>
						<path style="fill:#465A65;" d="M942.951,1445.223h-46.902c-13.547,0-24.529-10.982-24.529-24.528s10.982-24.529,24.529-24.529
							h46.902c13.547,0,24.529,10.982,24.529,24.529S956.497,1445.223,942.951,1445.223z"/>
					</g>
					<g>
						<path style="fill:#465A65;" d="M1066.602,1445.223H1019.7c-13.547,0-24.529-10.982-24.529-24.528s10.982-24.529,24.529-24.529
							h46.902c13.547,0,24.529,10.982,24.529,24.529S1080.149,1445.223,1066.602,1445.223z"/>
					</g>
					<g>
						<path style="fill:#465A65;" d="M1190.253,1445.223h-46.902c-13.547,0-24.529-10.982-24.529-24.528
							s10.982-24.529,24.529-24.529h46.902c13.547,0,24.529,10.982,24.529,24.529S1203.8,1445.223,1190.253,1445.223z"/>
					</g>
					<g>
						<path style="fill:#465A65;" d="M1313.904,1445.223h-46.902c-13.547,0-24.528-10.982-24.528-24.528
							s10.982-24.529,24.528-24.529h46.902c13.547,0,24.529,10.982,24.529,24.529S1327.451,1445.223,1313.904,1445.223z"/>
					</g>
					<g>
						<path style="fill:#465A65;" d="M1437.556,1445.223h-46.902c-13.547,0-24.529-10.982-24.529-24.528
							s10.982-24.529,24.529-24.529h46.902c13.547,0,24.528,10.982,24.528,24.529S1451.103,1445.223,1437.556,1445.223z"/>
					</g>
				</g>
				<g>
					<g>
						<path style="fill:#465A65;" d="M881.125,1375.225h-46.902c-13.547,0-24.529-10.982-24.529-24.528
							c0-13.547,10.982-24.529,24.529-24.529h46.902c13.547,0,24.529,10.982,24.529,24.529
							C905.654,1364.243,894.672,1375.225,881.125,1375.225z"/>
					</g>
					<g>
						<path style="fill:#465A65;" d="M1004.777,1375.225h-46.902c-13.547,0-24.529-10.982-24.529-24.528
							c0-13.547,10.982-24.529,24.529-24.529h46.902c13.546,0,24.528,10.982,24.528,24.529
							C1029.305,1364.243,1018.323,1375.225,1004.777,1375.225z"/>
					</g>
					<g>
						<path style="fill:#465A65;" d="M1128.428,1375.225h-46.902c-13.547,0-24.528-10.982-24.528-24.528
							c0-13.547,10.982-24.529,24.528-24.529h46.902c13.547,0,24.528,10.982,24.528,24.529
							C1152.956,1364.243,1141.974,1375.225,1128.428,1375.225z"/>
					</g>
					<g>
						<path style="fill:#465A65;" d="M1252.079,1375.225h-46.902c-13.547,0-24.529-10.982-24.529-24.528
							c0-13.547,10.982-24.529,24.529-24.529h46.902c13.547,0,24.529,10.982,24.529,24.529
							C1276.608,1364.243,1265.626,1375.225,1252.079,1375.225z"/>
					</g>
					<g>
						<path style="fill:#465A65;" d="M1375.73,1375.225h-46.902c-13.547,0-24.528-10.982-24.528-24.528
							c0-13.547,10.982-24.529,24.528-24.529h46.902c13.547,0,24.528,10.982,24.528,24.529
							C1400.258,1364.243,1389.276,1375.225,1375.73,1375.225z"/>
					</g>
				</g>
			</g>
		</g>
		<path style="fill:#465A65;" d="M1509.948,923.785v58.225c0,20.941-16.976,37.907-37.907,37.907H737.903
			c-20.931,0-37.897-16.966-37.897-37.907v-58.225l0.001-0.005h809.938L1509.948,923.785z"/>
		<path style="fill:#CFD8DD;" d="M574.37,733.873v748.641c0,11.289-9.151,20.44-20.44,20.44H276.44
			c-11.289,0-20.44-9.151-20.44-20.44V733.873c0-11.289,9.151-20.44,20.44-20.44h277.489
			C565.218,713.433,574.37,722.584,574.37,733.873z"/>
		<g>
			<g>
				<g>
					<rect x="256" y="788.388" style="fill:#465A65;" width="318.37" height="49.057"/>
				</g>
				<g>
					<rect x="256" y="887.882" style="fill:#465A65;" width="318.37" height="49.057"/>
				</g>
			</g>
		</g>
		<g>
			<g>
				<g>
					<rect x="256" y="1224.985" style="fill:#465A65;" width="318.37" height="49.057"/>
				</g>
			</g>
		</g>
		<circle style="fill:#465A65;" cx="415.183" cy="1385.695" r="39.796"/>
		<g>
			<g>
				<g>
					<path style="fill:#465A65;" d="M493.235,1021.633h-39.441c-13.547,0-24.529-10.982-24.529-24.529s10.982-24.529,24.529-24.529
						h39.441c13.547,0,24.529,10.982,24.529,24.529S506.782,1021.633,493.235,1021.633z"/>
				</g>
				<g>
					<path style="fill:#465A65;" d="M493.235,1105.488h-39.441c-13.547,0-24.529-10.982-24.529-24.528s10.982-24.529,24.529-24.529
						h39.441c13.547,0,24.529,10.982,24.529,24.529S506.782,1105.488,493.235,1105.488z"/>
				</g>
				<g>
					<path style="fill:#465A65;" d="M493.235,1189.343h-39.441c-13.547,0-24.529-10.982-24.529-24.528s10.982-24.529,24.529-24.529
						h39.441c13.547,0,24.529,10.982,24.529,24.529S506.782,1189.343,493.235,1189.343z"/>
				</g>
			</g>
		</g>
		<g>
			<path style="fill:#CFD8DD;" d="M1702.893,1526.223h-5.749c-49.213,0-89.107-39.895-89.107-89.107v-113.818
				c0-43.15,34.98-78.13,78.13-78.13h27.703c43.15,0,78.13,34.98,78.13,78.13v113.818
				C1792,1486.329,1752.105,1526.223,1702.893,1526.223z"/>
			<path style="fill:#465A65;" d="M1713.87,1245.168h-2.52h-22.664h-2.52c-43.15,0-78.13,34.98-78.13,78.13v2.52v11.766
				c27.291,17.094,57.305,26.051,87.449,26.867c3.019,0.082,6.044,0.082,9.065,0c30.144-0.816,60.158-9.773,87.449-26.869v-11.764
				v-2.52C1792,1280.148,1757.02,1245.168,1713.87,1245.168z"/>
			<g>
				<path style="fill:#CFD8DD;" d="M1704.551,1245.168v30.977c0,0.238-0.019,0.472-0.055,0.699
					c-0.336,2.172-2.214,3.834-4.478,3.834c-2.265,0-4.142-1.662-4.478-3.834c-0.036-0.227-0.055-0.461-0.055-0.699v-30.977
					H1704.551z"/>
			</g>
			<g>
				<path style="fill:#CFD8DD;" d="M1700.018,1368.983c-2.504,0-4.533-2.03-4.533-4.533v-30.977c0-2.504,2.03-4.533,4.533-4.533
					c2.504,0,4.533,2.03,4.533,4.533v30.977C1704.551,1366.954,1702.522,1368.983,1700.018,1368.983z"/>
			</g>
			<path style="fill:#CFD8DD;" d="M1700.476,1333.473h-0.915c-7.832,0-14.181-6.349-14.181-14.181v-28.968
				c0-7.832,6.349-14.181,14.181-14.181h0.915c7.832,0,14.181,6.349,14.181,14.181v28.968
				C1714.656,1327.124,1708.307,1333.473,1700.476,1333.473z"/>
		</g>
	</g>
</g>
<g id="Layer_2">
</g>
</svg>
