<svg xmlns="http://www.w3.org/2000/svg" enable-background="new 0 0 512 512" viewBox="0 0 512 512"><path fill="#f8664f" d="M107.053 316.14c-4.93-.472-11.414 1.645-16.906-3.846h0c-4.294-4.294-3.885-9.829-3.846-9.631 0-1.647-1.335-2.982-2.982-2.982H64.691c-3.062 0-6.117.825-8.594 2.625-1.736 1.261-3.457 3.109-4.601 5.81-1.244 2.937-.742 6.324 1.342 8.738 4.647 5.382 17.75 13.313 54.215 10.021V316.14zM404.947 316.14c4.93-.472 11.414 1.645 16.906-3.846l0 0c4.294-4.294 3.885-9.829 3.846-9.631 0-1.647 1.335-2.982 2.982-2.982h18.628c3.062 0 6.117.825 8.594 2.625 1.736 1.261 3.457 3.109 4.601 5.81 1.244 2.937.742 6.324-1.342 8.738-4.647 5.382-17.75 13.313-54.215 10.021V316.14z"/><path fill="#878787" d="M141.439 446.688v50.376c0 6.266-5.08 11.346-11.346 11.346h-29.434c-6.266 0-11.346-5.08-11.346-11.346v-50.376H141.439zM422.687 446.688v50.376c0 6.266-5.08 11.346-11.346 11.346h-29.434c-6.266 0-11.346-5.08-11.346-11.346v-50.376H422.687z"/><path fill="#f8664f" d="M438.327,427.373c-1.27,15.866-6.873,41.771-29.961,41.004c-4.603-0.153-299.002-0.19-304.728,0
			c-23.086,0.767-28.689-25.136-29.959-41.002c-0.63-7.874-1.611-15.713-2.726-23.533c-6.88-48.22,22.481-81.085,45.845-126.852
			l21.891-42.882c4.086-8.004,12.313-13.041,21.299-13.041h192.03c8.986,0,17.214,5.038,21.299,13.041l21.891,42.883
			c23.286,45.615,52.788,78.788,45.818,127.034C439.906,411.781,438.952,419.561,438.327,427.373z"/><path fill="#65c5ef" d="M390.724,328.042c5.985,0,9.761-6.442,6.852-11.672c-41.772-75.107-10.282-19.233-39.163-73.574
			c-1.82-3.566-5.438-5.78-9.441-5.78H163.033c-4.003,0-7.62,2.215-9.441,5.781c-28.625,53.857,2.252-0.826-39.163,73.57
			c-2.912,5.23,0.864,11.675,6.85,11.675H390.724z"/><path d="M390.714,328.054h-2.524c-0.052-0.156-0.13-0.286-0.208-0.443
			c-41.791-75.098-10.305-19.23-39.162-73.563c-1.822-3.565-5.439-5.803-9.446-5.803h-185.95c-0.989,0-1.978,0.156-2.914,0.416
			c0.937-1.796,1.978-3.747,3.097-5.855c1.795-3.565,5.413-5.803,9.42-5.803h185.95c4.007,0,7.624,2.238,9.446,5.803
			c28.884,54.333-2.628-1.535,39.163,73.563C400.472,321.6,396.699,328.054,390.714,328.054z" opacity=".1"/><path fill="#fff" d="M209.213 310.489h-8.795c-1.797 0-3.253-1.456-3.253-3.253 0-1.797 1.456-3.253 3.253-3.253h8.795c1.797 0 3.253 1.456 3.253 3.253C212.466 309.033 211.01 310.489 209.213 310.489zM183.661 310.489h-20.61c-1.797 0-3.253-1.456-3.253-3.253 0-1.797 1.456-3.253 3.253-3.253h20.61c1.797 0 3.253 1.456 3.253 3.253C186.913 309.033 185.457 310.489 183.661 310.489z"/><circle cx="388.972" cy="436.963" r="13.854" fill="#eef0ee" transform="rotate(-45.001 388.97 436.97)"/><circle cx="124.486" cy="436.963" r="13.854" fill="#eef0ee" transform="rotate(-45.001 124.482 436.966)"/><path fill="#eef0ee" d="M329.667,429.183v15.56c0,5.371-4.354,9.725-9.725,9.725H193.517c-5.371,0-9.725-4.354-9.725-9.725
			v-15.56c0-5.371,4.354-9.725,9.725-9.725h126.426C325.313,419.458,329.667,423.812,329.667,429.183z"/><path fill="#e84d3d" d="M386.41,328.042v19.185c0,28.138-22.811,50.949-50.949,50.949H176.542
			c-28.138,0-50.949-22.811-50.949-50.949v-19.185H386.41z"/><path fill="#f9e109" d="M122.01 377.195L86.857 369.6c-3.471-.75-6.773 1.865-6.801 5.417-.053 6.543 1.456 16.311 9.823 22.147.946.66 2.079 1.013 3.233 1.013l35.838 0c3.518 0 5.669-3.861 3.819-6.853l-7.17-11.595C124.797 378.432 123.501 377.517 122.01 377.195zM389.994 377.195l35.153-7.595c3.471-.75 6.773 1.865 6.801 5.417.053 6.543-1.457 16.311-9.823 22.147-.946.66-2.079 1.013-3.233 1.013l-35.838 0c-3.518 0-5.669-3.861-3.819-6.853l7.17-11.595C387.207 378.432 388.503 377.517 389.994 377.195z"/><path fill="#878787" d="M270.92,18.51v48.376h-29.84V18.51c0-8.24,6.68-14.92,14.92-14.92h0
			C264.24,3.591,270.92,10.27,270.92,18.51z"/><path fill="#eef0ee" d="M310.607,104.864L310.607,104.864c0-26.301-21.321-47.623-47.623-47.623h-13.969
			c-26.301,0-47.623,21.321-47.623,47.623v0H310.607z"/><path fill="#eef0ee" d="M318.166,112.136L318.166,112.136c0,4.016-3.256,7.272-7.272,7.272H201.106
			c-4.016,0-7.272-3.256-7.272-7.272v0c0-4.016,3.256-7.272,7.272-7.272h109.789C314.91,104.864,318.166,108.12,318.166,112.136z"/><path fill="#65c5ef" d="M219.544 177.377c0 7.889-6.39 14.279-14.279 14.279-7.87 0-14.26-6.39-14.26-14.279 0-7.87 14.26-28.558 14.26-28.558S219.544 169.506 219.544 177.377zM270.27 177.377c0 7.889-6.39 14.279-14.279 14.279-7.87 0-14.26-6.39-14.26-14.279 0-7.87 14.26-28.558 14.26-28.558S270.27 169.506 270.27 177.377zM320.995 177.377c0 7.889-6.39 14.279-14.279 14.279-7.87 0-14.26-6.39-14.26-14.279 0-7.87 14.26-28.558 14.26-28.558S320.995 169.506 320.995 177.377z"/><path d="M461.727 370.274c-1.969 0-3.492 1.753-3.222 3.71.302 2.188.543 4.339.718 6.375.136 1.581 1.438 2.957 3.371 2.904 1.857-.051 3.262-1.661 3.104-3.511-.182-2.127-.426-4.311-.73-6.529C464.819 371.565 463.426 370.274 461.727 370.274zM459.065 400.774c-.036.324-4.099 35.742-4.375 37.454-.285 1.772.92 3.443 2.692 3.729 1.808.286 3.446-.943 3.729-2.686.292-1.8 4.413-37.684 4.429-37.891.141-1.772-1.168-3.325-2.936-3.493C460.848 397.727 459.259 399.007 459.065 400.774zM111.792 240.994c1.611.82 3.563.175 4.376-1.418l5.127-10.045c.817-1.601.182-3.559-1.418-4.376-1.598-.816-3.559-.182-4.376 1.418l-5.127 10.045C109.557 238.219 110.193 240.177 111.792 240.994zM131.705 214.607c7.643-7.153 17.684-11.092 28.276-11.092h17.617c1.797 0 3.253-1.456 3.253-3.253s-1.456-3.253-3.253-3.253h-17.617c-12.248 0-23.869 4.563-32.72 12.848-1.313 1.227-1.38 3.286-.152 4.597C128.337 215.768 130.397 215.833 131.705 214.607zM121.28 331.295h1.061v15.932c0 29.887 24.315 54.202 54.202 54.202h158.918c29.887 0 54.202-24.315 54.202-54.202v-15.932h1.061c8.471 0 13.808-9.108 9.695-16.505-43.418-78.064-8.59-16.051-39.109-73.473-2.377-4.659-7.105-7.554-12.339-7.554H163.034c-5.232 0-9.96 2.894-12.315 7.508-29.644 55.776 3.162-2.458-39.133 73.514C107.468 322.189 112.812 331.295 121.28 331.295zM383.158 347.227c0 26.3-21.397 47.697-47.696 47.697H176.543c-26.3 0-47.696-21.397-47.696-47.697v-15.932h254.311V347.227zM117.271 317.949c43.141-77.496 9.387-17.544 39.218-73.672 1.262-2.471 3.77-4.007 6.545-4.007h185.937c2.776 0 5.283 1.535 6.569 4.053 30.298 57.003-4.609-5.126 39.194 73.629 1.684 3.026-.455 6.838-4.01 6.838-9.856 0-235.144 0-269.444 0C117.724 324.789 115.585 320.977 117.271 317.949zM388.972 419.856c-9.433 0-17.106 7.674-17.106 17.107 0 9.433 7.673 17.106 17.106 17.106s17.107-7.673 17.107-17.106C406.079 427.53 398.405 419.856 388.972 419.856zM388.972 447.564c-5.845 0-10.6-4.756-10.6-10.6 0-5.846 4.756-10.602 10.6-10.602 5.846 0 10.602 4.756 10.602 10.602C399.574 442.808 394.818 447.564 388.972 447.564zM124.487 419.856c-9.433 0-17.107 7.674-17.107 17.107 0 9.433 7.674 17.106 17.107 17.106s17.106-7.673 17.106-17.106C141.593 427.53 133.92 419.856 124.487 419.856zM124.487 447.564c-5.846 0-10.602-4.756-10.602-10.6 0-5.846 4.756-10.602 10.602-10.602 5.845 0 10.6 4.756 10.6 10.602C135.087 442.808 130.332 447.564 124.487 447.564zM319.942 416.206H193.516c-7.156 0-12.978 5.822-12.978 12.978v15.56c0 7.156 5.822 12.978 12.978 12.978h126.426c7.156 0 12.978-5.822 12.978-12.978v-15.56C332.92 422.027 327.098 416.206 319.942 416.206zM326.415 444.743c0 3.569-2.903 6.472-6.472 6.472H193.516c-3.569 0-6.472-2.903-6.472-6.472v-15.56c0-3.569 2.903-6.472 6.472-6.472h126.426c3.569 0 6.472 2.903 6.472 6.472V444.743z"/><path d="M128.95 401.429c6.069 0 9.779-6.649 6.585-11.816l-7.17-11.593c-1.26-2.039-3.326-3.498-5.668-4.004l-35.155-7.596c-5.493-1.185-10.695 2.963-10.74 8.571-.061 7.72 1.835 18.296 11.217 24.841 1.499 1.044 3.26 1.596 5.093 1.596H128.95zM83.308 375.044c.012-1.482 1.392-2.577 2.861-2.265l35.153 7.596c.001 0 .001 0 .001 0 .623.135 1.171.523 1.508 1.067l7.171 11.593c.512.828-.08 1.889-1.053 1.889H93.112c-.489 0-.977-.152-1.372-.428C84.682 389.573 83.259 381.2 83.308 375.044zM383.639 378.018l-7.171 11.595c-3.192 5.163.516 11.815 6.585 11.815h35.838c1.832 0 3.593-.551 5.095-1.597 9.379-6.544 11.275-17.12 11.214-24.841-.045-5.603-5.243-9.755-10.742-8.57l-35.153 7.596C386.964 374.521 384.898 375.98 383.639 378.018zM390.679 380.374c0 0 0 0 .001 0l35.152-7.596c1.469-.309 2.851.78 2.863 2.264.05 6.157-1.374 14.53-8.429 19.451-.398.277-.886.429-1.375.429h-35.838c-.975 0-1.565-1.063-1.053-1.888l7.172-11.595C389.508 380.897 390.057 380.508 390.679 380.374z"/><path d="M472.151 505.157h-48.669c1.55-2.318 2.458-5.101 2.458-8.094v-30.951c8.724-6.84 14.141-19.89 15.629-38.48.557-6.959 1.432-14.529 2.677-23.142 4.056-28.076-3.661-50.785-15.518-73.818 19.241-1.151 28.489-6.589 32.894-11.693 7.244-8.385-.474-22.55-14.314-22.55h-18.627c-3.438 0-6.235 2.797-6.235 6.235 0 3.498-1.439 6.587-4.419 8.551-1.171-2.04-2.357-4.093-3.554-6.165-18.997-32.88-15.438-28.609-38.26-72.421-4.664-9.138-13.936-14.815-24.196-14.815h-192.03c-10.26 0-19.531 5.677-24.197 14.815-23.543 45.191-19.119 39.3-38.349 72.576-1.17 2.025-2.331 4.032-3.477 6.026-2.599-1.737-4.412-4.649-4.412-8.567 0-3.438-2.797-6.235-6.235-6.235H64.692c-13.869 0-21.546 14.178-14.316 22.55 4.403 5.101 13.671 10.522 32.897 11.675-11.829 22.954-19.542 45.597-15.539 73.648 1.299 9.102 2.157 16.516 2.703 23.332 1.489 18.584 6.904 31.629 15.624 38.469v30.96c0 2.992.908 5.775 2.458 8.094H39.849c-1.797 0-3.253 1.456-3.253 3.253s1.456 3.253 3.253 3.253c160.043 0 274.18 0 432.301 0 1.797 0 3.253-1.456 3.253-3.253S473.947 505.157 472.151 505.157zM428.951 302.934h18.357c8.408 0 12.812 7.832 9.391 11.794-2.567 2.973-10.337 8.798-31.349 9.55-1.329-2.45-2.688-4.908-4.086-7.384C426.605 313.559 429.14 307.487 428.951 302.934zM55.3 314.728c-3.419-3.962 1.001-11.794 9.392-11.794h18.357c-.196 4.731 2.496 10.747 7.699 13.939-1.407 2.488-2.775 4.96-4.113 7.422C65.608 323.549 57.869 317.703 55.3 314.728zM76.921 427.116c-.557-6.953-1.429-14.495-2.748-23.733-5.141-36.03 10.635-63.322 28.901-94.923 19.191-33.196 15.511-28.726 38.511-72.873 3.549-6.95 10.6-11.268 18.403-11.268h192.03c7.804 0 14.854 4.317 18.402 11.268 22.803 43.774 19.196 39.441 38.42 72.717 18.342 31.747 34.181 59.165 28.967 95.256-1.264 8.751-2.155 16.455-2.723 23.554-1.159 14.487-6.156 38.716-26.61 38.012-5.729-.189-299.19-.189-304.943 0C83.016 465.812 78.08 441.601 76.921 427.116zM144.692 471.529c58.266-.058 164.348-.058 222.617 0v25.534c0 2.992.908 5.775 2.458 8.094H142.234c1.55-2.318 2.458-5.101 2.458-8.094V471.529zM100.658 505.157c-4.462 0-8.092-3.631-8.092-8.094v-27.264c3.39 1.31 7.11 1.958 11.181 1.829 1.162-.039 14.267-.07 34.439-.093v25.527c0 4.462-3.631 8.094-8.094 8.094H100.658zM381.907 505.157c-4.462 0-8.094-3.631-8.094-8.094v-25.527c20.177.023 33.286.054 34.444.093 3.871.118 7.561-.397 11.176-1.788v27.222c0 4.462-3.63 8.094-8.092 8.094H381.907zM201.106 122.66h109.789c5.803 0 10.524-4.721 10.524-10.524 0-4.819-3.274-8.848-7.702-10.091-1.267-22.943-17.755-41.862-39.545-46.777V18.51c0-10.02-8.152-18.172-18.172-18.172S237.828 8.49 237.828 18.51v36.758c-21.791 4.915-38.278 23.834-39.545 46.777-4.427 1.243-7.701 5.272-7.701 10.091C190.581 117.938 195.303 122.66 201.106 122.66zM244.333 18.51c0-6.433 5.234-11.667 11.667-11.667 6.433 0 11.667 5.234 11.667 11.667v35.716c-1.544-.142-3.102-.237-4.682-.237h-13.969c-1.58 0-3.138.096-4.682.237V18.51zM249.016 60.494h13.969c23.372 0 42.582 18.163 44.252 41.117H204.764C206.433 78.657 225.643 60.494 249.016 60.494zM201.106 108.117h.287 109.214.287c2.216 0 4.019 1.803 4.019 4.019 0 2.216-1.803 4.019-4.019 4.019H201.106c-2.216 0-4.019-1.803-4.019-4.019C197.087 109.92 198.89 108.117 201.106 108.117zM205.266 194.908c9.667 0 17.532-7.865 17.532-17.532 0-8.456-12.374-26.812-14.854-30.405-.607-.881-1.609-1.405-2.677-1.405h-.001c-1.069 0-2.07.526-2.677 1.407-2.476 3.594-14.834 21.949-14.834 30.404C187.753 187.043 195.609 194.908 205.266 194.908zM205.268 154.69c5.049 7.836 11.024 18.476 11.024 22.686 0 6.08-4.946 11.026-11.026 11.026-6.07 0-11.007-4.946-11.007-11.026C194.258 173.169 200.225 162.528 205.268 154.69zM255.991 145.566h-.001c-1.069 0-2.07.526-2.677 1.407-2.478 3.594-14.835 21.949-14.835 30.404 0 9.667 7.856 17.532 17.514 17.532 9.667 0 17.532-7.865 17.532-17.532 0-8.456-12.374-26.812-14.854-30.405C258.061 146.091 257.06 145.566 255.991 145.566zM267.017 177.376c0 6.08-4.946 11.026-11.026 11.026-6.07 0-11.008-4.946-11.008-11.026 0-4.207 5.967-14.848 11.011-22.686C261.043 162.526 267.017 173.165 267.017 177.376zM306.715 145.566h-.001c-1.069 0-2.07.526-2.677 1.407-2.476 3.594-14.834 21.949-14.834 30.404 0 9.667 7.856 17.532 17.512 17.532 9.667 0 17.532-7.865 17.532-17.532 0-8.456-12.374-26.812-14.854-30.405C308.785 146.091 307.784 145.566 306.715 145.566zM306.715 188.402c-6.07 0-11.007-4.946-11.007-11.026 0-4.207 5.967-14.848 11.01-22.686 5.049 7.836 11.024 18.476 11.024 22.686C317.742 183.456 312.795 188.402 306.715 188.402z"/></svg>