<?xml version="1.0" encoding="UTF-8"?>
<!DOCTYPE svg PUBLIC "-//W3C//DTD SVG 1.1//EN" "http://www.w3.org/Graphics/SVG/1.1/DTD/svg11.dtd">
<!-- Creator: CorelDRAW -->
<svg xmlns="http://www.w3.org/2000/svg" xml:space="preserve" width="6.82666in" height="6.82666in" style="shape-rendering:geometricPrecision; text-rendering:geometricPrecision; image-rendering:optimizeQuality; fill-rule:evenodd; clip-rule:evenodd"
viewBox="0 0 6.82666 6.82666"
 xmlns:xlink="http://www.w3.org/1999/xlink">
 <defs>
  <style type="text/css">
   <![CDATA[
    .fil5 {fill:none}
    .fil4 {fill:#63CBE5}
    .fil3 {fill:#949494}
    .fil0 {fill:#C794BE}
    .fil2 {fill:#FFD3B3}
    .fil1 {fill:#333333;fill-rule:nonzero}
   ]]>
  </style>
 </defs>
 <g id="Layer_x0020_1">
  <metadata id="CorelCorpID_0Corel-Layer"/>
  <path class="fil0" d="M0.991161 2.52771c0,0.560378 -0.00801181,1.05778 -0.0246811,1.55037 -0.0167992,0.496362 -0.0425827,0.999091 -0.0779567,1.56513 -0.00873228,0.148484 0.068685,0.24911 0.172476,0.297835 0.0386102,0.018122 0.0805236,0.0285157 0.122449,0.0309803 0.0418386,0.00246063 0.0846614,-0.00296063 0.125165,-0.0164449 0.108823,-0.0362362 0.197539,-0.127083 0.206268,-0.27552l0.0677874 -1.08463 0.138035 1.10428c0.0180433,0.147878 0.112398,0.233142 0.223433,0.262524 0.0413346,0.010937 0.0845157,0.0136654 0.126252,0.00857087 0.0418465,-0.0051063 0.0831772,-0.0181535 0.120697,-0.0387323 0.100587,-0.0551654 0.171571,-0.160583 0.153516,-0.308512 -0.0463898,-0.371138 -0.0828622,-0.663067 -0.109496,-0.899185 -0.0279055,-0.247327 -0.0480906,-0.456689 -0.0624961,-0.667346 -0.0201575,-0.294791 -0.0243858,-0.643059 -0.0282953,-0.965425 -0.00109055,-0.0900079 -0.00216142,-0.178043 -0.00351181,-0.261539l0.459205 -0.0169331 0.101598 -0.00374803c0.0347047,0.00100787 0.0722913,-0.0116693 0.11174,-0.0350472 0.0125315,-0.0074252 0.025252,-0.0159331 0.0381299,-0.0254252 0.0398898,-0.0294055 0.0856732,-0.0704567 0.134165,-0.118193 0.043,-0.0423307 0.0884134,-0.0901575 0.133744,-0.139709 0.0652205,-0.0712913 0.130272,-0.146146 0.187744,-0.213339 0.025811,-0.0301811 0.0500945,-0.058815 0.0721772,-0.0848858 -0.019315,-0.0054252 -0.0366142,-0.0180984 -0.0474646,-0.0368307 -0.0220906,-0.0381417 -0.00907874,-0.0869724 0.029063,-0.109063l0.160807 -0.093378c0.00545669,-0.0406535 0.00279921,-0.081689 -0.00736614,-0.120764 -0.0193386,-0.0743307 -0.0657953,-0.141626 -0.135161,-0.185799l-0.000204724 -0.000149606 -0.000712598 -0.000519685c-0.00593701,-0.00432283 -0.0123346,-0.00805118 -0.0191102,-0.0110866 -0.0528425,-0.0284921 -0.11048,-0.0402953 -0.166642,-0.0370551l0.0309567 0.053311c0.0220906,0.0381417 0.00907874,0.0869724 -0.029063,0.109063 -0.0381417,0.0220906 -0.0869724,0.00907874 -0.109063,-0.029063l-0.0476535 -0.0820709c-0.0353465,0.023252 -0.0664803,0.054 -0.0907953,0.091563l-0.133551 0.143268 -0.213339 0.228862 -0.0696142 0.0746772c-0.0611417,-0.0125394 -0.138276,-0.0296063 -0.222559,-0.048248 -0.267969,-0.0592756 -0.605449,-0.133937 -0.742591,-0.133937 -0.155976,0 -0.297937,0.0568583 -0.401346,0.14878 -0.106717,0.0948622 -0.172736,0.226819 -0.172736,0.373366zm1.71662 0.0686181c1.5748e-005,0 3.54331e-005,3.93701e-006 5.11811e-005,3.93701e-006 0.00149606,1.5748e-005 0.00298425,5.90551e-005 0.00446457,0.000137795 -0.000448819,0.000169291 -0.00101969,0.000240157 -0.00176378,0.000208661l1.1811e-005 -0.000204724c-0.00092126,-5.90551e-005 -0.00184252,-0.000106299 -0.00276378,-0.000145669zm-0.779717 0.223299c-0.000464567,-0.0277008 -0.000964567,-0.0550748 -0.00151575,-0.0820945l0.0615906 0.0981614c-0.0220157,0.000775591 -0.0427087,-0.00519685 -0.0600748,-0.0160669z"/>
  <g id="_442817304">
   <path id="_442818360" class="fil1" d="M2.60001 2.1213c0,0.0589094 0.0477598,0.106669 0.106669,0.106669 0.0589094,0 0.106669,-0.0477598 0.106669,-0.106669l0 -1.05458 2.91213 0 0 2.63524 -2.91213 0 0 -0.998969c0,-0.0589094 -0.0477598,-0.106669 -0.106669,-0.106669 -0.0589094,0 -0.106669,0.0477598 -0.106669,0.106669l0 1.10564c0,0.0589094 0.0477598,0.106669 0.106669,0.106669l3.12546 0c0.0589094,0 0.106669,-0.0477598 0.106669,-0.106669l0 -2.84858c0,-0.0589094 -0.0477598,-0.106669 -0.106669,-0.106669l-3.12546 0c-0.0589094,0 -0.106669,0.0477598 -0.106669,0.106669l0 1.16125z"/>
   <path id="_442818168" class="fil1" d="M4.37608 0.9955c0,-0.0589094 -0.0477598,-0.106669 -0.106669,-0.106669 -0.0589094,0 -0.106669,0.0477598 -0.106669,0.106669l0 2.77767c0,0.0589094 0.0477598,0.106669 0.106669,0.106669 0.0589094,0 0.106669,-0.0477598 0.106669,-0.106669l0 -2.77767z"/>
   <path id="_442818552" class="fil1" d="M3.10713 2.27767c-0.0589094,0 -0.106669,0.0477598 -0.106669,0.106669 0,0.0589094 0.0477598,0.106669 0.106669,0.106669l2.72501 0c0.0589094,0 0.106669,-0.0477598 0.106669,-0.106669 0,-0.0589094 -0.0477598,-0.106669 -0.106669,-0.106669l-2.72501 0z"/>
   <path id="_442817232" class="fil1" d="M1.92655 2.73753l0.0615906 0.0981614c-0.0220157,0.000775591 -0.0427087,-0.00519685 -0.0600748,-0.0160669 -0.000464567,-0.0277008 -0.000964567,-0.0550748 -0.00151575,-0.0820945zm0.214252 0.0925315c0.00135039,0.0834961 0.00242126,0.171531 0.00351181,0.261539 0.00390945,0.322366 0.0081378,0.670634 0.0282953,0.965425 0.0144055,0.210657 0.0345906,0.42002 0.0624961,0.667346 0.0266339,0.236118 0.0631063,0.528047 0.109496,0.899185 0.0180551,0.147929 -0.0529291,0.253346 -0.153516,0.308512 -0.0375197,0.0205787 -0.0788504,0.033626 -0.120697,0.0387323 -0.0417362,0.00509449 -0.0849173,0.00236614 -0.126252,-0.00857087 -0.111035,-0.0293819 -0.20539,-0.114646 -0.223433,-0.262524l-0.138035 -1.10428 -0.0677874 1.08463c-0.00872835,0.148437 -0.0974449,0.239283 -0.206268,0.27552 -0.0405039,0.0134843 -0.0833268,0.0189055 -0.125165,0.0164449 -0.0419252,-0.00246457 -0.0838386,-0.0128583 -0.122449,-0.0309803 -0.103791,-0.0487244 -0.181209,-0.14935 -0.172476,-0.297835 0.035374,-0.566035 0.0611575,-1.06876 0.0779567,-1.56513 0.0166693,-0.492598 0.0246811,-0.989996 0.0246811,-1.55037 0,-0.146547 0.0660197,-0.278504 0.172736,-0.373366 0.103409,-0.0919213 0.24537,-0.14878 0.401346,-0.14878 0.137142,0 0.474622,0.0746614 0.742591,0.133937 0.0842835,0.0186417 0.161417,0.0357087 0.222559,0.048248l0.416504 -0.446807c0.0441929,-0.0682756 0.110909,-0.114031 0.184524,-0.133185 0.0741772,-0.0192913 0.155445,-0.0115394 0.227736,0.027437 0.00677559,0.00303543 0.0131732,0.00676378 0.0191102,0.0110866l0.000712598 0.000519685 0.000204724 0.000149606c0.0693661,0.0441732 0.115823,0.111469 0.135161,0.185799 0.0192953,0.0741772 0.0115433,0.155417 -0.0274252,0.227713 -0.00272835,0.00609055 -0.00601575,0.011878 -0.00979134,0.0172992l-7.08661e-005 0.000102362 -0.00133858 0.00187008 -0.000326772 0.000448819 -0.00109055 0.00144882 -0.000669291 0.000870079 -0.000507874 0.000645669c-0.00211417,0.00267717 -0.00433858,0.00523228 -0.00666535,0.00765748 -0.0225,0.0256339 -0.0471102,0.0546929 -0.0765669,0.0894803 -0.105374,0.124437 -0.267079,0.315394 -0.404252,0.450433 -0.0484921,0.0477362 -0.0942756,0.0887874 -0.134165,0.118193 -0.0534055,0.0393661 -0.104138,0.0617992 -0.14987,0.0604724l-0.560803 0.0206811zm-0.208992 0.264043c-0.0011378,-0.0940591 -0.00225591,-0.185925 -0.00374409,-0.27448 -0.0289213,-0.0180984 -0.0486339,-0.0497677 -0.0499291,-0.0864331 -0.00207087,-0.0586811 0.0438189,-0.107933 0.1025,-0.110004l0.710307 -0.0261929c0.0063937,-0.000759843 0.0129449,-0.000956693 0.0196024,-0.000523622l-1.1811e-005 0.000204724c0.00671654,0.000275591 -0.000759843,-0.00774016 0.0151063,-0.019437 0.0313622,-0.0231181 0.0693858,-0.0573898 0.110835,-0.0981929 0.129102,-0.127091 0.287618,-0.314283 0.390913,-0.436268 0.0314724,-0.0371654 0.0582717,-0.068811 0.0748504,-0.0879449 0.0103661,-0.022063 0.0120945,-0.046378 0.00627165,-0.0687559 -0.00601969,-0.0231496 -0.0201732,-0.0441732 -0.0412283,-0.0583937 -0.0019252,-0.000980315 -0.00383858,-0.00201575 -0.00572835,-0.00312598l0.000204724 -0.000350394c-0.0241339,-0.0141496 -0.0518071,-0.0171732 -0.0770079,-0.0106181 -0.0230984,0.00600787 -0.0440827,0.0201181 -0.0583071,0.0411063 -0.00443307,0.00875591 -0.0101496,0.0170394 -0.0171772,0.0245787l-0.000173228 -0.000161417 -0.458224 0.491559c-0.0238228,0.0293268 -0.0625118,0.0450591 -0.102276,0.0377008l6.29921e-005 -0.000334646c-0.0659488,-0.0122087 -0.169657,-0.0351535 -0.286657,-0.0610354 -0.256295,-0.0566929 -0.579079,-0.128102 -0.696756,-0.128102 -0.102161,0 -0.193921,0.0361575 -0.259677,0.0946063 -0.062437,0.0555 -0.101067,0.131295 -0.101067,0.214201 0,0.548094 -0.00828346,1.04779 -0.0255157,1.55704 -0.0171102,0.505476 -0.0428622,1.0094 -0.0779567,1.57096 -0.00279134,0.0474921 0.0196929,0.0786142 0.0499724,0.0928268 0.0135354,0.00635039 0.0289449,0.0100394 0.0449528,0.0109803 0.0160866,0.000944882 0.0318465,-0.000901575 0.0459921,-0.00561024 0.0316929,-0.0105512 0.0576378,-0.0388268 0.0604331,-0.0863543l0.0850236 -1.36041c-3.14961e-005,-0.00688976 0.000606299,-0.0138858 0.0019685,-0.0209055l0.000185039 3.54331e-005c0.0125551,-0.0642992 0.0485709,-0.10978 0.0934488,-0.135894 0.0287323,-0.0167165 0.0605039,-0.0250512 0.0920039,-0.0250512l0 0.000417323c0.0319331,-7.87402e-006 0.0637756,0.00835039 0.0921535,0.025 0.0413386,0.0242598 0.0746535,0.0650787 0.0884606,0.121705 0.00179528,0.00584646 0.00311417,0.0119252 0.00389764,0.0182008l-0.105843 0.0132283 0.105835 -0.0129173 0.172862 1.38291c0.00577165,0.0473071 0.0335276,0.0739488 0.0659291,0.0825236 0.0144449,0.00382283 0.0302874,0.00468504 0.046252,0.00273622 0.0158661,-0.00193701 0.0309646,-0.00656693 0.0440276,-0.0137323 0.0295039,-0.0161772 0.0501181,-0.0487402 0.0443504,-0.0960079 -0.0447638,-0.358126 -0.0799882,-0.640098 -0.109496,-0.901689 -0.028248,-0.250374 -0.0487008,-0.462575 -0.0633307,-0.676512 -0.0199882,-0.292276 -0.0243031,-0.647906 -0.0282953,-0.977087zm1.37043 -1.13927c0.0027126,-0.00312992 0.00514961,-0.00593307 0.00729134,-0.0083622"/>
   <path id="_442817112" class="fil1" d="M1.53302 1.07449c-0.0852874,0 -0.162496,0.034563 -0.21837,0.090437 -0.055874,0.055878 -0.090437,0.133087 -0.090437,0.21837 0,0.0852874 0.0345669,0.1625 0.090437,0.218374 0.055874,0.055874 0.133083,0.090437 0.21837,0.090437 0.0852874,0 0.1625,-0.0345669 0.21837,-0.0904409 0.055874,-0.0558701 0.0904409,-0.133083 0.0904409,-0.21837 0,-0.0852874 -0.034563,-0.162492 -0.0904409,-0.21837 -0.055874,-0.055874 -0.133083,-0.090437 -0.21837,-0.090437zm-0.369205 -0.0603976c0.0944921,-0.0944921 0.225031,-0.152941 0.369205,-0.152941 0.144173,0 0.274713,0.0584488 0.369205,0.152941 0.0944961,0.0944961 0.152945,0.225031 0.152945,0.369205 0,0.144177 -0.0584528,0.274717 -0.152945,0.369205 -0.0944882,0.0944921 -0.225028,0.152945 -0.369205,0.152945 -0.144173,0 -0.274713,-0.0584488 -0.369205,-0.152941 -0.0944921,-0.0944961 -0.152941,-0.225035 -0.152941,-0.369209 0,-0.144173 0.0584488,-0.274709 0.152941,-0.369205z"/>
   <path id="_442817712" class="fil1" d="M3.08535 1.73145c0.0220906,0.0381417 0.0709213,0.0511535 0.109063,0.029063 0.0381417,-0.0220906 0.0511535,-0.0709213 0.029063,-0.109063l-0.0785748 -0.135319 0.326323 -0.189484 0.284949 0.490724 -0.395264 0.22952c-0.0381417,0.0220906 -0.0511535,0.0709213 -0.029063,0.109063 0.0220906,0.0381417 0.0709213,0.0511535 0.109063,0.029063l0.459713 -0.266945c0.00162205,-0.000799213 0.00323228,-0.00165748 0.0048189,-0.00257874 0.0382047,-0.022185 0.0511929,-0.0711496 0.0290079,-0.109354l-0.000165354 9.44882e-005 -0.362358 -0.624035c-0.000799213,-0.00162205 -0.00165748,-0.00323228 -0.00257874,-0.0048189 -0.022185,-0.0382047 -0.0711496,-0.0511929 -0.109354,-0.0290079l9.44882e-005 0.000165354 -0.459634 0.266894c-0.00162205,0.000799213 -0.00323228,0.00165748 -0.0048189,0.00257874 -0.0382047,0.022185 -0.0511929,0.0711496 -0.0290079,0.109354l0.000165354 -9.44882e-005 0.118559 0.204181z"/>
  </g>
  <path class="fil2" d="M1.31465 1.16493c-0.055874,0.055878 -0.090437,0.133087 -0.090437,0.21837 0,0.0852874 0.0345669,0.1625 0.090437,0.218374 0.055874,0.055874 0.133083,0.090437 0.21837,0.090437 0.0852874,0 0.1625,-0.0345669 0.21837,-0.0904409 0.055874,-0.0558701 0.0904409,-0.133083 0.0904409,-0.21837 0,-0.0852874 -0.034563,-0.162492 -0.0904409,-0.21837 -0.055874,-0.055874 -0.133083,-0.090437 -0.21837,-0.090437 -0.0852874,0 -0.162496,0.034563 -0.21837,0.090437z"/>
  <path class="fil3" d="M3.37919 1.64695c0.0693661,0.0441732 0.115823,0.111469 0.135161,0.185799 0.0101654,0.0390748 0.0128228,0.0801102 0.00736614,0.120764l0.234457 -0.136142 -0.284949 -0.490724 -0.326323 0.189484 0.0476181 0.0820079c0.0561614,-0.00324409 0.113799,0.00856299 0.166642,0.0370551 0.00677559,0.00303543 0.0131732,0.00676378 0.0191102,0.0110866l0.000712598 0.000519685 0.000204724 0.000149606z"/>
  <g id="_442816776">
   <polygon id="_442817352" class="fil4" points="4.37608,1.06672 4.37608,2.27767 5.72547,2.27767 5.72547,1.06672 "/>
   <path id="_442817640" class="fil4" d="M3.57192 1.1822l0.362358 0.624035 0.000165354 -9.44882e-005c0.022185,0.0382047 0.00919685,0.0871693 -0.0290079,0.109354 -0.00158661,0.00092126 -0.00319685,0.00177953 -0.0048189,0.00257874l-0.459713 0.266945c-0.0194094,0.0112402 -0.0415866,0.0133937 -0.0615984,0.00776772 -0.00167323,0.00197638 -0.0033622,0.0039685 -0.00506299,0.00597638 -0.019874,0.0234685 -0.0424803,0.0501496 -0.0670472,0.0789094l0.855543 0 0 -1.21095 -1.34939 0 0 0.817492 0.133551 -0.143268c0.024315,-0.037563 0.0554449,-0.068311 0.0907953,-0.091563l-0.0709055 -0.12211 -0.000165354 9.44882e-005c-0.022185,-0.0382047 -0.00919685,-0.0871693 0.0290079,-0.109354 0.00158661,-0.00092126 0.00319685,-0.00177953 0.0048189,-0.00257874l0.459634 -0.266894 -9.44882e-005 -0.000165354c0.0382047,-0.022185 0.0871693,-0.00919685 0.109354,0.0290079 0.00092126,0.00158661 0.00177953,0.00319685 0.00257874,0.0048189z"/>
   <path id="_442817592" class="fil4" d="M2.81335 2.77448l0 0.92748 1.34939 0 0 -1.21095 -1.0433 0c-0.0160394,0.0175118 -0.0321496,0.034874 -0.0482126,0.0519016 -0.0290866,0.0308819 -0.0578425,0.0604882 -0.0855906,0.0878071 -0.0481102,0.0473622 -0.0935551,0.0881417 -0.133224,0.117496 -0.000311024,0.000232283 -0.000625984,0.000464567 -0.000940945,0.00069685 -0.0126693,0.00933858 -0.0253425,0.0179528 -0.0381299,0.0255709z"/>
   <polygon id="_442816896" class="fil4" points="4.37608,2.49101 4.37608,3.70196 5.72547,3.70196 5.72547,2.49101 "/>
  </g>
 </g>
 <rect class="fil5" width="6.82666" height="6.82666"/>
</svg>
