<?xml version="1.0" encoding="utf-8"?>
<!-- Generator: Adobe Illustrator 22.1.0, SVG Export Plug-In . SVG Version: 6.00 Build 0)  -->
<svg version="1.1" id="Layer_1" xmlns="http://www.w3.org/2000/svg" xmlns:xlink="http://www.w3.org/1999/xlink" x="0px" y="0px"
	 viewBox="0 0 512 512" style="enable-background:new 0 0 512 512;" xml:space="preserve">
<style type="text/css">
	.st0{fill:#FCE575;}
	.st1{fill:#FFD551;}
	.st2{fill:#FFA730;}
	.st3{fill:#E58D23;}
	.st4{fill:#FF624B;}
	.st5{fill:#FFF4C1;}
	.st6{fill:#FCDA4F;}
	.st7{fill:#FF4B34;}
	.st8{fill:#CCC033;}
	.st9{fill:#99AF17;}
	.st10{fill:#FF9079;}
	.st11{fill:#EACF32;}
	.st12{fill:#F9BB32;}
	.st13{fill:#FFEA63;}
	.st14{fill:#FFEACF;}
	.st15{fill:#FFD59A;}
	.st16{fill:#FFC34C;}
	.st17{fill:#A56021;}
	.st18{fill:#FFDF74;}
	.st19{fill:#BF6C0D;}
	.st20{fill:#FFB74B;}
	.st21{fill:#8C4C17;}
	.st22{fill:#FCF9DE;}
	.st23{fill:#DB9C2E;}
	.st24{fill:#FFF9DC;}
	.st25{fill:none;}
</style>
<g>
	<g>
		<path class="st6" d="M87.573,193.591c-0.018-1.204-0.053-2.403-0.106-3.598c0.731-5.548,5.464-9.835,11.211-9.835h37.549
			c5.596,0,10.532,3.897,11.58,9.212c0.018,1.204,0.053,2.403,0.106,3.598c-0.73,5.548-5.463,9.835-11.21,9.835H99.154
			C93.557,202.804,88.622,198.907,87.573,193.591z"/>
	</g>
	<g>
		<path class="st6" d="M148.759,87.551c0.839-0.864,1.662-1.736,2.469-2.619c4.44-3.406,10.818-3.091,14.882,0.973l26.551,26.551
			c3.957,3.957,4.692,10.203,1.674,14.702c-0.839,0.863-1.662,1.736-2.469,2.619c-4.439,3.407-10.818,3.092-14.882-0.972
			l-26.551-26.551C146.476,98.296,145.742,92.051,148.759,87.551z"/>
	</g>
	<g>
		<path class="st6" d="M424.427,193.428c0.018-1.204,0.053-2.403,0.106-3.598c-0.731-5.548-5.464-9.835-11.211-9.835h-37.549
			c-5.596,0-10.532,3.897-11.58,9.212c-0.018,1.204-0.053,2.403-0.106,3.598c0.73,5.548,5.463,9.835,11.21,9.835h37.549
			C418.443,202.64,423.378,198.743,424.427,193.428z"/>
	</g>
	<g>
		<path class="st6" d="M363.241,87.387c-0.839-0.864-1.662-1.736-2.469-2.619c-4.44-3.406-10.818-3.091-14.882,0.973l-26.551,26.551
			c-3.957,3.957-4.692,10.203-1.674,14.702c0.839,0.863,1.662,1.736,2.469,2.619c4.439,3.407,10.818,3.092,14.882-0.972
			l26.551-26.551C365.524,98.133,366.258,91.887,363.241,87.387z"/>
	</g>
	<g>
		<path class="st6" d="M260.014,45.283c-1.204-0.018-2.403-0.053-3.598-0.106c-5.548,0.731-9.835,5.464-9.835,11.211v37.549
			c0,5.596,3.897,10.532,9.212,11.58c1.204,0.018,2.403,0.053,3.598,0.106c5.548-0.73,9.835-5.463,9.835-11.21V56.864
			C269.226,51.267,265.329,46.332,260.014,45.283z"/>
	</g>
	<g>
		<path class="st3" d="M256,466.823L256,466.823c-25.226,0-45.677-20.45-45.677-45.676v-15.055h91.353v15.055
			C301.676,446.373,281.226,466.823,256,466.823z"/>
	</g>
	<g>
		<path class="st19" d="M240.323,421.147v-15.055h-30v15.055c0,25.226,20.45,45.676,45.677,45.676l0,0c5.256,0,10.3-0.898,15-2.533
			C253.145,458.082,240.323,441.116,240.323,421.147z"/>
	</g>
	<g>
		<path class="st19" d="M210.323,421.147c0,1.836,0.121,3.645,0.332,5.424c2.526,1.352,5.409,2.122,8.473,2.122h73.743
			c3.064,0,5.948-0.771,8.473-2.122c0.211-1.779,0.332-3.588,0.332-5.424v-15.055h-91.353V421.147z"/>
	</g>
	<g>
		<path class="st5" d="M352.105,219.158c0-54.129-43.88-98.009-98.009-98.009s-98.009,43.879-98.009,98.009
			c0,23.475,8.262,45.014,22.025,61.89c5.628,9.655,26.139,47.005,27.06,80.1v25.702h97.848v-25.086
			c1.068-38.372,28.49-82.5,28.49-82.5h-0.028C344.394,262.664,352.105,241.817,352.105,219.158z"/>
	</g>
	<g>
		<path class="st0" d="M234.726,281.048c-13.763-16.876-22.025-38.415-22.025-61.89c0-44.285,29.378-81.693,69.702-93.84
			c-8.964-2.701-18.462-4.169-28.307-4.169c-54.129,0-98.009,43.879-98.009,98.009c0,23.475,8.262,45.014,22.025,61.89
			c5.628,9.655,26.139,47.005,27.06,80.1v25.702h56.614v-25.702C260.865,328.053,240.354,290.703,234.726,281.048z"/>
	</g>
	<g>
		<path class="st3" d="M292.871,415.692h-73.743c-9.941,0-18-8.059-18-18v-4.881c0-9.941,8.059-18,18-18h73.743
			c9.941,0,18,8.059,18,18v4.881C310.871,407.633,302.812,415.692,292.871,415.692z"/>
	</g>
	<g>
		<path class="st3" d="M301.428,380.937h-90.855c-9.941,0-18-8.059-18-18v-4.881c0-9.941,8.059-18,18-18h90.855
			c9.941,0,18,8.059,18,18v4.881C319.428,372.878,311.369,380.937,301.428,380.937z"/>
	</g>
	<g>
		<path class="st19" d="M232.572,362.937v-4.881c0-9.941,8.059-18,18-18h-40c-9.941,0-18,8.059-18,18v4.881c0,9.941,8.059,18,18,18
			h40C240.631,380.937,232.572,372.878,232.572,362.937z"/>
	</g>
	<g>
		<path class="st19" d="M241.129,398.693v-4.882c0-9.941,8.059-18,18-18h-40c-9.941,0-18,8.059-18,18v4.882c0,9.94,8.059,18,18,18
			h40C249.187,416.693,241.129,408.633,241.129,398.693z"/>
	</g>
	<g>
		<path class="st19" d="M201.316,390.354c2.707,1.629,5.866,2.583,9.256,2.583h90.855c3.39,0,6.549-0.954,9.256-2.583
			c-1.201-8.775-8.708-15.543-17.813-15.543h-73.743C210.023,374.811,202.517,381.578,201.316,390.354z"/>
	</g>
	<g>
		<g>
			<path class="st16" d="M235.308,311.018c-1.933,0-3.891-0.51-5.667-1.58c-5.204-3.136-6.88-9.896-3.745-15.099l29.516-48.984
				l-15.919,4.788c-5.667,1.702-11.757-0.049-15.512-4.465c-3.638-4.278-4.387-10.328-1.908-15.411l31.014-63.599
				c2.663-5.461,9.251-7.73,14.708-5.065c5.46,2.662,7.729,9.248,5.066,14.708l-23.329,47.84l18.172-5.466
				c5.937-1.786,12.183,0.157,15.908,4.952c3.616,4.654,3.968,10.957,0.897,16.056l-39.77,66
				C242.675,309.12,239.037,311.018,235.308,311.018z"/>
		</g>
	</g>
	<g>
		<path class="st22" d="M335.004,225.866c-0.091,0-0.182-0.002-0.274-0.006c-3.311-0.149-5.874-2.954-5.725-6.264
			c1.809-40.196-29.813-57.376-30.132-57.545c-2.93-1.548-4.05-5.178-2.502-8.108c1.547-2.93,5.178-4.051,8.108-2.502
			c1.58,0.834,38.661,20.985,36.515,68.695C340.849,223.354,338.194,225.866,335.004,225.866z"/>
	</g>
	<g>
		<circle class="st0" cx="273.516" cy="309.325" r="13.683"/>
	</g>
	<g>
		<path class="st20" d="M244.641,301.438c-5.204-3.136-6.88-9.896-3.745-15.099l29.516-48.984l-15.919,4.788
			c-5.667,1.702-11.757-0.049-15.512-4.465c-3.638-4.278-4.387-10.328-1.908-15.411l29.779-61.067
			c-5.253-1.988-11.254,0.318-13.765,5.469l-31.014,63.599c-2.479,5.083-1.729,11.133,1.908,15.411
			c3.755,4.416,9.845,6.167,15.512,4.465l15.919-4.788l-29.516,48.984c-3.135,5.203-1.459,11.963,3.745,15.099
			c1.776,1.07,3.734,1.58,5.667,1.58c3.729,0,7.367-1.897,9.432-5.325l1.99-3.303C246.017,302.143,245.313,301.843,244.641,301.438z
			"/>
	</g>
	<g>
		<path class="st2" d="M301.676,359.324h-28.161c-3.313,0-6-2.687-6-6s2.687-6,6-6h28.161c3.313,0,6,2.687,6,6
			S304.99,359.324,301.676,359.324z"/>
	</g>
</g>
</svg>
