<?xml version="1.0" encoding="utf-8"?>
<!-- Generator: Adobe Illustrator 18.0.0, SVG Export Plug-In . SVG Version: 6.00 Build 0)  -->
<!DOCTYPE svg PUBLIC "-//W3C//DTD SVG 1.1//EN" "http://www.w3.org/Graphics/SVG/1.1/DTD/svg11.dtd">
<svg version="1.1" id="Icon_Set" xmlns="http://www.w3.org/2000/svg" xmlns:xlink="http://www.w3.org/1999/xlink" x="0px" y="0px"
	 viewBox="0 0 512 512" style="enable-background:new 0 0 512 512;" xml:space="preserve">
<style type="text/css">
	.st0{fill:#4C4372;}
	.st1{fill:#F0C48A;}
	.st2{fill:#FD919E;}
	.st3{fill:#E8677D;}
	.st4{fill:#D3E6F8;}
	.st5{fill:#A4CFF2;}
	.st6{fill:#7BABF1;}
	.st7{fill:#FFFFFF;}
</style>
<g>
	<g>
		<g>
			<g>
				<circle class="st1" cx="256" cy="256" r="207"/>
			</g>
		</g>
	</g>
	<g>
		<g>
			<g>
				<path class="st5" d="M215.569,142.168c0,22.329,18.101,40.43,40.431,40.43c22.329,0,40.431-18.101,40.431-40.43H215.569z"/>
			</g>
		</g>
		<g>
			<g>
				<path class="st6" d="M256,182.599c22.329,0,40.43-18.103,40.43-40.431H256V182.599z"/>
			</g>
		</g>
		<g>
			<g>
				<path class="st4" d="M318.786,142.168H193.213c-9.233,0-16.717-7.485-16.717-16.718l0,0c0-9.233,7.484-16.718,16.717-16.718
					h125.573c9.233,0,16.718,7.484,16.718,16.718l0,0C335.504,134.683,328.019,142.168,318.786,142.168z"/>
			</g>
		</g>
		<g>
			<g>
				<path class="st5" d="M318.786,108.732h-34.471v33.436h34.471c9.233,0,16.718-7.485,16.718-16.718l0,0
					C335.504,116.218,328.019,108.732,318.786,108.732z"/>
			</g>
		</g>
		<g>
			<g>
				<path class="st4" d="M286.749,234.619h-61.497c-5.347,0-9.682-4.335-9.682-9.683l0,0c0-5.347,4.335-9.682,9.682-9.682h61.497
					c5.347,0,9.682,4.335,9.682,9.682l0,0C296.431,230.284,292.096,234.619,286.749,234.619z"/>
			</g>
		</g>
		<g>
			<g>
				<path class="st5" d="M286.749,215.255h-20.626v19.364h20.626c5.347,0,9.682-4.335,9.682-9.683
					C296.431,219.59,292.096,215.255,286.749,215.255z"/>
			</g>
		</g>
		<g>
			<g>
				<path class="st0" d="M318.786,148.029H193.213c-12.451,0-22.58-10.13-22.58-22.58s10.129-22.579,22.58-22.579h125.573
					c12.451,0,22.58,10.129,22.58,22.579S331.237,148.029,318.786,148.029z M193.213,114.596c-5.985,0-10.854,4.869-10.854,10.854
					c0,5.986,4.87,10.855,10.854,10.855h125.573c5.985,0,10.855-4.869,10.855-10.855c0-5.984-4.87-10.854-10.855-10.854H193.213z"/>
			</g>
		</g>
		<g>
			<g>
				<path class="st0" d="M256,188.461c-25.526,0-46.294-20.768-46.294-46.294c0-3.237,2.625-5.862,5.863-5.862h80.861
					c3.238,0,5.863,2.625,5.863,5.862C302.293,167.693,281.526,188.461,256,188.461z M221.929,148.029
					c2.792,16.28,17.008,28.706,34.071,28.706s31.278-12.426,34.071-28.706H221.929z"/>
			</g>
		</g>
		<g>
			<g>
				<rect x="245.878" y="142.168" class="st7" width="20.244" height="73.087"/>
			</g>
		</g>
		<g>
			<g>
				<rect x="245.878" y="189.577" class="st4" width="20.244" height="25.678"/>
			</g>
		</g>
		<g>
			<g>
				<rect x="230.034" y="234.619" class="st6" width="51.931" height="42.249"/>
			</g>
		</g>
		<g>
			<g>
				<path class="st0" d="M281.965,282.73h-51.931c-3.237,0-5.862-2.625-5.862-5.862v-42.249c0-3.237,2.625-5.862,5.862-5.862h51.931
					c3.238,0,5.863,2.625,5.863,5.862v42.249C287.828,280.105,285.203,282.73,281.965,282.73z M235.897,271.006h40.206v-30.524
					h-40.206V271.006z"/>
			</g>
		</g>
		<g>
			<g>
				<path class="st0" d="M266.122,221.117h-20.244c-3.238,0-5.863-2.625-5.863-5.862v-73.088c0-3.237,2.625-5.862,5.863-5.862
					h20.244c3.237,0,5.862,2.625,5.862,5.862v73.088C271.984,218.492,269.359,221.117,266.122,221.117z M251.74,209.393h8.519
					v-61.363h-8.519V209.393z"/>
			</g>
		</g>
		<g>
			<g>
				<path class="st0" d="M286.749,240.481h-61.497c-8.572,0-15.545-6.973-15.545-15.545c0-8.571,6.973-15.544,15.545-15.544h61.497
					c8.571,0,15.545,6.973,15.545,15.544C302.293,233.509,295.32,240.481,286.749,240.481z M225.251,221.117
					c-2.106,0-3.82,1.714-3.82,3.819c0,2.107,1.713,3.82,3.82,3.82h61.497c2.107,0,3.819-1.714,3.819-3.82
					c0-2.105-1.713-3.819-3.819-3.819H225.251z"/>
			</g>
		</g>
		<g>
			<g>
				<path class="st4" d="M506.137,299.553H317.042c-11.922-21.426-34.784-35.929-61.042-35.929
					c-26.259,0-49.12,14.503-61.043,35.929H5.862v67.787h189.095c11.922,21.425,34.784,35.927,61.043,35.927
					c26.258,0,49.12-14.502,61.042-35.927h189.095V299.553z"/>
			</g>
		</g>
		<g>
			<g>
				<rect x="467.501" y="299.552" class="st5" width="38.636" height="67.831"/>
			</g>
		</g>
		<g>
			<g>
				<rect x="88.74" y="299.552" class="st5" width="20.212" height="67.831"/>
			</g>
		</g>
		<g>
			<g>
				<rect x="33.521" y="299.53" class="st5" width="30.317" height="67.831"/>
			</g>
		</g>
		<g>
			<g>
				<rect x="347.828" y="299.53" class="st5" width="30.317" height="67.831"/>
			</g>
		</g>
		<g>
			<g>
				<rect x="403.047" y="299.552" class="st5" width="20.213" height="67.831"/>
			</g>
		</g>
		<g>
			<g>
				<path class="st0" d="M256,409.13c-26.281,0-50.642-13.68-64.398-35.928H5.862c-3.237,0-5.862-2.625-5.862-5.862v-67.787
					c0-3.238,2.625-5.863,5.862-5.863h185.74c13.756-22.249,38.117-35.928,64.398-35.928c26.28,0,50.642,13.679,64.397,35.928
					h185.74c3.238,0,5.863,2.625,5.863,5.863v67.787c0,3.237-2.625,5.862-5.863,5.862h-185.74
					C306.642,395.45,282.281,409.13,256,409.13z M11.725,361.478h183.232c2.128,0,4.088,1.152,5.123,3.012
					c11.297,20.303,32.725,32.915,55.919,32.915c23.194,0,44.622-12.612,55.919-32.915c1.035-1.859,2.995-3.012,5.123-3.012h183.232
					v-56.063H317.042c-2.128,0-4.088-1.152-5.123-3.013C300.622,282.1,279.194,269.486,256,269.486
					c-23.195,0-44.622,12.613-55.919,32.916c-1.035,1.86-2.995,3.013-5.123,3.013H11.725V361.478z"/>
			</g>
		</g>
		<g>
			<g>
				<g>
					<g>
						<path class="st2" d="M76.289,403.267L76.289,403.267c-6.876,0-12.451-5.574-12.451-12.45V276.074
							c0-6.876,5.575-12.45,12.451-12.45l0,0c6.876,0,12.451,5.574,12.451,12.45v114.742
							C88.74,397.692,83.165,403.267,76.289,403.267z"/>
					</g>
				</g>
				<g>
					<g>
						<path class="st2" d="M121.403,403.267L121.403,403.267c-6.876,0-12.451-5.574-12.451-12.45V276.074
							c0-6.876,5.575-12.45,12.451-12.45l0,0c6.877,0,12.451,5.574,12.451,12.45v114.742
							C133.854,397.692,128.28,403.267,121.403,403.267z"/>
					</g>
				</g>
			</g>
			<g>
				<g>
					<g>
						<path class="st2" d="M390.596,403.267L390.596,403.267c-6.876,0-12.451-5.574-12.451-12.45V276.074
							c0-6.876,5.575-12.45,12.451-12.45l0,0c6.876,0,12.451,5.574,12.451,12.45v114.742
							C403.047,397.692,397.473,403.267,390.596,403.267z"/>
					</g>
				</g>
				<g>
					<g>
						<path class="st2" d="M435.71,403.267L435.71,403.267c-6.876,0-12.451-5.574-12.451-12.45V276.074
							c0-6.876,5.574-12.45,12.451-12.45l0,0c6.876,0,12.451,5.574,12.451,12.45v114.742
							C448.161,397.692,442.587,403.267,435.71,403.267z"/>
					</g>
				</g>
			</g>
		</g>
		<g>
			<g>
				<g>
					<g>
						<path class="st3" d="M76.289,403.267L76.289,403.267c-6.876,0-12.451-5.574-12.451-12.45v-23.433H88.74v23.433
							C88.74,397.692,83.165,403.267,76.289,403.267z"/>
					</g>
				</g>
				<g>
					<g>
						<path class="st3" d="M121.403,403.267L121.403,403.267c-6.876,0-12.451-5.574-12.451-12.45v-23.433h24.901v23.433
							C133.854,397.692,128.28,403.267,121.403,403.267z"/>
					</g>
				</g>
			</g>
			<g>
				<g>
					<g>
						<path class="st3" d="M390.596,403.267L390.596,403.267c-6.876,0-12.451-5.574-12.451-12.45v-23.433h24.901v23.433
							C403.047,397.692,397.473,403.267,390.596,403.267z"/>
					</g>
				</g>
				<g>
					<g>
						<path class="st3" d="M435.71,403.267L435.71,403.267c-6.876,0-12.451-5.574-12.451-12.45v-23.433h24.901v23.433
							C448.161,397.692,442.587,403.267,435.71,403.267z"/>
					</g>
				</g>
			</g>
		</g>
		<g>
			<g>
				<g>
					<g>
						<path class="st0" d="M76.29,409.13c-10.098,0-18.313-8.215-18.313-18.314V276.074c0-10.098,8.215-18.313,18.313-18.313
							c10.098,0,18.313,8.215,18.313,18.313v114.742C94.603,400.915,86.387,409.13,76.29,409.13z M76.29,269.486
							c-3.633,0-6.588,2.955-6.588,6.588v114.742c0,3.633,2.955,6.588,6.588,6.588c3.632,0,6.588-2.955,6.588-6.588V276.074
							C82.877,272.441,79.922,269.486,76.29,269.486z"/>
					</g>
				</g>
				<g>
					<g>
						<path class="st0" d="M121.403,409.13c-10.098,0-18.313-8.215-18.313-18.314V276.074c0-10.098,8.215-18.313,18.313-18.313
							c10.098,0,18.313,8.215,18.313,18.313v114.742C139.716,400.915,131.501,409.13,121.403,409.13z M121.403,269.486
							c-3.632,0-6.588,2.955-6.588,6.588v114.742c0,3.633,2.956,6.588,6.588,6.588c3.633,0,6.588-2.955,6.588-6.588V276.074
							C127.991,272.441,125.036,269.486,121.403,269.486z"/>
					</g>
				</g>
			</g>
			<g>
				<g>
					<g>
						<path class="st0" d="M390.596,409.13c-10.098,0-18.313-8.215-18.313-18.314V276.074c0-10.098,8.215-18.313,18.313-18.313
							c10.098,0,18.314,8.215,18.314,18.313v114.742C408.91,400.915,400.694,409.13,390.596,409.13z M390.596,269.486
							c-3.633,0-6.588,2.955-6.588,6.588v114.742c0,3.633,2.955,6.588,6.588,6.588s6.588-2.955,6.588-6.588V276.074
							C397.185,272.441,394.229,269.486,390.596,269.486z"/>
					</g>
				</g>
				<g>
					<g>
						<path class="st0" d="M435.71,409.13c-10.098,0-18.313-8.215-18.313-18.314V276.074c0-10.098,8.215-18.313,18.313-18.313
							c10.098,0,18.314,8.215,18.314,18.313v114.742C454.024,400.915,445.809,409.13,435.71,409.13z M435.71,269.486
							c-3.633,0-6.588,2.955-6.588,6.588v114.742c0,3.633,2.955,6.588,6.588,6.588c3.632,0,6.588-2.955,6.588-6.588V276.074
							C442.299,272.441,439.343,269.486,435.71,269.486z"/>
					</g>
				</g>
			</g>
		</g>
	</g>
</g>
</svg>
