<?xml version="1.0" encoding="UTF-8"?>
<!DOCTYPE svg PUBLIC "-//W3C//DTD SVG 1.1//EN" "http://www.w3.org/Graphics/SVG/1.1/DTD/svg11.dtd">
<!-- Creator: CorelDRAW -->
<svg xmlns="http://www.w3.org/2000/svg" xml:space="preserve" width="6.82666in" height="6.82666in" style="shape-rendering:geometricPrecision; text-rendering:geometricPrecision; image-rendering:optimizeQuality; fill-rule:evenodd; clip-rule:evenodd"
viewBox="0 0 6.82666 6.82666"
 xmlns:xlink="http://www.w3.org/1999/xlink"
 version="1.1">
 <defs>
  <style type="text/css">
   <![CDATA[
    .fil2 {fill:none}
    .fil13 {fill:#0277BD}
    .fil12 {fill:#039BE5}
    .fil14 {fill:#212121}
    .fil1 {fill:#283593}
    .fil0 {fill:#3949AB}
    .fil11 {fill:#424242}
    .fil5 {fill:#85BCEB}
    .fil6 {fill:#B6DBFB}
    .fil18 {fill:#C04806}
    .fil4 {fill:#D4996A}
    .fil9 {fill:#D69B6B}
    .fil8 {fill:#DB830F}
    .fil3 {fill:#DBA070}
    .fil15 {fill:#E0E0E0}
    .fil17 {fill:#E65100}
    .fil7 {fill:#E6A875}
    .fil21 {fill:#F08D0C}
    .fil10 {fill:#FAFAFA}
    .fil20 {fill:#FF9100}
    .fil16 {fill:#E8F5E9;fill-rule:nonzero}
    .fil19 {fill:#FFFFFE;fill-rule:nonzero}
   ]]>
  </style>
   <clipPath id="id0">
    <path d="M3.41333 0c1.88513,0 3.41333,1.5282 3.41333,3.41333 0,1.88513 -1.5282,3.41333 -3.41333,3.41333 -1.88513,0 -3.41333,-1.5282 -3.41333,-3.41333 0,-1.88513 1.5282,-3.41333 3.41333,-3.41333z"/>
   </clipPath>
 </defs>
 <g id="Layer_x0020_1">
  <metadata id="CorelCorpID_0Corel-Layer"/>
  <path class="fil0" d="M3.41333 0c1.88513,0 3.41333,1.5282 3.41333,3.41333 0,1.88513 -1.5282,3.41333 -3.41333,3.41333 -1.88513,0 -3.41333,-1.5282 -3.41333,-3.41333 0,-1.88513 1.5282,-3.41333 3.41333,-3.41333z"/>
  <g style="clip-path:url(#id0)">
   <g id="_435564880">
    <g>
     <polygon id="_4312354401" class="fil1" points="4.02532,3.36667 7.81159,7.15294 7.8067,7.16287 7.80174,7.17277 7.79671,7.18262 7.79162,7.19243 7.78646,7.2022 7.78123,7.21191 7.77593,7.22158 7.77057,7.23119 7.76513,7.24074 7.75962,7.25024 7.75404,7.25967 7.74839,7.26904 7.74267,7.27833 7.73687,7.28756 7.731,7.29671 7.72505,7.30579 7.71902,7.31478 7.71293,7.3237 7.70675,7.33253 7.7005,7.34128 7.69416,7.34993 7.68775,7.35849 7.68126,7.36695 7.67469,7.37532 7.66804,7.38358 7.6613,7.39174 7.65448,7.3998 7.64759,7.40774 7.6406,7.41557 7.63354,7.42329 7.62638,7.43089 7.61915,7.43837 3.83288,3.6521 3.84011,3.64462 3.84727,3.63702 3.85433,3.6293 3.86132,3.62147 3.86822,3.61352 3.87504,3.60547 3.88177,3.59731 3.88842,3.58905 3.89499,3.58068 3.90148,3.57222 3.90789,3.56365 3.91423,3.555 3.92048,3.54626 3.92666,3.53743 3.93276,3.52851 3.93878,3.51952 3.94473,3.51044 3.9506,3.50129 3.9564,3.49206 3.96212,3.48276 3.96778,3.4734 3.97335,3.46396 3.97886,3.45447 3.9843,3.44492 3.98967,3.43531 3.99496,3.42564 4.00019,3.41593 4.00535,3.40616 4.01044,3.39635 4.01547,3.3865 4.02043,3.3766 "/>
     <polygon id="_431235992" class="fil1" points="2.66036,2.54137 6.44663,6.32765 6.29667,6.18834 2.5104,2.40207 "/>
     <polygon id="_431237648" class="fil1" points="2.74939,3.02072 6.53565,6.807 6.52728,6.80389 6.51905,6.80047 6.51096,6.79676 6.50301,6.79277 6.49521,6.78848 6.48757,6.78392 6.48009,6.77909 6.47278,6.77399 6.46563,6.76863 6.45867,6.76302 6.45189,6.75715 6.4453,6.75105 2.65903,2.96478 2.66562,2.97088 2.6724,2.97674 2.67937,2.98236 2.68651,2.98772 2.69382,2.99281 2.7013,2.99765 2.70894,3.00221 2.71674,3.0065 2.72469,3.01049 2.73278,3.0142 2.74102,3.01761 "/>
     <polygon id="_431237696" class="fil1" points="2.83217,3.56948 6.61844,7.35575 6.728,7.46531 6.73075,7.46854 6.73291,7.47207 6.73448,7.47583 6.73546,7.47974 6.73584,7.48374 6.73563,7.48776 6.73483,7.49171 6.73344,7.49552 2.94718,3.70925 2.94857,3.70544 2.94937,3.70148 2.94957,3.69747 2.94919,3.69347 2.94821,3.68956 2.94665,3.6858 2.94448,3.68226 2.94173,3.67904 "/>
     <polygon id="_431237336" class="fil1" points="4.42401,5.20867 8.21028,8.99494 8.15517,8.99494 4.36891,5.20867 "/>
     <polygon id="_431237624" class="fil1" points="4.36891,5.20867 8.15517,8.99494 8.15517,9.00316 4.36891,5.21689 "/>
     <polygon id="_431237000" class="fil1" points="1.92557,3.23879 5.71184,7.02506 5.70741,7.02659 5.70293,7.02791 5.69841,7.02903 5.69385,7.02995 5.68926,7.03066 5.68465,7.03117 5.68003,7.03147 5.67539,7.03157 1.88913,3.2453 1.89376,3.2452 1.89838,3.2449 1.90299,3.24439 1.90758,3.24368 1.91214,3.24276 1.91667,3.24164 1.92115,3.24032 "/>
     <polygon id="_431237480" class="fil1" points="3.80598,5.21689 7.59224,9.00316 7.58417,9.0108 7.5758,9.01795 7.56716,9.02461 7.55826,9.03077 7.54913,9.03644 7.53978,9.04162 7.53024,9.0463 7.52052,9.05049 7.51065,9.05419 7.50063,9.05739 7.4905,9.06011 7.48028,9.06232 7.46997,9.06405 7.45961,9.06528 7.4492,9.06602 7.43878,9.06627 7.42836,9.06602 7.41796,9.06528 7.40759,9.06405 7.39729,9.06232 7.38706,9.06011 7.37693,9.05739 7.36692,9.05419 7.35705,9.05049 7.34733,9.0463 7.33779,9.04161 7.32844,9.03644 7.31931,9.03077 7.31041,9.02461 7.30177,9.01795 7.2934,9.0108 3.50713,5.22453 3.5155,5.23168 3.52415,5.23833 3.53304,5.2445 3.54217,5.25017 3.55152,5.25534 3.56106,5.26003 3.57078,5.26422 3.58065,5.26792 3.59067,5.27112 3.6008,5.27383 3.61102,5.27605 3.62133,5.27778 3.63169,5.27901 3.64209,5.27975 3.65252,5.28 3.66294,5.27975 3.67334,5.27901 3.6837,5.27778 3.69401,5.27605 3.70424,5.27383 3.71437,5.27112 3.72438,5.26792 3.73425,5.26422 3.74397,5.26003 3.75351,5.25535 3.76286,5.25017 3.77199,5.2445 3.78089,5.23833 3.78953,5.23168 3.7979,5.22453 "/>
     <polygon id="_431237528" class="fil1" points="2.54084,5.20867 6.32711,8.99494 6.27199,8.99494 2.48572,5.20867 "/>
     <polygon id="_431237048" class="fil1" points="3.49906,5.21689 7.28533,9.00316 6.32711,9.00316 2.54084,5.21689 "/>
     <polygon id="_431237096" class="fil1" points="2.48572,5.20867 6.27199,8.99494 6.21249,8.99494 2.42622,5.20867 "/>
     <polygon id="_431237360" class="fil1" points="2.42622,5.20867 6.21249,8.99494 5.50958,8.99494 1.72331,5.20867 "/>
     <polygon id="_431238368" class="fil1" points="1.88913,3.2453 5.67539,7.03157 5.67038,7.03146 5.66538,7.0311 5.66039,7.0305 5.65544,7.02967 5.65052,7.0286 5.64565,7.02729 5.64083,7.02574 5.63608,7.02395 5.63141,7.02193 5.62681,7.01967 5.62231,7.01717 5.61792,7.01443 5.61364,7.01145 5.60948,7.00824 5.60546,7.00478 1.81919,3.21851 1.82322,3.22196 1.82737,3.22518 1.83165,3.22816 1.83605,3.23089 1.84054,3.23339 1.84514,3.23566 1.84981,3.23768 1.85456,3.23947 1.85938,3.24102 1.86425,3.24233 1.86917,3.2434 1.87413,3.24423 1.87911,3.24483 1.88411,3.24519 "/>
     <polygon id="_431237864" class="fil1" points="1.78787,2.89211 5.57413,6.67838 5.59919,6.70344 1.81293,2.91717 "/>
     <polygon id="_431237888" class="fil1" points="1.81293,2.91717 5.59919,6.70344 5.74921,6.85345 1.96294,3.06718 "/>
     <polygon id="_431238392" class="fil1" points="1.96294,3.06718 5.74921,6.85345 5.7529,6.85734 5.75635,6.86136 5.75957,6.86552 5.76255,6.8698 5.76528,6.8742 5.76779,6.87869 5.77005,6.88328 5.77207,6.88796 5.77386,6.89271 5.77541,6.89752 5.77672,6.9024 5.77779,6.90731 5.77863,6.91227 5.77922,6.91726 5.77958,6.92226 5.7797,6.92727 1.99343,3.141 1.99331,3.13598 1.99295,3.13098 1.99236,3.126 1.99152,3.12104 1.99045,3.11613 1.98914,3.11125 1.98759,3.10644 1.98581,3.10169 1.98378,3.09701 1.98152,3.09242 1.97902,3.08793 1.97628,3.08353 1.9733,3.07925 1.97009,3.07509 1.96663,3.07107 "/>
     <polygon id="_431237720" class="fil1" points="1.99343,3.141 5.7797,6.92727 5.77959,6.9319 5.77929,6.93652 5.77878,6.94113 5.77807,6.94572 5.77715,6.95028 5.77603,6.95481 5.77471,6.95929 5.77318,6.96371 1.98691,3.17744 1.98844,3.17302 1.98976,3.16854 1.99088,3.16401 1.9918,3.15945 1.99251,3.15486 1.99302,3.15025 1.99333,3.14563 "/>
     <polygon id="_431238200" class="fil1" points="1.98691,3.17744 5.77318,6.96371 6.37279,7.56332 2.58652,3.77705 "/>
     <polygon id="_431238272" class="fil1" points="4.36891,5.21689 8.15517,9.00316 7.59224,9.00316 3.80598,5.21689 "/>
     <polygon id="_431237816" class="fil1" points="4.48348,5.20867 8.26975,8.99494 8.21028,8.99494 4.42401,5.20867 "/>
     <polygon id="_431238152" class="fil1" points="2.75106,3.02326 6.53732,6.80953 6.53611,6.81227 2.74984,3.026 "/>
     <polygon id="_431237960" class="fil1" points="5.18643,5.20867 8.9727,8.99494 8.26975,8.99494 4.48348,5.20867 "/>
     <polygon id="_431238344" class="fil1" points="2.5104,2.40207 6.29667,6.18834 6.27227,6.16568 2.486,2.37941 "/>
     <polygon id="_431239184" class="fil1" points="4.16636,3.76837 7.95263,7.55465 7.95263,7.58967 4.16636,3.8034 "/>
     <polygon id="_431239064" class="fil1" points="3.24842,1.64289 7.03469,5.42916 7.03467,5.42926 7.03465,5.42936 7.03463,5.42946 7.03461,5.42956 7.03459,5.42966 7.03458,5.42976 7.03456,5.42986 7.03454,5.42996 3.24828,1.64369 3.24829,1.64359 3.24831,1.64349 3.24833,1.64339 3.24835,1.64329 3.24836,1.64319 3.24838,1.64309 3.2484,1.64299 "/>
     <polygon id="_431239136" class="fil1" points="3.55344,1.59035 7.33971,5.37663 7.3437,5.38119 7.34748,5.38592 7.35102,5.3908 7.35433,5.39581 7.35741,5.40096 7.36026,5.40623 7.36285,5.41162 3.57659,1.62535 3.57399,1.61996 3.57115,1.61469 3.56807,1.60954 3.56475,1.60452 3.56121,1.59965 3.55744,1.59492 "/>
     <polygon id="_431238584" class="fil1" points="4.12509,1.91372 7.91135,5.7 7.9207,5.71076 7.92989,5.72164 7.9389,5.73265 7.94776,5.74376 7.95645,5.75498 7.96499,5.76631 7.97337,5.77774 7.98159,5.78927 7.98967,5.80089 7.99758,5.81259 8.00535,5.82439 8.01298,5.83626 8.02046,5.84821 8.02779,5.86023 8.03498,5.87232 8.04203,5.88448 8.04894,5.89669 8.05572,5.90896 8.06236,5.92129 8.06887,5.93366 8.07525,5.94607 8.0815,5.95853 8.08762,5.97102 8.09362,5.98354 8.09949,5.99609 8.10524,6.00867 8.11087,6.02126 4.3246,2.23499 4.31897,2.22239 4.31322,2.20982 4.30735,2.19727 4.30135,2.18475 4.29523,2.17226 4.28898,2.1598 4.28261,2.14739 4.27609,2.13502 4.26945,2.12269 4.26268,2.11042 4.25576,2.0982 4.24871,2.08605 4.24152,2.07396 4.23419,2.06194 4.22671,2.04999 4.21909,2.03812 4.21131,2.02632 4.2034,2.01462 4.19533,2.003 4.1871,1.99147 4.17872,1.98004 4.17019,1.96871 4.16149,1.95749 4.15263,1.94637 4.14362,1.93537 4.13444,1.92449 "/>
     <polygon id="_431238656" class="fil1" points="4.3246,2.23499 8.11087,6.02126 8.11236,6.02447 8.11383,6.02735 8.11528,6.02992 8.11671,6.03219 8.11811,6.03419 8.11949,6.03594 8.12084,6.03745 4.33457,2.25118 4.33322,2.24967 4.33185,2.24792 4.33044,2.24592 4.32901,2.24365 4.32756,2.24108 4.32609,2.2382 "/>
     <polygon id="_431238512" class="fil1" points="4.4073,2.28501 8.19356,6.07128 8.1978,6.07693 8.20144,6.08346 8.20446,6.09096 8.20686,6.09955 8.20859,6.1093 8.20965,6.12031 8.21001,6.1327 4.42374,2.34643 4.42339,2.33404 4.42233,2.32302 4.42059,2.31328 4.4182,2.30469 4.41517,2.29719 4.41153,2.29066 "/>
     <polygon id="_431239232" class="fil1" points="4.42374,2.34643 8.21001,6.1327 8.21001,6.16837 4.42374,2.3821 "/>
     <polygon id="_431238680" class="fil1" points="4.42374,2.3821 8.21001,6.16837 8.18204,6.19131 4.39577,2.40504 "/>
     <polygon id="_431238704" class="fil1" points="4.39577,2.40504 8.18204,6.19131 8.02627,6.3191 4.24,2.53283 "/>
     <polygon id="_431238824" class="fil1" points="4.26419,2.55646 8.05045,6.34273 8.05368,6.34637 8.05684,6.35007 8.05994,6.35383 8.06298,6.35766 8.06596,6.36154 8.06887,6.36549 8.07172,6.3695 8.07451,6.37356 8.07722,6.37767 4.29096,2.5914 4.28824,2.58728 4.28546,2.58322 4.28261,2.57922 4.27969,2.57527 4.27672,2.57139 4.27367,2.56756 4.27057,2.5638 4.26741,2.56009 "/>
     <polygon id="_431239928" class="fil1" points="4.29096,2.5914 8.07722,6.37767 8.07998,6.38202 8.08266,6.38641 8.08527,6.39087 8.08781,6.39538 8.09026,6.39995 8.09265,6.40457 8.09495,6.40925 8.09718,6.41397 8.09933,6.41875 8.1014,6.42357 8.10339,6.42844 8.10529,6.43337 8.10711,6.43833 8.10885,6.44334 8.1105,6.4484 8.11206,6.4535 8.11354,6.45863 8.11493,6.46381 8.11623,6.46903 8.11744,6.47428 8.11856,6.47957 8.11959,6.4849 8.12053,6.49026 8.12137,6.49566 8.12211,6.50109 8.12276,6.50655 8.12331,6.51204 8.12376,6.51756 8.12412,6.5231 8.12437,6.52867 8.12453,6.53427 8.12458,6.53989 4.33831,2.75362 4.33826,2.748 4.33811,2.7424 4.33785,2.73683 4.3375,2.73128 4.33704,2.72576 4.33649,2.72028 4.33584,2.71481 4.3351,2.70939 4.33426,2.70399 4.33332,2.69863 4.3323,2.6933 4.33118,2.68801 4.32996,2.68276 4.32867,2.67754 4.32728,2.67236 4.3258,2.66722 4.32423,2.66213 4.32258,2.65707 4.32084,2.65206 4.31902,2.64709 4.31712,2.64217 4.31513,2.6373 4.31306,2.63248 4.31091,2.6277 4.30869,2.62298 4.30638,2.6183 4.304,2.61368 4.30154,2.60911 4.299,2.6046 4.29639,2.60014 4.29371,2.59574 "/>
     <polygon id="_431239736" class="fil1" points="4.33831,2.75362 8.12458,6.53989 8.12451,6.54648 8.1243,6.55303 8.12396,6.55955 8.12347,6.56602 8.12286,6.57246 8.12211,6.57885 8.12123,6.5852 8.12022,6.5915 8.11909,6.59776 8.11783,6.60396 8.11644,6.61012 8.11494,6.61622 8.11331,6.62227 8.11156,6.62826 8.10969,6.63419 8.1077,6.64006 8.1056,6.64587 8.10339,6.65161 8.10106,6.65729 8.09863,6.6629 8.09609,6.66844 8.09343,6.67391 8.09068,6.67931 8.08781,6.68463 8.08485,6.68988 8.08178,6.69505 8.07862,6.70013 8.07536,6.70514 8.072,6.71006 8.06855,6.7149 8.065,6.71965 8.06136,6.72431 4.27509,2.93804 4.27873,2.93338 4.28228,2.92863 4.28573,2.92379 4.28909,2.91887 4.29235,2.91386 4.29552,2.90878 4.29858,2.90361 4.30155,2.89836 4.30441,2.89304 4.30717,2.88764 4.30982,2.88217 4.31236,2.87663 4.3148,2.87102 4.31712,2.86534 4.31933,2.85959 4.32144,2.85378 4.32342,2.84791 4.32529,2.84198 4.32704,2.836 4.32867,2.82995 4.33018,2.82385 4.33156,2.81769 4.33282,2.81149 4.33396,2.80523 4.33496,2.79893 4.33584,2.79258 4.33659,2.78619 4.3372,2.77975 4.33769,2.77328 4.33803,2.76676 4.33824,2.7602 "/>
     <polygon id="_431239616" class="fil1" points="4.27509,2.93804 8.06136,6.72431 8.05553,6.73138 8.04949,6.73822 8.04324,6.74484 8.03679,6.75122 8.03014,6.75736 8.02331,6.76326 8.01628,6.7689 8.00908,6.77428 8.00171,6.77941 7.99417,6.78426 7.98646,6.78883 7.97859,6.79312 7.97057,6.79712 7.96241,6.80083 7.95409,6.80423 7.94565,6.80733 4.15938,3.02106 4.16783,3.01796 4.17614,3.01456 4.1843,3.01085 4.19232,3.00685 4.20019,3.00256 4.2079,2.99798 4.21544,2.99313 4.22281,2.98801 4.23002,2.98263 4.23704,2.97698 4.24387,2.97109 4.25052,2.96495 4.25697,2.95857 4.26322,2.95195 4.26926,2.94511 "/>
     <polygon id="_431239256" class="fil1" points="4.15938,3.02106 7.94565,6.80733 7.94236,6.81757 7.93902,6.82789 7.93563,6.83827 7.93219,6.84872 7.92869,6.85924 7.92515,6.86981 7.92155,6.88044 7.91789,6.89112 7.91418,6.90184 7.91041,6.91261 7.90659,6.92342 7.9027,6.93427 7.89876,6.94515 7.89476,6.95605 7.8907,6.96698 7.88657,6.97793 7.88239,6.9889 7.87814,6.99989 7.87383,7.01088 7.86945,7.02188 7.865,7.03288 7.8605,7.04387 7.85592,7.05487 7.85128,7.06585 7.84657,7.07682 7.84178,7.08778 7.83693,7.09871 7.83201,7.10962 7.82702,7.1205 7.82195,7.13135 7.81681,7.14216 7.81159,7.15294 4.02532,3.36667 4.03054,3.35589 4.03568,3.34508 4.04075,3.33423 4.04574,3.32335 4.05067,3.31244 4.05552,3.3015 4.0603,3.29055 4.06501,3.27958 4.06965,3.26859 4.07423,3.2576 4.07874,3.24661 4.08318,3.23561 4.08756,3.22461 4.09187,3.21361 4.09612,3.20263 4.1003,3.19166 4.10443,3.18071 4.10849,3.16978 4.11249,3.15887 4.11643,3.148 4.12032,3.13715 4.12414,3.12634 4.12791,3.11557 4.13162,3.10485 4.13528,3.09417 4.13888,3.08354 4.14243,3.07296 4.14592,3.06245 4.14936,3.052 4.15275,3.04161 4.15609,3.0313 "/>
     <polygon id="_431239760" class="fil1" points="4.89871,4.2435 8.68498,8.02977 8.68792,8.03292 8.69085,8.03617 8.69376,8.03952 8.69664,8.04297 8.69951,8.04652 8.70237,8.05016 8.7052,8.0539 8.70802,8.05774 8.71081,8.06167 8.71359,8.0657 8.71636,8.06982 8.7191,8.07403 8.72183,8.07833 8.72454,8.08272 8.72724,8.0872 8.72992,8.09177 8.73258,8.09643 8.73522,8.10117 8.73785,8.106 8.74047,8.11091 8.74307,8.11591 8.74565,8.12099 8.74821,8.12615 8.75076,8.13139 8.7533,8.13672 8.75582,8.14212 8.75832,8.1476 8.76081,8.15315 4.97455,4.36688 4.97206,4.36133 4.96955,4.35585 4.96703,4.35044 4.9645,4.34512 4.96194,4.33988 4.95938,4.33472 4.9568,4.32964 4.9542,4.32464 4.95159,4.31973 4.94896,4.3149 4.94631,4.31016 4.94365,4.3055 4.94097,4.30093 4.93828,4.29645 4.93557,4.29206 4.93283,4.28776 4.93009,4.28355 4.92733,4.27943 4.92455,4.2754 4.92175,4.27147 4.91893,4.26763 4.9161,4.26389 4.91324,4.26024 4.91037,4.2567 4.90749,4.25325 4.90458,4.2499 4.90165,4.24665 "/>
     <polygon id="_431239856" class="fil1" points="4.2295,3.83386 8.01577,7.62013 8.01566,7.62028 8.01555,7.62042 8.01544,7.62057 8.01533,7.62071 8.01522,7.62085 8.01511,7.62099 8.015,7.62113 8.01489,7.62127 4.22863,3.835 4.22873,3.83486 4.22884,3.83472 4.22895,3.83458 4.22906,3.83444 4.22917,3.8343 4.22928,3.83415 4.22939,3.83401 "/>
     <polygon id="_431239328" class="fil1" points="4.97455,4.36688 8.76081,8.15315 8.76899,8.17217 8.77701,8.19199 8.78488,8.21259 8.79261,8.23393 8.80019,8.25598 8.80764,8.2787 8.81496,8.30207 8.82216,8.32604 8.82924,8.35057 8.83621,8.37565 8.84308,8.40124 8.84984,8.42729 8.85651,8.45378 8.86309,8.48067 8.86959,8.50793 8.87601,8.53552 8.88235,8.56342 8.88863,8.59158 8.89485,8.61998 8.90102,8.64857 8.90713,8.67733 8.9132,8.70622 8.91923,8.73522 8.92523,8.76427 8.9312,8.79335 8.93715,8.82243 8.94308,8.85148 8.949,8.88045 8.95492,8.90931 8.96084,8.93804 8.96676,8.96659 8.9727,8.99494 5.18643,5.20867 5.1805,5.18032 5.17457,5.15177 5.16865,5.12304 5.16274,5.09418 5.15681,5.0652 5.15088,5.03616 5.14493,5.00708 5.13896,4.978 5.13296,4.94894 5.12693,4.91995 5.12086,4.89106 5.11475,4.8623 5.10859,4.8337 5.10237,4.80531 5.09609,4.77715 5.08974,4.74925 5.08332,4.72166 5.07682,4.69439 5.07024,4.6675 5.06357,4.64102 5.05681,4.61496 5.04994,4.58938 5.04298,4.5643 5.03589,4.53976 5.02869,4.5158 5.02137,4.49243 5.01392,4.46971 5.00634,4.44766 4.99861,4.42632 4.99074,4.40572 4.98272,4.3859 "/>
    </g>
    <path id="_435565360" class="fil1" d="M4.22863 3.835c0.434531,0.212346 0.586709,0.33372 0.658114,0.396933 0.0323307,0.0286102 0.0613228,0.0752717 0.0878071,0.134949 0.0880748,0.198398 0.148476,0.540657 0.211886,0.841783l-0.702949 0 -0.0594724 3.93701e-006 -0.0551063 -3.93701e-006 0 0.00822047 -0.562929 0c-0.0845039,0.0841496 -0.222421,0.0841457 -0.306917,0l-0.958217 0 0 -0.00821654 -0.0551181 0 -0.0595 -3.93701e-006 -0.702913 0c0.0634134,-0.30113 0.123791,-0.643386 0.211874,-0.841783 0.0264843,-0.0596772 0.0554803,-0.106335 0.0878189,-0.134949 0.0496181,-0.0439252 0.140752,-0.117307 0.338287,-0.229657l0.163882 -0.163882 -0.599602 -0.599602c-0.0117283,0.00434252 -0.0240906,0.00651181 -0.0364449,0.00651181 -0.0267362,0 -0.0534961,-0.0101614 -0.0738189,-0.0304843l-0.15002 -0.15002 -0.0250591 -0.0250591 0.0250591 -0.0250591 0.0975197 -0.0975157 0.0250591 -0.0250591 0.0250591 0.0250591 0.150016 0.150016c0.0203228,0.0203268 0.0304882,0.0470827 0.0304882,0.073815 0,0.0123543 -0.00217323,0.0247165 -0.00651575,0.0364449l0.599606 0.599606 0.207575 -0.207571c0.0104685,-0.0104685 0.0276024,-0.0104724 0.0380748,0l0.109559 0.109563c0.00813386,0.00812992 0.00994882,0.0202835 0.00544882,0.0302126 0.0288307,-0.0131024 0.0585512,-0.0264685 0.0891929,-0.0401024 0.0131969,-0.00588189 0.0265669,-0.0118071 0.0401063,-0.0177835 -0.0781772,-0.0796732 -0.141264,-0.180319 -0.193079,-0.286783 -0.0551693,-0.113362 -0.0978504,-0.233728 -0.132343,-0.341323l-0.00121654 0.00274016c-0.000153543,-0.00175984 -0.00030315,-0.00351575 -0.000452756,-0.00527559 -0.0449882,-0.0157717 -0.0844409,-0.044689 -0.114744,-0.0826772 -0.0392835,-0.049248 -0.0632126,-0.113972 -0.0632126,-0.184429 0,-0.0492638 0.0119567,-0.0960748 0.0328425,-0.136921 0.0146142,-0.0285787 0.0336496,-0.0540669 0.0560866,-0.0753228l-0.149961 -0.139307 -0.0243976 -0.0226614 0 -0.0329764c0,-0.115673 0.0719685,-0.0711772 0.0914724,-0.0825394 0.00173622,-0.00101575 0.00305512,-0.00247244 0.00387008,-0.00452362 0.0561378,-0.141311 0.134327,-0.278811 0.244524,-0.389689 0.108236,-0.108898 0.246177,-0.191579 0.422551,-0.226787 -4.72441e-005,0.000267717 -9.44882e-005,0.000531496 -0.000141732,0.000799213 0.0272795,-0.00762598 0.0556417,-0.0137874 0.084878,-0.0183425 0.00661024,-0.0145197 0.0158386,-0.027878 0.0273583,-0.0393976 0.0250748,-0.0250787 0.0588504,-0.0392874 0.0943583,-0.0392874 0.0355079,0 0.0692913,0.0142126 0.0943622,0.0392874 0.0115197,0.0115197 0.020748,0.024878 0.0273543,0.0393976 0.0292362,0.00455512 0.0575984,0.0107165 0.084878,0.0183425 -4.72441e-005,-0.000267717 -9.44882e-005,-0.000531496 -0.000141732,-0.000799213 0.171693,0.0343307 0.306953,0.114248 0.414472,0.218972 0.109795,0.106937 0.189382,0.238701 0.248807,0.373126 0.00398819,0.00901969 0.0078189,0.0142992 0.0112874,0.0174921 0.0040748,0.00374803 0.00764567,0.00461811 0.010374,0.00527953 0.0466457,0.0113189 0.0774803,0.0188071 0.0774803,0.0886693l0 0.0356693 -0.0279724 0.0229449 -0.155772 0.127783c0.0194646,0.0167244 0.0366417,0.0364646 0.0509567,0.0585748 0.0297677,0.0459921 0.0473543,0.102126 0.0473543,0.162217 0,0.0704567 -0.0239291,0.135181 -0.0632165,0.184425 -0.0305236,0.0382598 -0.070315,0.0673228 -0.115713,0.0830157 -0.0348268,0.108835 -0.0780276,0.230906 -0.134059,0.345606 -0.0518543,0.10615 -0.11478,0.206307 -0.192445,0.285433 0.0135551,0.00597244 0.026937,0.0118937 0.0401457,0.0177677 0.0324055,0.0143858 0.0637756,0.0284724 0.0941417,0.042252l0 -0.00242126c0.0688346,0.0126102 0.135571,0.0324449 0.199197,0.0586772l0 0.0350276c0.0216811,0.0103465 0.042689,0.0204921 0.0631417,0.0304606 -0.000295276,0.000385827 -0.000594488,0.000767717 -0.000877953,0.0011378z"/>
   </g>
  </g>
  <path class="fil2" d="M3.41333 0c1.88513,0 3.41333,1.5282 3.41333,3.41333 0,1.88513 -1.5282,3.41333 -3.41333,3.41333 -1.88513,0 -3.41333,-1.5282 -3.41333,-3.41333 0,-1.88513 1.5282,-3.41333 3.41333,-3.41333z"/>
  <path class="fil3" d="M3.10867 3.63721c-0.765327,0.335539 -0.994917,0.514394 -1.08566,0.594724 -0.139858,0.123748 -0.217209,0.585031 -0.299693,0.976732l1.73156 0 1.73156 0c-0.0824843,-0.391701 -0.15987,-0.853004 -0.299693,-0.976732 -0.0907441,-0.0803307 -0.311933,-0.254594 -1.07728,-0.590126l-0.700791 -0.00459843z"/>
  <path class="fil4" d="M3.10867 3.63721c-0.0246575,0.010811 -0.0487362,0.0214528 -0.0722953,0.0319409 0.0280945,0.0314055 0.0581614,0.0602047 0.0903937,0.0856535 0.049622,0.0391772 0.10276,0.0620551 0.160063,0.0750197 0.0540039,0.0122244 0.109303,0.0154055 0.168043,0.0154055 0.0581929,0 0.112756,-0.00282677 0.165429,-0.0143583 0.0569803,-0.0124685 0.10978,-0.0345709 0.158969,-0.0727874 0.0334843,-0.0260118 0.0646654,-0.0556969 0.0937559,-0.0882165 -0.0207835,-0.00923228 -0.0419252,-0.0185748 -0.0635669,-0.028063l-0.700791 -0.00459449z"/>
  <path class="fil5" d="M2.82067 3.76768c-0.538177,0.252689 -0.719472,0.395063 -0.797661,0.464256 -0.139858,0.123748 -0.217209,0.585031 -0.299693,0.976732l1.73156 0 1.73156 0c-0.0824843,-0.391701 -0.15987,-0.853004 -0.299693,-0.976732 -0.0755709,-0.066878 -0.241661,-0.198929 -0.736929,-0.434937 -0.00351181,0.00365354 -0.00711417,0.00724016 -0.0105748,0.0109606 -0.464941,0.502898 -1.12359,0.255713 -1.3018,-0.0170551 -0.00555906,-0.00790157 -0.0111772,-0.0154646 -0.0167717,-0.0232244z"/>
  <path class="fil6" d="M1.93519 4.36688c-0.0880669,0.198409 -0.148461,0.540646 -0.211874,0.841783l0.702913 0c-0.0156929,-0.491295 -0.0165866,-0.752602 -0.491039,-0.841783z"/>
  <path class="fil6" d="M4.97455 4.36688c0.0880709,0.198409 0.148461,0.540646 0.211886,0.841783l-0.702949 0c0.0157244,-0.491295 0.016622,-0.752602 0.491063,-0.841783z"/>
  <path class="fil6" d="M2.82119 3.76768c-0.0353976,0.0165787 -0.0691772,0.0326693 -0.101606,0.0483268 0.244807,0.346484 0.995154,0.685043 1.50993,0.0178583 -0.0246535,-0.0120118 -0.0501181,-0.0242874 -0.0765827,-0.0368661 -0.00354724,0.00365354 -0.00714173,0.00724016 -0.0106024,0.0109606 -0.465835,0.502898 -1.12575,0.255713 -1.30434,-0.0170551 -0.00555906,-0.00790157 -0.0112047,-0.0154646 -0.0167953,-0.0232244z"/>
  <path class="fil7" d="M4.11774 2.54386l-0.0933819 0.0765984 -0.0482008 0.0175591 -1.08601 0 -0.0517717 -0.0205315 -0.0662362 -0.0615315 0 0 -0.111783 -0.0145787c-0.022437,0.0212559 -0.0414724,0.0467441 -0.0560866,0.0753228 -0.0208858,0.0408465 -0.0328425,0.0876575 -0.0328425,0.136921 0,0.0704567 0.0239291,0.135181 0.0632126,0.184429 0.0305197,0.0382598 0.0703189,0.0673189 0.115709,0.0830118 0.0346142,0.108154 0.0775,0.22939 0.133047,0.343524 0.0650354,0.13363 0.147831,0.258091 0.255933,0.343425 0.0477205,0.0376811 0.0988228,0.0596811 0.153925,0.0721496 0.0519409,0.0117559 0.105122,0.014815 0.161614,0.014815 0.0559606,0 0.108437,-0.00272047 0.159091,-0.0138071 0.0548031,-0.0119961 0.105579,-0.033252 0.152882,-0.07 0.108996,-0.0846732 0.192661,-0.20976 0.25848,-0.3445 0.0560315,-0.114701 0.0992323,-0.236772 0.134059,-0.345606 0.0453976,-0.0156929 0.085189,-0.0447559 0.115713,-0.0830157 0.0392874,-0.0492441 0.0632165,-0.113969 0.0632165,-0.184425 0,-0.0600906 -0.0175866,-0.116224 -0.0473543,-0.162217 -0.014315,-0.0221102 -0.0314921,-0.0418504 -0.0509567,-0.0585748l-0.12226 0.0110315z"/>
  <ellipse class="fil8" cx="3.45487" cy="1.9991" rx="0.552636" ry="0.383077"/>
  <path class="fil9" d="M3.78187 3.42377c-0.21715,0.0579409 -0.469205,0.0485472 -0.653992,0 0.0602992,0.207134 0.538685,0.212165 0.653992,0z"/>
  <path class="fil10" d="M2.48572 5.20867l0.0560472 0c-0.00250394,-0.249098 -0.00250394,-0.42863 -0.00250394,-0.42863 0,0 -0.0248071,0.186579 -0.0535433,0.42863z"/>
  <path class="fil10" d="M4.42401 5.20867l-0.0560472 0c0.00250394,-0.249098 0.00252756,-0.42863 0.00252756,-0.42863 0,0 0.024811,0.186579 0.0535197,0.42863z"/>
  <path class="fil11" d="M3.98805 4.83285c0.0420709,0 0.0761732,0.0343858 0.0761732,0.0768031 0,0.0424252 -0.0341024,0.076811 -0.0761732,0.076811 -0.0420669,0 -0.0761693,-0.0343858 -0.0761693,-0.076811 0,-0.0424173 0.0341024,-0.0768031 0.0761693,-0.0768031z"/>
  <path class="fil11" d="M2.92169 4.83285c0.0420709,0 0.0761732,0.0343858 0.0761732,0.0768031 0,0.0424252 -0.0341024,0.076811 -0.0761732,0.076811 -0.0420669,0 -0.0761693,-0.0343858 -0.0761693,-0.076811 0,-0.0424173 0.0341024,-0.0768031 0.0761693,-0.0768031z"/>
  <path class="fil12" d="M2.58844 4.2952l1.73285 0c0.026185,0 0.0476063,0.0214213 0.0476063,0.0476063l0 0.874083 -1.82806 0 0 -0.874083c0,-0.026185 0.0214173,-0.0476063 0.0476024,-0.0476063z"/>
  <path class="fil13" d="M2.74338 3.78669c0.0627953,-0.0304134 0.129425,-0.0540118 0.199193,-0.0698543l0 0.758783c0,0.0547795 -0.044811,0.0995945 -0.0995945,0.0995945l0 0c-0.0547835,0 -0.0995984,-0.044815 -0.0995984,-0.0995945l0 -0.688929z"/>
  <path class="fil13" d="M3.96717 3.7097c0.0688346,0.0126102 0.135571,0.0324449 0.199197,0.0586772l0 0.707248c0,0.0547795 -0.044815,0.0995945 -0.0995984,0.0995945l0 0c-0.0547835,0 -0.0995984,-0.044815 -0.0995984,-0.0995945l0 -0.765925z"/>
  <path class="fil14" d="M2.84357 4.39359c0.0432126,0 0.078252,0.0350394 0.078252,0.078252 0,0.0432126 -0.0350394,0.078252 -0.078252,0.078252 -0.0432126,0 -0.078252,-0.0350394 -0.078252,-0.078252 0,-0.0432126 0.0350394,-0.078252 0.078252,-0.078252z"/>
  <path class="fil14" d="M4.06676 4.39359c0.0432126,0 0.078248,0.0350394 0.078248,0.078252 0,0.0432126 -0.0350354,0.078252 -0.078248,0.078252 -0.0432165,0 -0.078252,-0.0350394 -0.078252,-0.078252 0,-0.0432126 0.0350354,-0.078252 0.078252,-0.078252z"/>
  <path class="fil15" d="M2.84357 4.43775c0.00671654,0 0.0121654,0.00544488 0.0121654,0.0121654 0,0.00671654 -0.00544882,0.0121614 -0.0121654,0.0121614 -0.00672047,0 -0.0121654,-0.00544488 -0.0121654,-0.0121614 0,-0.00672047 0.00544488,-0.0121654 0.0121654,-0.0121654z"/>
  <path class="fil15" d="M2.84357 4.48161c0.00671654,0 0.0121654,0.00544488 0.0121654,0.0121614 0,0.00671654 -0.00544882,0.0121654 -0.0121654,0.0121654 -0.00672047,0 -0.0121654,-0.00544882 -0.0121654,-0.0121654 0,-0.00671654 0.00544488,-0.0121614 0.0121654,-0.0121614z"/>
  <path class="fil15" d="M4.06676 4.43775c0.00671654,0 0.0121614,0.00544488 0.0121614,0.0121654 0,0.00671654 -0.00544488,0.0121614 -0.0121614,0.0121614 -0.00672047,0 -0.0121654,-0.00544488 -0.0121654,-0.0121614 0,-0.00672047 0.00544488,-0.0121654 0.0121654,-0.0121654z"/>
  <path class="fil15" d="M4.06676 4.48161c0.00671654,0 0.0121614,0.00544488 0.0121614,0.0121614 0,0.00671654 -0.00544488,0.0121654 -0.0121614,0.0121654 -0.00672047,0 -0.0121654,-0.00544882 -0.0121654,-0.0121654 0,-0.00671654 0.00544488,-0.0121614 0.0121654,-0.0121614z"/>
  <polygon class="fil16" points="1.89236,3.08289 2.6263,3.81683 2.56495,3.87817 1.83101,3.14423 "/>
  <path class="fil17" d="M2.93126 3.71717l-0.465957 0.465957 0.00546457 0.00546063 0.00805118 -0.00805118c0.0406024,-0.0405984 0.107035,-0.0405984 0.147634,0l0 0c0.0405984,0.0405984 0.0405984,0.107035 0,0.147634l-0.00805118 0.00805118 0.880343 0.880343c0.0845748,0.0845748 0.22298,0.0845748 0.307563,-7.87402e-006l0.158386 -0.158386c0.0845787,-0.0845787 0.0845787,-0.222984 7.87402e-006,-0.307559l-0.880343 -0.880343 -0.00805512 0.00805512c-0.0405984,0.0405945 -0.107031,0.0405945 -0.147634,-3.93701e-006l0 0c-0.0405984,-0.0405984 -0.0405984,-0.107035 0,-0.147634l0.00805512 -0.00805118 -0.00546457 -0.00546457z"/>
  <path class="fil18" d="M2.93126 3.71717l-0.344256 0.147413 -0.121701 0.318543 0.00546457 0.00546063 0.00805118 -0.00805118c0.0406024,-0.0405984 0.107035,-0.0405984 0.147634,0l0 0c0.0405984,0.0405984 0.0405984,0.107035 0,0.147634l-0.00805118 0.00805118 0.00334646 0.00335039 0.465957 -0.465957 -0.00334646 -0.00334646 -0.00805512 0.00805512c-0.0405984,0.0405945 -0.107031,0.0405945 -0.147634,-3.93701e-006l0 0c-0.0405984,-0.0405984 -0.0405984,-0.107035 0,-0.147634l0.00805512 -0.00805118 -0.00546457 -0.00546457z"/>
  <path class="fil17" d="M2.94173 3.71711l-0.476488 0.476488c-0.0104724,0.0104685 -0.0276063,0.0104685 -0.0380787,0l-0.109555 -0.109559c-0.0104724,-0.0104724 -0.0104724,-0.0276063 0,-0.0380748l0.476488 -0.476492c0.0104685,-0.0104685 0.0276024,-0.0104724 0.0380748,0l0.109559 0.109563c0.0104724,0.0104685 0.0104685,0.0276024 0,0.0380748z"/>
  <path class="fil19" d="M1.96294 3.21481l-3.93701e-006 0c-0.0203228,0.0203268 -0.0470827,0.0304882 -0.073815,0.0304882 -0.0267323,0 -0.0534921,-0.0101614 -0.073815,-0.0304882l-0.15002 -0.150016 -0.0250591 -0.0250591 0.0250591 -0.0250591 0.0975197 -0.0975157 0.0250551 -0.0250591 0.025063 0.0250591 0.150016 0.150016c0.0203228,0.0203268 0.0304882,0.0470827 0.0304882,0.073815 0,0.0267323 -0.0101654,0.0534921 -0.0304882,0.0738189z"/>
  <path class="fil18" d="M3.87041 4.85826l0 0c-0.0156654,0.0156654 -0.0412913,0.0156654 -0.0569567,0l-0.737106 -0.737102c-0.0156614,-0.0156654 -0.0156614,-0.0412953 0,-0.0569606l0 0c0.0156654,-0.0156614 0.0412953,-0.0156614 0.0569606,3.93701e-006l0.737102 0.737102c0.0156654,0.0156654 0.0156614,0.0412913 0,0.0569567z"/>
  <path class="fil18" d="M3.7384 4.99027l0 0c-0.0156654,0.0156614 -0.0412953,0.0156614 -0.0569567,0l-0.737106 -0.737102c-0.0156654,-0.0156693 -0.0156654,-0.0412953 0,-0.0569606l0 0c0.0156654,-0.0156614 0.0412953,-0.0156614 0.0569567,0l0.737102 0.737102c0.0156654,0.0156654 0.0156654,0.0412953 3.93701e-006,0.0569606z"/>
  <path class="fil18" d="M3.60639 5.12228l0 0c-0.0156654,0.0156654 -0.0412953,0.0156654 -0.0569606,0l-0.737102 -0.737102c-0.0156614,-0.0156614 -0.0156614,-0.0412953 0,-0.0569567l0 0c0.0156654,-0.0156654 0.0412913,-0.0156654 0.0569606,0l0.737102 0.737102c0.0156614,0.0156654 0.0156614,0.0412953 0,0.0569567z"/>
  <path class="fil11" d="M2.74896 2.63178c-0.0168937,0.13839 -0.0100906,0.267146 0.000874016,0.394217l0.0468031 -0.105441c0,0 0.0402008,-0.253528 0.0818543,-0.288776 0.0416575,-0.0352441 -0.129531,0 -0.129531,0z"/>
  <path class="fil11" d="M4.1407 2.63178c0.0168937,0.13839 0.0100945,0.267146 -0.000870079,0.394217l-0.0468031 -0.105441c0,0 -0.0402008,-0.253528 -0.0818543,-0.288776 -0.0416575,-0.0352441 0.129528,0 0.129528,0z"/>
  <polygon class="fil9" points="4.11774,2.54818 4.02436,2.65476 3.97616,2.67919 2.89015,2.67919 2.83838,2.65062 2.77214,2.56501 2.77214,2.56501 2.66036,2.54472 2.83838,2.77482 2.89015,2.80339 3.97616,2.80339 4.02436,2.77896 4.24,2.53283 "/>
  <path class="fil20" d="M3.55072 1.71755l0 0 -7.87402e-006 0 1.9685e-005 0.00113386 -1.1811e-005 -0.00113386zm0.027063 -0.0895c0.00700394,0.0163425 0.0107323,0.0340709 0.0107323,0.0522559l0 0.0382283 0 0.393811 0.0761772 0 0 -0.312839 0 -1.1811e-005 0 -0.119189c0,-0.0126614 -0.00114567,-0.0251732 -0.00337008,-0.0374173 0.171693,0.0343307 0.306953,0.114248 0.414472,0.218972 0.109795,0.106937 0.189382,0.238701 0.248807,0.373126 0.00866929,0.0196102 0.0166063,0.0215433 0.0216614,0.0227717 0.0466457,0.0113189 0.0774803,0.0188071 0.0774803,0.0886693l0 0.0356693 -0.0279724 0.0229449 -0.371413 0.304677 -0.0482008 0.0175551 -1.08601 0 -0.0517717 -0.0205315 -0.32798 -0.304677 -0.0243976 -0.0226614 0 -0.0329764c0,-0.125976 0.0853701,-0.0619646 0.0953425,-0.087063 0.0561378,-0.141311 0.134327,-0.278811 0.244524,-0.389689 0.108236,-0.108898 0.246177,-0.191579 0.422551,-0.226787 -0.00222047,0.0122402 -0.00337008,0.0247559 -0.00337008,0.0374173l0 0.119161 0 7.87402e-006 0 0.31287 0.0761772 0 0 -0.393811 0 -0.0382283c0,-0.018185 0.00372835,-0.0359134 0.0107323,-0.0522559l0.0290197 -0.00505118 -0.0290197 0.00505118c0.00667717,-0.0155669 0.0163228,-0.0298701 0.0285551,-0.0421024 0.0250748,-0.0250787 0.0588504,-0.0392874 0.0943583,-0.0392874 0.0355079,0 0.0692913,0.0142126 0.0943622,0.0392874 0.0122323,0.0122323 0.021878,0.0265354 0.0285512,0.0421024zm-0.218764 0.0895l0 0z"/>
  <path class="fil21" d="M2.57746 2.26388c0.0957756,0.090874 0.295484,0.2785 0.326398,0.292555 0.0409094,0.0185984 1.00791,0.00743701 1.00791,0.00743701 0,0 0.0743858,-0.0185945 0.0929803,-0.0334724 0.0147362,-0.0117874 0.238799,-0.200228 0.331142,-0.277917 0.00407087,0.00374803 0.00764173,0.00461811 0.010374,0.00527953 0.0466457,0.0113189 0.0774803,0.0188071 0.0774803,0.0886693l0 0.0356693 -0.0279724 0.0229449 -0.371413 0.304677 -0.0482008 0.0175551 -1.08601 0 -0.0517717 -0.0205315 -0.32798 -0.304677 -0.0243976 -0.0226614 0 -0.0329764c0,-0.115673 0.0719685,-0.0711772 0.0914646,-0.0825512z"/>
 </g>
</svg>
