<?xml version="1.0" encoding="utf-8"?>
<!-- Generator: Adobe Illustrator 24.0.0, SVG Export Plug-In . SVG Version: 6.00 Build 0)  -->
<svg version="1.1" xmlns="http://www.w3.org/2000/svg" xmlns:xlink="http://www.w3.org/1999/xlink" x="0px" y="0px"
	 viewBox="0 0 256 256" enable-background="new 0 0 256 256" xml:space="preserve">
<g id="Layer_2">
</g>
<g id="Layer_1">
	<g>
	</g>
	<g>
		<path fill="#72C2E9" d="M251.12,77.2v141.14c0,5.52-4.48,10-10,10h-16.3l-54.32-54.32c-3.86,5.93-8.93,10.99-14.85,14.85
			l39.47,39.47H14.88c-5.52,0-10-4.48-10-10V77.2c0-5.52,4.48-10,10-10h226.24C246.64,67.2,251.12,71.68,251.12,77.2z"/>
		<path fill="#4BA5C8" d="M155.65,188.87l39.47,39.47h-8.48l-30.91-30.9c-0.38-0.39-0.89-0.59-1.41-0.59c-0.31,0-0.61,0.07-0.9,0.21
			c-7.82,3.93-16.61,6.01-25.42,6.01c-31.26,0-56.7-25.44-56.7-56.7s25.44-56.7,56.7-56.7s56.7,25.44,56.7,56.7
			c0,8.8-2.08,17.59-6.01,25.42c-0.38,0.77-0.23,1.7,0.38,2.31l51.97,51.98c0.7,0.7,1.34,1.46,1.89,2.26h-8.11l-54.32-54.32
			C166.64,179.95,161.57,185.01,155.65,188.87z"/>
		<path fill="#F0C020" d="M178.7,146.37c0,10.2-3.02,19.7-8.2,27.65c-3.86,5.93-8.93,10.99-14.85,14.85
			c-7.95,5.19-17.45,8.2-27.65,8.2c-28,0-50.7-22.7-50.7-50.7s22.7-50.7,50.7-50.7S178.7,118.37,178.7,146.37z"/>
		<path fill="#FC5D3D" d="M171.825,38.524V67.2h-14.123V41.783H98.298V67.2H84.176V38.524c0-6,4.864-10.864,10.864-10.864h65.921
			C166.961,27.66,171.825,32.524,171.825,38.524z"/>
		<path fill="#7D7B79" d="M55.57,53.16H35.32c-2.761,0-5,2.239-5,5v9.04h30.25v-9.04C60.57,55.399,58.331,53.16,55.57,53.16z"/>
		<path fill="#7D7B79" d="M220.68,53.16h-20.25c-2.761,0-5,2.239-5,5v9.04h30.25v-9.04C225.68,55.399,223.441,53.16,220.68,53.16z"
			/>
		<path fill="#F0C020" d="M62.63,187.381c-3.683-1.217-7.487-2.281-9.623-11.48c-1.967,8.473-5.118,9.992-9.623,11.48
			c7.347,2.428,8.455,6.447,9.623,11.48C55.021,190.185,58.35,188.795,62.63,187.381z"/>
		<path fill="#F0C020" d="M186.51,92.881c-3.683-1.217-7.487-2.281-9.623-11.48c-1.967,8.473-5.118,9.992-9.623,11.48
			c7.347,2.428,8.455,6.447,9.623,11.48C178.9,95.685,182.23,94.295,186.51,92.881z"/>
		<path fill="#F0C020" d="M212.615,120.78c-3.683-1.217-7.487-2.281-9.623-11.481c-1.967,8.473-5.118,9.992-9.623,11.481
			c7.347,2.428,8.455,6.447,9.623,11.48C205.005,123.584,208.335,122.194,212.615,120.78z"/>
		<path fill="#7D7B79" d="M226.8,245.17c-4.1,4.1-10.75,4.1-14.85,0l-56.3-56.3c5.92-3.86,10.99-8.92,14.85-14.85l54.32,54.32
			l1.98,1.98C230.9,234.42,230.9,241.07,226.8,245.17z"/>
		<path fill="#EFEFEF" d="M165.071,146.37c0,12.655-6.353,23.852-16.058,30.533c-5.973,4.12-13.211,6.538-21.012,6.538
			s-15.039-2.41-21.012-6.53c-9.697-6.681-16.058-17.861-16.058-30.541c0-20.473,16.598-37.071,37.071-37.071
			S165.071,125.897,165.071,146.37z"/>
		<path fill="#7C7B7A" d="M139.012,133.014h-21.695l0.005-6.278c0.002-2.112,1.714-3.823,3.826-3.823h11.195
			c1.358,0,2.695-0.328,3.899-0.957l4.676-2.441C143.282,124.236,142.295,129.516,139.012,133.014z"/>
		<path fill="#FFB69F" d="M128.162,151.846L128.162,151.846c-5.99,0-10.845-4.856-10.845-10.845v-7.988h21.69v7.988
			C139.007,146.991,134.152,151.846,128.162,151.846z"/>
		<path fill="#FC5D3D" d="M149.012,164.484v12.419c-5.973,4.12-13.211,6.538-21.012,6.538s-15.039-2.41-21.012-6.53v-12.427
			c0-6.976,5.662-12.638,12.638-12.638h16.749C143.351,151.846,149.012,157.508,149.012,164.484z"/>
		<path d="M50.598,199.421c-1.067-4.599-1.771-7.637-7.989-9.691c-2.259-0.746-2.254-3.952,0-4.697
			c3.743-1.237,6.216-2.054,7.989-9.692c0.589-2.538,4.228-2.545,4.818,0c1.813,7.811,4.522,8.549,7.989,9.691
			c2.259,0.746,2.254,3.952,0,4.697c-3.609,1.192-6.218,2.054-7.989,9.691C54.825,201.971,51.191,201.971,50.598,199.421z
			 M49.185,187.438c1.78,1.222,2.996,2.618,3.872,4.094c1.061-1.875,2.29-3.166,3.659-4.128c-1.312-0.939-2.583-2.269-3.699-4.279
			C51.913,185.109,50.625,186.45,49.185,187.438z"/>
		<path d="M174.478,104.921c-1.067-4.599-1.771-7.637-7.989-9.691c-2.259-0.746-2.254-3.952,0-4.697
			c3.743-1.237,6.216-2.054,7.989-9.692c0.589-2.538,4.228-2.545,4.818,0c1.813,7.811,4.522,8.549,7.989,9.691
			c2.259,0.746,2.254,3.952,0,4.697c-3.609,1.192-6.218,2.054-7.989,9.691C178.705,107.471,175.07,107.471,174.478,104.921z
			 M173.064,92.938c1.78,1.222,2.996,2.618,3.872,4.094c1.061-1.875,2.29-3.166,3.659-4.128c-1.312-0.939-2.583-2.269-3.699-4.279
			C175.793,90.609,174.504,91.95,173.064,92.938z"/>
		<path d="M200.583,132.819c-1.067-4.599-1.771-7.637-7.989-9.691c-2.259-0.746-2.254-3.952,0-4.697
			c3.743-1.237,6.216-2.054,7.989-9.692c0.589-2.538,4.228-2.545,4.818,0c1.813,7.811,4.522,8.549,7.989,9.691
			c2.259,0.746,2.254,3.952,0,4.697c-3.609,1.192-6.218,2.054-7.989,9.691C204.81,135.369,201.176,135.37,200.583,132.819z
			 M199.169,120.836c1.78,1.222,2.996,2.618,3.872,4.094c1.061-1.875,2.29-3.166,3.659-4.128c-1.313-0.939-2.583-2.269-3.699-4.279
			C201.898,118.508,200.61,119.848,199.169,120.836z"/>
		<g>
			<g>
				<g>
					<g>
						<path fill="#C5E5FE" d="M168.5,219.84h-137c-1.381,0-2.5-1.119-2.5-2.5s1.119-2.5,2.5-2.5h137c1.381,0,2.5,1.119,2.5,2.5
							S169.881,219.84,168.5,219.84z M21.5,219.84h-5.62c-1.381,0-2.5-1.119-2.5-2.5s1.119-2.5,2.5-2.5h5.62
							c1.381,0,2.5,1.119,2.5,2.5S22.881,219.84,21.5,219.84z"/>
					</g>
					<g>
						<path fill="#C5E5FE" d="M240.12,219.84h-11.287c-1.381,0-2.5-1.119-2.5-2.5s1.119-2.5,2.5-2.5h8.787V78.2
							c0-1.381,1.119-2.5,2.5-2.5s2.5,1.119,2.5,2.5v139.14C242.62,218.721,241.501,219.84,240.12,219.84z"/>
					</g>
				</g>
			</g>
			<g>
				<g>
					<path fill="#FFFFFF" d="M147.207,169.959c-0.955-0.998-0.921-2.58,0.077-3.535c5.43-5.199,8.544-12.523,8.544-20.096
						c0-6.775-2.489-13.312-7.009-18.405c-0.916-1.033-0.822-2.613,0.211-3.529s2.613-0.821,3.529,0.211
						c5.332,6.009,8.269,13.724,8.269,21.723c0,8.93-3.677,17.571-10.087,23.708C149.746,170.989,148.164,170.958,147.207,169.959z"
						/>
				</g>
				<g>
					<path fill="#FFCBC3" d="M128.236,176.806c-0.125-1.375,0.888-2.591,2.263-2.716c6.289-0.571,12.248-3.292,16.778-7.659
						c0.993-0.958,2.577-0.93,3.535,0.064c0.958,0.994,0.93,2.577-0.064,3.535c-5.347,5.155-12.378,8.365-19.796,9.039
						C129.563,179.192,128.36,178.171,128.236,176.806z M120.206,178.271c-1.047-0.255-2.095-0.566-3.114-0.925
						c-1.302-0.459-1.986-1.887-1.527-3.189c0.458-1.303,1.888-1.985,3.189-1.527c0.862,0.304,1.749,0.567,2.635,0.784
						c1.341,0.327,2.164,1.679,1.837,3.021C122.897,177.785,121.534,178.597,120.206,178.271z"/>
				</g>
			</g>
		</g>
		<path d="M14.88,230.84h42.33c1.38,0,2.5-1.12,2.5-2.5s-1.12-2.5-2.5-2.5H14.88c-4.13-0.01-7.49-3.37-7.5-7.5V77.2
			c0.01-4.13,3.37-7.49,7.5-7.5c23.731,0,196.772,0,226.24,0c4.13,0.01,7.489,3.37,7.5,7.5v141.14c-0.011,4.13-3.37,7.49-7.5,7.5
			h-15.262l-19.138-19.13c-0.939-0.94-2.59-0.94-3.53,0c-0.964,0.964-0.98,2.549,0,3.53l21.841,21.85
			c3.108,3.088,3.137,8.172,0,11.31c-3.124,3.121-8.186,3.124-11.311,0l-54.189-54.18c4.323-3.186,8.239-7.134,11.319-11.32
			l18.2,18.2c0.94,0.95,2.59,0.95,3.53,0c0.979-0.97,0.979-2.56,0-3.53l-18.907-18.915c4.93-8.238,7.527-17.627,7.527-27.284
			c0-29.334-23.865-53.2-53.2-53.2c-29.334,0-53.2,23.866-53.2,53.2s23.866,53.2,53.2,53.2c9.673,0,19.063-2.597,27.285-7.525
			l33.795,33.795H77.21c-1.38,0-2.5,1.12-2.5,2.5s1.12,2.5,2.5,2.5h0.01h116.86l16.1,16.1c4.956,4.955,13.192,5.176,18.39,0
			c4.393-4.411,4.964-11.095,1.812-16.1h10.739c6.89,0,12.5-5.61,12.5-12.5V77.2c0-6.89-5.61-12.5-12.5-12.5h-12.94v-6.54
			c0-4.14-3.37-7.5-7.5-7.5h-20.25c-4.13,0-7.5,3.36-7.5,7.5v6.54h-18.61V38.52c0-7.36-5.989-13.36-13.359-13.36h-8.83
			c-1.38,0-2.5,1.12-2.5,2.5c0,1.38,1.12,2.5,2.5,2.5h8.83c4.6,0.01,8.35,3.76,8.359,8.36V64.7H160.2V41.78
			c0-1.327-1.075-2.5-2.5-2.5H98.3c-1.318,0-2.5,1.072-2.5,2.5V64.7h-9.13l0.01-26.18c0-4.6,3.76-8.35,8.36-8.36h37.09
			c1.38,0,2.5-1.12,2.5-2.5c0-1.38-1.12-2.5-2.5-2.5H95.04c-7.37,0-13.36,6-13.37,13.36V64.7h-18.6v-6.54c0-4.13-3.37-7.5-7.5-7.5
			H35.32c-4.13,0-7.5,3.37-7.5,7.5v6.54H14.88c-6.89,0-12.5,5.61-12.5,12.5v141.14C2.38,225.23,7.99,230.84,14.88,230.84z
			 M79.8,146.37c0-26.578,21.623-48.2,48.2-48.2c26.578,0,48.2,21.623,48.2,48.2c0,26.579-21.549,48.2-48.2,48.2
			C101.422,194.57,79.8,172.948,79.8,146.37z M197.93,58.16c0-1.38,1.12-2.5,2.5-2.5h20.25c1.38,0,2.5,1.12,2.5,2.5v6.54h-25.25
			V58.16z M100.8,44.28h54.4V64.7h-54.4V44.28z M32.82,58.16c0-1.38,1.12-2.5,2.5-2.5h20.25c1.38,0,2.5,1.12,2.5,2.5v6.54H32.82
			V58.16z"/>
		<circle cx="67.21" cy="228.34" r="2.5"/>
		<circle cx="142.13" cy="27.66" r="2.5"/>
		<path d="M199.649,203.17c0.971-0.951,1.003-2.528,0-3.53c-0.939-0.95-2.59-0.94-3.529,0c-0.98,0.97-0.98,2.56,0,3.53
			C197.076,204.146,198.673,204.167,199.649,203.17z"/>
		<path d="M167.569,146.37c0-21.867-17.697-39.57-39.569-39.57c-5.31,0-10.46,1.03-15.31,3.07c-1.28,0.54-1.88,2.01-1.34,3.28
			c0.52,1.23,2.02,1.86,3.26,1.33c0.01,0,0.01,0,0.01,0c4.24-1.78,8.74-2.68,13.38-2.68c19.09,0,34.569,15.47,34.569,34.57
			c0,9.679-4.069,18.819-11.057,25.312v-7.197c0-7.645-5.703-13.969-13.074-14.981c1.915-2.31,3.068-5.274,3.068-8.502v-7.064
			c2.071-2.55,3.213-5.7,3.213-8.997c0-2.24-0.54-4.5-1.57-6.55c-0.654-1.286-2.215-1.718-3.39-1.09l-4.68,2.44
			c-0.84,0.44-1.79,0.67-2.74,0.67h-11.19c-3.49,0-6.32,2.84-6.33,6.32c0,3.567-0.003,7.256-0.003,14.271
			c0,3.208,1.139,6.154,3.032,8.458c-7.512,0.883-13.361,7.279-13.361,15.025v7.202c-6.991-6.495-11.058-15.64-11.058-25.317
			c0-7.43,2.32-14.52,6.72-20.48c0.81-1.11,0.58-2.68-0.53-3.5c-1.08-0.79-2.71-0.54-3.5,0.53c-5.03,6.83-7.69,14.94-7.69,23.45
			c0,13.018,6.408,25.206,17.135,32.596c0.001,0.001,0.002,0.002,0.004,0.003c6.612,4.561,14.369,6.972,22.432,6.972
			C149.83,185.941,167.569,168.201,167.569,146.37z M119.817,141.001v-5.489h16.69v5.489c0,4.601-3.743,8.345-8.345,8.345
			S119.817,145.603,119.817,141.001z M119.82,126.74c0-0.73,0.6-1.33,1.33-1.33h11.19c1.75,0,3.5-0.43,5.06-1.24l2.131-1.11
			c0.119,0.62,0.189,1.25,0.189,1.88c0,1.99-0.66,3.97-1.87,5.57h-18.03V126.74z M119.625,154.346h16.75
			c5.59,0,10.138,4.548,10.138,10.138v11.046c-5.731,3.647-12.21,5.41-18.513,5.41c-6.382,0-12.834-1.789-18.512-5.405v-11.051
			C109.488,158.894,114.036,154.346,119.625,154.346z"/>
		<path d="M106.62,119.2c1.048-0.825,1.292-2.397,0.41-3.51c-0.82-1.05-2.45-1.24-3.51-0.41c-1.08,0.85-1.27,2.43-0.41,3.51
			C103.929,119.835,105.481,120.086,106.62,119.2z"/>
	</g>
</g>
</svg>
