<?xml version="1.0" encoding="UTF-8"?>
<!DOCTYPE svg PUBLIC "-//W3C//DTD SVG 1.1//EN" "http://www.w3.org/Graphics/SVG/1.1/DTD/svg11.dtd">
<!-- Creator: CorelDRAW -->
<svg xmlns="http://www.w3.org/2000/svg" xml:space="preserve" width="6.82666in" height="6.82666in" style="shape-rendering:geometricPrecision; text-rendering:geometricPrecision; image-rendering:optimizeQuality; fill-rule:evenodd; clip-rule:evenodd"
viewBox="0 0 6.82666 6.82666"
 xmlns:xlink="http://www.w3.org/1999/xlink">
 <defs>
  <style type="text/css">
   <![CDATA[
    .fil11 {fill:none}
    .fil7 {fill:#414141}
    .fil1 {fill:#555555}
    .fil9 {fill:#919191}
    .fil8 {fill:#BEBEBE}
    .fil6 {fill:#C9C9C9}
    .fil10 {fill:#D4D4D4}
    .fil5 {fill:#EDEDEE}
    .fil4 {fill:#2F2F2F;fill-rule:nonzero}
    .fil0 {fill:#767676;fill-rule:nonzero}
    .fil3 {fill:#A1A1A1;fill-rule:nonzero}
    .fil2 {fill:#A7A7A7;fill-rule:nonzero}
   ]]>
  </style>
 </defs>
 <g id="Layer_x0020_1">
  <metadata id="CorelCorpID_0Corel-Layer"/>
  <g id="_365534720">
   <path id="_365535128" class="fil0" d="M2.89221 1.68903l-0.207421 0c-0.0262953,0 -0.0476142,-0.0215472 -0.0476142,-0.0481181l0 -0.196689c0,-0.0265748 0.0213189,-0.0481181 0.0476142,-0.0481181l0.207421 0c0.0262913,0 0.0476142,0.0215433 0.0476142,0.0481181l0 0.196689c0,0.0265709 -0.0213228,0.0481181 -0.0476142,0.0481181z"/>
   <path id="_365535488" class="fil0" d="M3.07002 1.70817c-0.0262953,0 -0.0476181,0.0215472 -0.0476181,0.0481181 0,0.0265709 0.0213228,0.0481181 0.0476181,0.0481181l0.0325827 0c0.0262913,0 0.0476142,-0.0215472 0.0476142,-0.0481181 0,-0.0265709 -0.0213228,-0.0481181 -0.0476142,-0.0481181l-0.0325827 0z"/>
   <path id="_365535104" class="fil0" d="M3.07002 1.89807c-0.0262953,0 -0.0476181,0.0215472 -0.0476181,0.0481181 0,0.0265709 0.0213228,0.0481181 0.0476181,0.0481181l0.0325827 0c0.0262913,0 0.0476142,-0.0215472 0.0476142,-0.0481181 0,-0.0265709 -0.0213228,-0.0481181 -0.0476142,-0.0481181l-0.0325827 0z"/>
   <path id="_365535656" class="fil0" d="M1.97628 1.6386l0.415913 0.118634c0.0215591,0.00459055 0.0377441,0.0239291 0.0377441,0.0470787l0 0.273516c0.000358268,0.0211614 -0.0132283,0.0408031 -0.0343071,0.047l-0.000102362 -0.000153543 -0.388378 0.11426c-0.00698425,0.00274409 -0.0147126,0.00385827 -0.0226772,0.00292913l7.87402e-006 -6.29921e-005 -0.203091 -0.0237205c-0.024874,-0.00159055 -0.044563,-0.0224803 -0.044563,-0.0480157l0 -0.456894c-0.000169291,-0.0234646 0.016689,-0.0441378 0.040315,-0.0478425l4.72441e-005 0.000181102 0.174705 -0.0273976c0.00777165,-0.00196063 0.0161457,-0.00196063 0.0244094,0.000397638l-2.3622e-005 9.05512e-005z"/>
   <rect id="_365535416" class="fil1" x="2.40342" y="1.73293" width="0.174525" height="0.408336" rx="0.0282008" ry="0.0282008"/>
   <path id="_365535224" class="fil2" d="M2.59341 1.5928l0.390189 0c0.0308031,0 0.0587717,0.0127008 0.0790157,0.0331575 0.0202402,0.0204528 0.032811,0.0487205 0.032811,0.0798465l0 0.480776c0,0.031126 -0.0125709,0.0593937 -0.032811,0.0798465 -0.0202441,0.0204567 -0.0482126,0.0331575 -0.0790157,0.0331575l-0.390189 0c-0.0307992,0 -0.0587717,-0.0127008 -0.0790118,-0.0331575 -0.0202441,-0.0204528 -0.032811,-0.0487205 -0.032811,-0.0798465l0 -0.480776c0,-0.031126 0.0125669,-0.0593937 0.032811,-0.0798465 0.0202402,-0.0204567 0.0482126,-0.0331575 0.0790118,-0.0331575z"/>
   <path id="_365535248" class="fil3" d="M2.89319 2.42559c-0.0217756,-0.0148465 -0.0513386,-0.00903937 -0.0660276,0.0129685 -0.014689,0.0220039 -0.00894094,0.051878 0.0128346,0.0667205l0.441224 0.300992 -2.75591e-005 3.93701e-005c0.00935433,0.00638189 0.0201457,0.00895276 0.0305866,0.00806693l0.17515 0.000795276c0.0261929,0.000106299 0.0475118,-0.0212717 0.0476142,-0.0477402 0.000102362,-0.0264685 -0.0210512,-0.0480157 -0.0472441,-0.0481181l-0.164626 -0.000748031 -0.429484 -0.292976z"/>
   <path id="_365535608" class="fil4" d="M2.87955 2.39635c0,-0.0531496 -0.0426378,-0.0962362 -0.0952323,-0.0962362 -0.0525906,0 -0.0952283,0.0430866 -0.0952283,0.0962362l0 2.92709c0,0.0531496 0.0426378,0.0962362 0.0952283,0.0962362 0.0525945,0 0.0952323,-0.0430866 0.0952323,-0.0962362l0 -2.92709z"/>
   <path id="_365535392" class="fil4" d="M1.25274 5.81913c-0.0283504,0.0446339 -0.0155276,0.104047 0.0286417,0.132697 0.0441654,0.0286496 0.102961,0.015689 0.131311,-0.0289449l1.45162 -2.28617c0.0283504,-0.0446339 0.0155236,-0.104047 -0.0286417,-0.132697 -0.0441693,-0.0286496 -0.102961,-0.015689 -0.131311,0.0289449l-1.45162 2.28617z"/>
   <path id="_365534960" class="fil4" d="M4.15597 5.92288c0.0283504,0.0446339 0.0871457,0.0575945 0.131311,0.0289449 0.0441693,-0.0286496 0.0569921,-0.088063 0.0286417,-0.132697l-1.45162 -2.28617c-0.0283504,-0.0446339 -0.0871417,-0.0575945 -0.131311,-0.0289449 -0.0441654,0.0286496 -0.0569921,0.088063 -0.0286417,0.132697l1.45162 2.28617z"/>
   <path id="_365534648" class="fil4" d="M2.64671 3.26582c-0.0406339,0 -0.0735787,0.0430866 -0.0735787,0.0962362 0,0.0531496 0.0329449,0.0962362 0.0735787,0.0962362l0.275228 0c0.0406339,0 0.0735787,-0.0430866 0.0735787,-0.0962362 0,-0.0531496 -0.0329449,-0.0962362 -0.0735787,-0.0962362l-0.275228 0z"/>
   <path id="_365534552" class="fil4" d="M2.60621 2.30012c-0.0525906,0 -0.0952283,0.0430906 -0.0952283,0.0962362 0,0.0531496 0.0426378,0.0962402 0.0952283,0.0962402l0.356224 0c0.0525945,0 0.0952323,-0.0430906 0.0952323,-0.0962402 0,-0.0531457 -0.0426378,-0.0962362 -0.0952323,-0.0962362l-0.356224 0z"/>
   <path id="_365534456" class="fil5" d="M2.7885 1.81069c-0.0335079,0 -0.0606732,0.0274528 -0.0606732,0.061315l0 0.148378c0,0.0338622 0.0271654,0.061315 0.0606732,0.061315 0.0335079,0 0.0606732,-0.0274528 0.0606732,-0.061315l0 -0.148378c0,-0.0338622 -0.0271654,-0.061315 -0.0606732,-0.061315z"/>
  </g>
  <polygon class="fil6" points="5.23052,3.65893 5.28429,5.93921 4.86765,5.80522 4.70296,3.59646 5.18192,3.49233 "/>
  <path class="fil7" d="M5.28429 5.93921c-0.129094,-0.443701 -1.09774,-0.25915 -0.763567,0l0.763567 0z"/>
  <rect class="fil8" x="4.77298" y="1.62722" width="0.255136" height="0.445878"/>
  <path class="fil9" d="M5.32787 3.65199c0,0 0.118016,-1.62432 -0.138823,-1.71456 0,0 -0.374846,-0.305413 -0.610858,0.14578 0,0 -0.032315,1.5887 0.0485945,1.58267l0.701087 -0.0138819z"/>
  <path class="fil10" d="M5.01569 1.75174l0.0711811 -0.168323c0.310862,-0.735106 -0.526878,-0.624476 -0.599366,-0.510933 -0.0277992,0.0435394 -0.0597874,0.201756 -0.0548583,0.273193l-0.0624606 0.114531 0.0584606 0.00975984c0,0 -0.122874,0.28122 0.390906,0.308406l0.196138 -0.0266339z"/>
  <path class="fil7" d="M4.42593 1.21701c0.719016,-0.22798 0.440394,0.270831 0.510209,0.256839 0.0173465,-0.00348031 0.0763583,-0.166606 0.142299,-0.131898 0,0 0.0659567,0.159665 -0.0589961,0.260315l-0.00374803 0.14948c0,0 0.701354,-0.593732 -0.124685,-0.888756 0,0 -0.895449,-0.0659409 -0.465079,0.35402z"/>
  <g id="_365532896">
   <rect id="_365534024" class="fil6" transform="matrix(2.02805 -2.83929 2.83929 2.02805 3.36437 2.3753)" width="0.0763898" height="0.36111" rx="0.372181" ry="0.372181"/>
   <rect id="_365534144" class="fil6" transform="matrix(2.84444 2.02083 -2.02083 2.84444 4.89946 1.92208)" width="0.0763898" height="0.36111" rx="0.372181" ry="0.372181"/>
   <ellipse id="_365533112" class="fil10" transform="matrix(2.17836 1.03106 -1.03106 2.17836 3.4833 2.30117)" rx="0.0894094" ry="0.0659724"/>
  </g>
 </g>
 <rect class="fil11" width="6.82666" height="6.82666"/>
</svg>
