<svg xmlns="http://www.w3.org/2000/svg" viewBox="0 0 64 64"><title>Artboard-1</title><g id="Dinner_Tray" data-name="Dinner Tray"><rect x="19" y="19" width="24" height="3" style="fill:#1b1b1e"/><path d="M34.9938,9.9385a3.9942,3.9942,0,0,0-7.9876,0A9.0052,9.0052,0,0,0,22.06,17H39.94A9.0052,9.0052,0,0,0,34.9938,9.9385Zm-5.82-.7534a2,2,0,0,1,3.6524,0A9.4549,9.4549,0,0,0,31,9,10.0164,10.0164,0,0,0,29.1738,9.1851ZM30.47,13.03a4.9842,4.9842,0,0,0-3.6,2.15.9976.9976,0,0,1-.82.43.9775.9775,0,0,1-.57-.17,1.0057,1.0057,0,0,1-.26-1.39,7.0075,7.0075,0,0,1,5.0581-3.0083A.9988.9988,0,0,1,30.47,13.03Z" style="fill:#1b1b1e"/><path d="M12,24V6A3.0033,3.0033,0,0,0,9,3H1A1,1,0,0,0,0,4V8A1,1,0,0,0,1,9h9V34a1.0029,1.0029,0,0,0,1,1c2.76,0,4.32,1.28,6.11,2.77C18.94,39.28,21.01,41,24.5,41c3.52,0,5.34-1.74,6.94-3.28C32.96,36.26,34.27,35,36.99,35c2.73,0,4.04,1.26,5.56,2.72C44.15,39.26,45.97,41,49.5,41c3.48,0,5.56-1.72,7.39-3.23C58.68,36.28,60.23,35,63,35a1.0029,1.0029,0,0,0,1-1V24Z" style="fill:#1b1b1e"/><path d="M49.5,43c-4.34,0-6.65-2.22-8.33-3.84C39.76,37.81,38.91,37,36.99,37c-1.91,0-2.76.81-4.17,2.16C31.14,40.78,28.83,43,24.5,43c-4.21,0-6.78-2.13-8.66-3.69-1.38-1.14-2.39-1.97-3.84-2.23V56a1.0029,1.0029,0,0,0,1,1h4.08A5.5465,5.5465,0,0,1,17,56a7,7,0,0,1,14,0,5.5465,5.5465,0,0,1-.08,1H43.08A5.5465,5.5465,0,0,1,43,56a7,7,0,0,1,14,0,5.5465,5.5465,0,0,1-.08,1H61a1.0029,1.0029,0,0,0,1-1V37.08c-1.46.26-2.46,1.08-3.84,2.23C56.28,40.87,53.7,43,49.5,43Z" style="fill:#1b1b1e"/><circle cx="24" cy="56" r="5" style="fill:#1b1b1e"/><circle cx="50" cy="56" r="5" style="fill:#1b1b1e"/><path d="M59,5a1.0029,1.0029,0,0,0-1-1H48a1.0029,1.0029,0,0,0-1,1V8H59Z" style="fill:#1b1b1e"/><path d="M53,17a6.0048,6.0048,0,0,0,6-6V10H47v1A6.0048,6.0048,0,0,0,53,17Z" style="fill:#1b1b1e"/><path d="M53,19a7.9036,7.9036,0,0,1-3-.59v.43A3.3633,3.3633,0,0,1,47.8,22H58.2A3.3633,3.3633,0,0,1,56,18.84v-.43A7.9036,7.9036,0,0,1,53,19Z" style="fill:#1b1b1e"/></g></svg>