<?xml version="1.0" encoding="UTF-8"?>
<!DOCTYPE svg PUBLIC "-//W3C//DTD SVG 1.1//EN" "http://www.w3.org/Graphics/SVG/1.1/DTD/svg11.dtd">
<!-- Creator: CorelDRAW -->
<svg xmlns="http://www.w3.org/2000/svg" xml:space="preserve" width="6.82666in" height="6.82666in" style="shape-rendering:geometricPrecision; text-rendering:geometricPrecision; image-rendering:optimizeQuality; fill-rule:evenodd; clip-rule:evenodd"
viewBox="0 0 6.82666 6.82666"
 xmlns:xlink="http://www.w3.org/1999/xlink">
 <defs>
  <style type="text/css">
   <![CDATA[
    .fil2 {fill:none}
    .fil15 {fill:#122129}
    .fil19 {fill:#1F2A30}
    .fil11 {fill:#212121}
    .fil13 {fill:#263238}
    .fil14 {fill:#37474F}
    .fil10 {fill:#5E35B1}
    .fil12 {fill:#7E57C2}
    .fil16 {fill:#90A4AE}
    .fil9 {fill:#9575CD}
    .fil6 {fill:#992C0B}
    .fil5 {fill:#BF360C}
    .fil17 {fill:#ECEFF1}
    .fil4 {fill:#F4511E}
    .fil8 {fill:#F6C4AA}
    .fil1 {fill:#FDD835}
    .fil3 {fill:#FF7043}
    .fil18 {fill:#FF9800}
    .fil7 {fill:#FFDDCC}
    .fil0 {fill:#FFF176}
   ]]>
  </style>
   <clipPath id="id0">
    <path d="M3.41333 0c1.88513,0 3.41333,1.5282 3.41333,3.41333 0,1.88513 -1.5282,3.41333 -3.41333,3.41333 -1.88513,0 -3.41333,-1.5282 -3.41333,-3.41333 0,-1.88513 1.5282,-3.41333 3.41333,-3.41333z"/>
   </clipPath>
 </defs>
 <g id="Layer_x0020_1">
  <metadata id="CorelCorpID_0Corel-Layer"/>
  <path class="fil0" d="M3.41333 0c1.88513,0 3.41333,1.5282 3.41333,3.41333 0,1.88513 -1.5282,3.41333 -3.41333,3.41333 -1.88513,0 -3.41333,-1.5282 -3.41333,-3.41333 0,-1.88513 1.5282,-3.41333 3.41333,-3.41333z"/>
  <g style="clip-path:url(#id0)">
   <g id="_435560608">
    <g>
     <polygon id="_4315892321" class="fil1" points="5.25986,4.78057 9.04613,8.56684 9.04815,8.57663 5.26188,4.79036 "/>
     <polygon id="_431589136" class="fil1" points="5.26188,4.79036 9.04815,8.57663 9.04928,8.58215 9.05041,8.58765 9.05154,8.59315 9.05267,8.59865 9.0538,8.60414 9.05493,8.60962 9.05606,8.61509 9.05719,8.62056 9.05832,8.62602 9.05945,8.63147 9.06059,8.63691 9.06172,8.64234 9.06286,8.64776 9.06399,8.65317 9.06513,8.65858 9.06627,8.66397 5.28,4.8777 5.27886,4.87231 5.27772,4.8669 5.27659,4.86149 5.27545,4.85607 5.27432,4.85064 5.27319,4.8452 5.27206,4.83974 5.27092,4.83429 5.26979,4.82882 5.26866,4.82335 5.26753,4.81787 5.2664,4.81238 5.26527,4.80688 5.26414,4.80138 5.26301,4.79587 "/>
     <polygon id="_431592784" class="fil1" points="3.19878,2.88476 6.98505,6.67104 6.98007,6.67201 6.97503,6.67257 6.96994,6.67272 6.9648,6.67248 6.95962,6.67184 6.95442,6.67082 6.94919,6.66943 6.94396,6.66766 6.93872,6.66554 6.9335,6.66306 6.92829,6.66023 6.9231,6.65707 6.91794,6.65358 6.91283,6.64977 6.90777,6.64564 6.90277,6.64121 6.89784,6.63648 3.11157,2.85021 3.1165,2.85494 3.1215,2.85937 3.12657,2.8635 3.13168,2.86731 3.13683,2.8708 3.14202,2.87396 3.14723,2.87678 3.15246,2.87926 3.15769,2.88139 3.16293,2.88315 3.16815,2.88455 3.17335,2.88557 3.17853,2.88621 3.18367,2.88645 3.18876,2.8863 3.1938,2.88574 "/>
     <polygon id="_431592832" class="fil1" points="5.18904,4.8777 8.97531,8.66397 8.88319,8.66397 5.09692,4.8777 "/>
     <polygon id="_431593432" class="fil1" points="3.56469,3.42515 7.35096,7.21142 7.33839,7.20309 7.32602,7.19451 7.31385,7.1857 7.30189,7.17667 7.29015,7.16745 7.27863,7.15806 7.26733,7.14851 7.25626,7.13884 7.24541,7.12906 7.2348,7.1192 7.22443,7.10927 7.21431,7.0993 3.42804,3.31302 3.43817,3.323 3.44854,3.33293 3.45915,3.34279 3.46999,3.35257 3.48106,3.36224 3.49236,3.37178 3.50389,3.38118 3.51563,3.3904 3.52758,3.39943 3.53975,3.40824 3.55212,3.41682 "/>
     <polygon id="_431593216" class="fil1" points="3.51744,3.50083 7.30371,7.28711 7.30645,7.28994 7.30922,7.29273 3.52295,3.50646 3.52018,3.50367 "/>
     <polygon id="_431593480" class="fil1" points="4.8418,4.8777 8.62807,8.66397 8.49068,8.66397 4.70441,4.8777 "/>
     <polygon id="_431593816" class="fil1" points="4.70441,4.8777 8.49068,8.66397 8.46509,8.66397 4.67882,4.8777 "/>
     <polygon id="_431578432" class="fil1" points="4.67882,4.8777 8.46509,8.66397 8.44227,8.66397 4.656,4.8777 "/>
     <polygon id="_431578216" class="fil1" points="4.656,4.8777 8.44227,8.66397 8.37297,8.66397 4.5867,4.8777 "/>
     <polygon id="_431578336" class="fil1" points="4.5867,4.8777 8.37297,8.66397 8.21038,8.66397 4.42411,4.8777 "/>
     <polygon id="_431579056" class="fil1" points="4.42411,4.8777 8.21038,8.66397 8.11785,8.66397 4.33159,4.8777 "/>
     <polygon id="_431579224" class="fil1" points="4.33159,4.8777 8.11785,8.66397 7.95527,8.66397 4.169,4.8777 "/>
     <polygon id="_431579152" class="fil1" points="4.169,4.8777 7.95527,8.66397 7.86315,8.66397 4.07688,4.8777 "/>
     <polygon id="_431580136" class="fil1" points="2.9586,3.77135 6.74487,7.55763 6.74823,7.56091 2.96196,3.77463 "/>
     <polygon id="_431579464" class="fil1" points="3.9139,4.8777 7.70017,8.66397 7.65411,8.66397 3.86784,4.8777 "/>
     <polygon id="_431579752" class="fil1" points="3.86784,4.8777 7.65411,8.66397 7.60803,8.66397 3.82176,4.8777 "/>
     <polygon id="_431580472" class="fil1" points="3.82176,4.8777 7.60803,8.66397 7.44505,8.66397 3.65878,4.8777 "/>
     <polygon id="_431580400" class="fil1" points="3.65878,4.8777 7.44505,8.66397 7.35293,8.66397 3.56666,4.8777 "/>
     <polygon id="_431580328" class="fil1" points="3.56666,4.8777 7.35293,8.66397 7.29821,8.66397 3.51194,4.8777 "/>
     <polygon id="_431580760" class="fil1" points="3.51194,4.8777 7.29821,8.66397 7.29821,8.66908 3.51194,4.88281 "/>
     <polygon id="_431581264" class="fil1" points="3.51194,4.88281 7.29821,8.66908 7.29821,8.95272 3.51194,5.16645 "/>
     <polygon id="_431581384" class="fil1" points="2.07763,3.79665 5.8639,7.58293 5.86361,7.58293 2.07735,3.79665 "/>
     <polygon id="_431581408" class="fil1" points="3.48084,5.2408 7.26711,9.02707 7.26348,9.03053 7.2597,9.03381 7.25576,9.03691 7.25167,9.03983 7.24744,9.04255 7.24307,9.04507 7.23857,9.04739 7.23394,9.04948 7.22919,9.05137 7.22433,9.05302 7.21936,9.05443 7.21429,9.05561 7.20912,9.05654 7.20386,9.0572 7.19851,9.05761 7.19308,9.05775 3.40681,5.27148 3.41224,5.27134 3.41759,5.27093 3.42285,5.27026 3.42802,5.26933 3.43309,5.26816 3.43806,5.26674 3.44293,5.26509 3.44767,5.26321 3.4523,5.26111 3.4568,5.2588 3.46117,5.25628 3.4654,5.25356 3.46949,5.25064 3.47343,5.24754 3.47722,5.24426 "/>
     <polygon id="_431581000" class="fil1" points="1.95944,3.97093 5.74571,7.7572 5.74809,7.76018 5.74989,7.76358 5.75102,7.76733 5.75142,7.77136 1.96515,3.98509 1.96476,3.98106 1.96363,3.97731 1.96183,3.97391 "/>
     <polygon id="_431581672" class="fil1" points="1.65178,5.27148 5.43805,9.05775 5.43262,9.05761 5.42728,9.0572 5.42201,9.05654 5.41684,9.05561 5.41176,9.05443 5.40678,9.05302 5.40191,9.05137 5.39715,9.04948 5.3925,9.04739 5.38797,9.04507 5.38357,9.04255 5.3793,9.03983 5.37517,9.03691 5.37117,9.03381 1.58491,5.24754 1.5889,5.25064 1.59304,5.25356 1.5973,5.25628 1.6017,5.2588 1.60623,5.26111 1.61088,5.26321 1.61564,5.26509 1.62052,5.26674 1.6255,5.26816 1.63057,5.26933 1.63574,5.27026 1.64101,5.27093 1.64635,5.27134 "/>
     <polygon id="_431581072" class="fil1" points="1.96515,3.98509 5.75142,7.77136 5.75142,7.78946 1.96515,4.00319 "/>
     <polygon id="_431581720" class="fil1" points="3.40681,5.27148 7.19308,9.05775 5.43805,9.05775 1.65178,5.27148 "/>
     <polygon id="_431581864" class="fil1" points="3.51194,5.16645 7.29821,8.95272 7.29807,8.95814 7.29766,8.96348 7.29699,8.96874 7.29606,8.97391 7.29488,8.97898 7.29345,8.98395 7.29179,8.98882 7.28989,8.99358 7.28777,8.99822 7.28543,9.00275 7.28287,9.00715 7.28011,9.01141 7.27714,9.01555 7.27398,9.01954 7.27064,9.02338 7.26711,9.02707 3.48084,5.2408 3.48437,5.23711 3.48772,5.23326 3.49087,5.22928 3.49384,5.22514 3.4966,5.22087 3.49916,5.21648 3.5015,5.21195 3.50362,5.20731 3.50552,5.20255 3.50719,5.19768 3.50861,5.1927 3.5098,5.18763 3.51072,5.18246 3.51139,5.17721 3.5118,5.17187 "/>
     <polygon id="_431581816" class="fil1" points="2.96196,3.77463 6.74823,7.56091 6.75015,7.56296 2.96389,3.77669 "/>
     <polygon id="_431581696" class="fil1" points="4.07688,4.8777 7.86315,8.66397 7.70017,8.66397 3.9139,4.8777 "/>
     <polygon id="_431581936" class="fil1" points="4.93394,4.8777 8.72021,8.66397 8.62807,8.66397 4.8418,4.8777 "/>
     <polygon id="_431581768" class="fil1" points="5.09692,4.8777 8.88319,8.66397 8.72021,8.66397 4.93394,4.8777 "/>
     <polygon id="_431581984" class="fil1" points="5.28,4.8777 9.06627,8.66397 8.97531,8.66397 5.18904,4.8777 "/>
     <polygon id="_431582008" class="fil1" points="3.07494,2.35732 6.86121,6.14359 6.84587,6.12776 3.0596,2.34149 "/>
     <polygon id="_431582128" class="fil1" points="4.64121,1.87485 8.42748,5.66113 8.45053,5.68854 8.46998,5.71801 8.48567,5.74966 8.49738,5.78361 8.50496,5.81997 8.50822,5.85887 8.50697,5.90042 8.50104,5.94474 8.49023,5.99196 8.47437,6.04218 8.45328,6.09553 4.66701,2.30926 4.6881,2.25591 4.70396,2.20569 4.71477,2.15847 4.7207,2.11415 4.72195,2.0726 4.7187,2.0337 4.71111,1.99733 4.6994,1.96339 4.68372,1.93174 4.66426,1.90226 "/>
     <polygon id="_431582536" class="fil1" points="4.66701,2.30926 8.45328,6.09553 8.45281,6.09558 4.66655,2.30931 "/>
     <polygon id="_431582608" class="fil1" points="4.66655,2.30931 8.45281,6.09558 8.45179,6.10185 8.45063,6.1081 8.44935,6.11432 8.44794,6.12052 8.44641,6.1267 8.44474,6.13285 8.44295,6.13897 8.44104,6.14507 8.439,6.15115 8.43685,6.15719 8.43457,6.1632 8.43217,6.1692 8.42965,6.17516 8.427,6.18109 8.42424,6.18699 8.42137,6.19286 8.41837,6.1987 8.41526,6.20451 8.41204,6.21029 8.4087,6.21604 8.40524,6.22175 8.40167,6.22743 8.39799,6.23307 8.3942,6.23869 8.3903,6.24426 8.38629,6.24981 8.38217,6.25531 8.37794,6.26078 8.3736,6.26622 8.36915,6.27161 8.3646,6.27697 8.35995,6.28229 4.57368,2.49602 4.57833,2.4907 4.58289,2.48534 4.58733,2.47994 4.59167,2.47451 4.5959,2.46904 4.60002,2.46354 4.60403,2.45799 4.60793,2.45242 4.61172,2.4468 4.61541,2.44116 4.61897,2.43548 4.62243,2.42976 4.62577,2.42402 4.629,2.41824 4.63211,2.41243 4.6351,2.40659 4.63798,2.40072 4.64074,2.39481 4.64338,2.38889 4.6459,2.38293 4.6483,2.37693 4.65058,2.37092 4.65274,2.36487 4.65477,2.3588 4.65669,2.3527 4.65847,2.34658 4.66014,2.34043 4.66167,2.33425 4.66308,2.32805 4.66437,2.32183 4.66552,2.31558 "/>
     <polygon id="_431582512" class="fil1" points="4.57368,2.49602 8.35995,6.28229 8.35996,6.28755 8.35997,6.29276 8.35997,6.29792 8.35996,6.30302 8.35994,6.30807 8.35991,6.31307 8.35987,6.31801 8.35982,6.32289 8.35976,6.32771 8.3597,6.33247 8.35962,6.33717 8.35954,6.3418 8.35944,6.34636 8.35935,6.35086 8.35924,6.35528 8.35912,6.35964 4.57285,2.57337 4.57297,2.56901 4.57308,2.56459 4.57318,2.56009 4.57327,2.55553 4.57335,2.55089 4.57343,2.5462 4.57349,2.54144 4.57355,2.53662 4.5736,2.53174 4.57364,2.5268 4.57367,2.5218 4.57369,2.51675 4.5737,2.51165 4.5737,2.50648 4.5737,2.50128 "/>
     <polygon id="_431582560" class="fil1" points="4.6802,2.56663 8.46647,6.35291 8.47009,6.35702 8.47349,6.36146 8.47666,6.36621 8.47961,6.37128 8.48233,6.37663 8.48482,6.38227 8.48707,6.38818 8.48909,6.39434 8.49087,6.40075 8.49241,6.40739 8.49369,6.41424 8.49474,6.4213 8.49552,6.42856 8.49606,6.436 8.49634,6.44361 8.49635,6.45137 8.49611,6.45928 8.4956,6.46733 8.49483,6.47549 8.49378,6.48376 8.49245,6.49213 8.49085,6.50057 8.48898,6.50909 8.48681,6.51767 8.48437,6.52629 8.48164,6.53494 4.69537,2.74867 4.6981,2.74002 4.70055,2.73139 4.70271,2.72282 4.70459,2.7143 4.70619,2.70585 4.70751,2.69749 4.70856,2.68922 4.70933,2.68106 4.70984,2.67301 4.71009,2.6651 4.71007,2.65734 4.70979,2.64973 4.70926,2.64229 4.70847,2.63503 4.70743,2.62797 4.70614,2.62111 4.7046,2.61448 4.70283,2.60807 4.70081,2.60191 4.69856,2.596 4.69606,2.59036 4.69334,2.585 4.69039,2.57994 4.68722,2.57519 4.68382,2.57074 "/>
     <polygon id="_431582752" class="fil1" points="4.69537,2.74867 8.48164,6.53494 8.47869,6.54348 8.47553,6.55182 8.47217,6.55996 8.46861,6.56789 8.46488,6.57561 8.46098,6.58309 8.45691,6.59034 8.45269,6.59735 8.44833,6.6041 8.44383,6.61059 8.4392,6.61681 8.43447,6.62276 8.42963,6.62841 8.42469,6.63377 8.41966,6.63883 8.41456,6.64357 8.40938,6.64799 8.40415,6.65208 8.39887,6.65583 8.39355,6.65923 8.3882,6.66228 8.38283,6.66496 8.37745,6.66728 8.37207,6.66921 8.36669,6.67075 8.36133,6.67189 8.356,6.67262 8.3507,6.67294 8.34545,6.67283 8.34025,6.67229 8.33512,6.67131 8.33006,6.66988 4.54379,2.88361 4.54885,2.88504 4.55398,2.88602 4.55918,2.88656 4.56443,2.88667 4.56973,2.88635 4.57506,2.88561 4.58042,2.88448 4.5858,2.88294 4.59119,2.881 4.59657,2.87869 4.60194,2.87601 4.60728,2.87296 4.61261,2.86956 4.61789,2.86581 4.62311,2.86172 4.62829,2.8573 4.63339,2.85256 4.63842,2.8475 4.64336,2.84214 4.6482,2.83648 4.65294,2.83054 4.65756,2.82432 4.66206,2.81783 4.66642,2.81108 4.67064,2.80407 4.67471,2.79682 4.67861,2.78933 4.68235,2.78162 4.6859,2.77369 4.68926,2.76555 4.69242,2.7572 "/>
     <polygon id="_431582776" class="fil1" points="4.54379,2.88361 8.33006,6.66988 8.32927,6.66961 8.3285,6.66931 8.32773,6.66899 8.32698,6.66866 8.32623,6.66832 8.32548,6.66798 8.32473,6.66763 8.32398,6.66728 4.53771,2.88101 4.53846,2.88135 4.53921,2.8817 4.53996,2.88205 4.54071,2.88239 4.54146,2.88272 4.54223,2.88304 4.543,2.88333 "/>
     <polygon id="_431583064" class="fil1" points="4.53771,2.88101 8.32398,6.66728 8.32129,6.67947 8.31855,6.69145 8.31576,6.70324 8.31292,6.71481 8.31004,6.72617 8.30713,6.7373 8.3042,6.7482 8.30124,6.75886 8.29827,6.76927 8.29529,6.77942 8.2923,6.78931 8.28932,6.79894 8.28635,6.80828 8.28339,6.81734 8.28044,6.82611 8.27753,6.83458 8.27465,6.84274 8.2718,6.85058 8.269,6.85811 8.26624,6.8653 8.26354,6.87216 8.2609,6.87867 8.25833,6.88483 8.25583,6.89063 8.25341,6.89607 8.25107,6.90113 8.24881,6.90581 8.24666,6.9101 8.24461,6.91399 8.24267,6.91748 8.24083,6.92056 8.23912,6.92322 4.45285,3.13694 4.45456,3.13429 4.4564,3.13121 4.45834,3.12772 4.46039,3.12383 4.46255,3.11954 4.4648,3.11486 4.46714,3.1098 4.46956,3.10436 4.47206,3.09856 4.47463,3.0924 4.47727,3.08589 4.47997,3.07903 4.48273,3.07183 4.48553,3.06431 4.48838,3.05647 4.49126,3.04831 4.49418,3.03984 4.49712,3.03107 4.50008,3.02201 4.50305,3.01267 4.50604,3.00304 4.50902,2.99315 4.512,2.983 4.51497,2.97259 4.51793,2.96193 4.52087,2.95103 4.52378,2.9399 4.52665,2.92854 4.52949,2.91697 4.53228,2.90518 4.53502,2.8932 "/>
     <polygon id="_431582920" class="fil1" points="4.45285,3.13694 8.23912,6.92322 8.23447,6.93012 8.22958,6.93752 8.22445,6.94537 8.21907,6.95366 8.21345,6.96235 8.20757,6.97141 8.20144,6.98081 8.19506,6.99053 8.18841,7.00052 8.1815,7.01077 8.17432,7.02124 8.16687,7.03189 8.15916,7.04271 8.15117,7.05367 8.1429,7.06471 8.13435,7.07583 8.12552,7.087 8.11641,7.09817 8.107,7.10932 8.09731,7.12043 8.08732,7.13145 8.07704,7.14236 8.06645,7.15314 8.05556,7.16374 8.04437,7.17415 8.03287,7.18432 8.02106,7.19423 8.00894,7.20386 7.9965,7.21316 7.98374,7.22211 7.97065,7.23069 7.95725,7.23885 4.17098,3.45258 4.18439,3.44442 4.19747,3.43584 4.21023,3.42689 4.22267,3.41759 4.2348,3.40796 4.2466,3.39805 4.2581,3.38787 4.2693,3.37747 4.28018,3.36687 4.29077,3.35609 4.30105,3.34518 4.31104,3.33415 4.32074,3.32305 4.33014,3.3119 4.33925,3.30072 4.34808,3.28956 4.35663,3.27844 4.3649,3.26739 4.37289,3.25644 4.38061,3.24562 4.38805,3.23496 4.39523,3.2245 4.40214,3.21425 4.40879,3.20426 4.41518,3.19454 4.42131,3.18514 4.42719,3.17608 4.43281,3.16739 4.43819,3.1591 4.44331,3.15124 4.4482,3.14385 "/>
     <polygon id="_431582872" class="fil1" points="4.17098,3.45258 7.95725,7.23885 7.95725,7.32333 4.17098,3.53706 "/>
     <polygon id="_431583088" class="fil1" points="4.41251,3.48988 8.19878,7.27615 8.20509,7.28295 8.21102,7.2904 8.21654,7.2985 8.22166,7.30726 8.22636,7.31668 8.23065,7.32678 8.23451,7.33756 8.23793,7.34903 8.24093,7.3612 8.24347,7.37406 8.24557,7.38764 8.24721,7.40193 8.24839,7.41694 8.2491,7.43269 8.24934,7.44917 4.46307,3.6629 4.46283,3.64642 4.46212,3.63067 4.46094,3.61566 4.4593,3.60137 4.4572,3.58779 4.45466,3.57493 4.45167,3.56276 4.44824,3.55129 4.44438,3.54051 4.44009,3.53041 4.43539,3.52098 4.43028,3.51222 4.42475,3.50413 4.41883,3.49668 "/>
     <polygon id="_431583400" class="fil1" points="4.6947,3.65315 8.48096,7.43942 8.48787,7.44695 8.49393,7.45515 8.49915,7.46395 8.50352,7.47332 8.50705,7.4832 8.50976,7.49354 8.51165,7.50429 8.51272,7.51541 8.51298,7.52684 8.51243,7.53853 8.51109,7.55044 8.50896,7.56251 8.50605,7.57469 8.50236,7.58694 8.49789,7.59921 8.49266,7.61144 4.70639,3.82517 4.71163,3.81294 4.71609,3.80067 4.71978,3.78842 4.7227,3.77624 4.72483,3.76417 4.72617,3.75226 4.72671,3.74057 4.72645,3.72914 4.72538,3.71802 4.72349,3.70727 4.72078,3.69693 4.71725,3.68705 4.71288,3.67768 4.70767,3.66888 4.70161,3.66068 "/>
     <polygon id="_431583664" class="fil1" points="4.89178,3.88897 8.67804,7.67524 8.68343,7.68156 8.68819,7.68818 8.6923,7.69511 8.69572,7.70235 8.69843,7.7099 8.70038,7.71777 8.70155,7.72594 8.70189,7.73443 8.70138,7.74324 8.69998,7.75236 8.69767,7.76181 8.69439,7.77157 4.90813,3.9853 4.9114,3.97554 4.91372,3.96609 4.91511,3.95697 4.91562,3.94816 4.91528,3.93967 4.91411,3.9315 4.91216,3.92363 4.90945,3.91608 4.90603,3.90884 4.90192,3.90191 4.89716,3.89529 "/>
     <polygon id="_431583520" class="fil1" points="4.93394,4.0028 8.72021,7.78907 8.72021,7.78919 4.93394,4.00292 "/>
     <polygon id="_431583592" class="fil1" points="5.04783,4.09403 8.8341,7.8803 8.83813,7.88484 8.84211,7.8896 8.84604,7.8946 8.84994,7.89982 8.85379,7.90526 8.8576,7.91092 8.86137,7.91679 8.8651,7.92287 8.8688,7.92916 8.87245,7.93564 8.87607,7.94233 8.87964,7.9492 8.88319,7.95627 5.09692,4.17 5.09337,4.16293 5.0898,4.15606 5.08618,4.14937 5.08253,4.14289 5.07883,4.1366 5.0751,4.13052 5.07133,4.12465 5.06752,4.11899 5.06367,4.11355 5.05978,4.10833 5.05584,4.10333 5.05186,4.09857 "/>
     <polygon id="_431583448" class="fil1" points="5.09692,4.16959 8.88319,7.95587 8.88369,7.95692 8.8842,7.95799 8.8847,7.95909 8.8852,7.96019 8.8857,7.9613 8.8862,7.9624 8.8867,7.9635 8.8872,7.96458 5.10094,4.17831 5.10043,4.17722 5.09993,4.17613 5.09943,4.17502 5.09893,4.17392 5.09843,4.17281 5.09793,4.17172 5.09743,4.17065 "/>
     <polygon id="_431583832" class="fil1" points="5.10094,4.17831 8.8872,7.96458 8.89228,7.97559 5.10601,4.18931 "/>
     <polygon id="_431583760" class="fil1" points="5.10601,4.18931 8.89228,7.97559 8.89264,7.97632 5.10637,4.19005 "/>
     <polygon id="_431583856" class="fil1" points="5.10637,4.19005 8.89264,7.97632 8.89264,7.97643 5.10637,4.19016 "/>
     <polygon id="_431583928" class="fil1" points="5.10637,4.19016 8.89264,7.97643 8.89309,7.97744 5.10682,4.19117 "/>
     <polygon id="_428792768" class="fil1" points="5.10682,4.19117 8.89309,7.97744 8.8933,7.97789 5.10703,4.19162 "/>
     <polygon id="_428792816" class="fil1" points="5.10703,4.19162 8.8933,7.97789 8.89382,7.97867 5.10755,4.1924 "/>
     <polygon id="_428792888" class="fil1" points="5.10755,4.1924 8.89382,7.97867 8.89402,7.97946 5.10775,4.19319 "/>
     <polygon id="_428793272" class="fil1" points="5.10775,4.19319 8.89402,7.97946 8.89475,7.98105 5.10848,4.19478 "/>
     <polygon id="_428793128" class="fil1" points="5.10848,4.19478 8.89475,7.98105 8.895,7.98143 5.10873,4.19516 "/>
     <polygon id="_428792840" class="fil1" points="5.10873,4.19516 8.895,7.98143 8.89524,7.9821 5.10897,4.19583 "/>
     <polygon id="_428793296" class="fil1" points="5.10897,4.19583 8.89524,7.9821 8.89614,7.98411 5.10987,4.19784 "/>
     <polygon id="_428792960" class="fil1" points="5.10987,4.19784 8.89614,7.98411 8.89618,7.9842 5.10991,4.19793 "/>
     <polygon id="_428793152" class="fil1" points="5.10991,4.19793 8.89618,7.9842 8.89622,7.98429 5.10995,4.19802 "/>
     <polygon id="_428793080" class="fil1" points="5.10995,4.19802 8.89622,7.98429 8.8974,7.9872 5.11113,4.20093 "/>
     <polygon id="_428793200" class="fil1" points="5.11113,4.20093 8.8974,7.9872 8.89776,7.98774 5.1115,4.20146 "/>
     <polygon id="_428793608" class="fil1" points="5.1115,4.20146 8.89776,7.98774 8.89776,7.98803 5.1115,4.20176 "/>
     <polygon id="_428794016" class="fil1" points="5.1115,4.20176 8.89776,7.98803 8.899,7.99094 5.11274,4.20467 "/>
     <polygon id="_428793968" class="fil1" points="5.11307,4.205 8.89934,7.99128 8.89934,7.99174 5.11307,4.20546 "/>
     <polygon id="_428793632" class="fil1" points="5.11307,4.20546 8.89934,7.99174 8.89966,7.99256 5.11339,4.20628 "/>
     <polygon id="_428793488" class="fil1" points="5.11339,4.20628 8.89966,7.99256 8.90011,7.99324 5.11384,4.20697 "/>
     <polygon id="_428793560" class="fil1" points="5.11384,4.20697 8.90011,7.99324 8.90041,7.99437 5.11414,4.20809 "/>
     <polygon id="_428793800" class="fil1" points="5.11414,4.20809 8.90041,7.99437 8.9009,7.99559 5.11463,4.20931 "/>
     <polygon id="_428793944" class="fil1" points="5.11502,4.2097 8.90129,7.99598 8.90168,7.99751 5.11541,4.21124 "/>
     <polygon id="_428794040" class="fil1" points="5.11541,4.21124 8.90168,7.99751 8.90275,8.00012 5.11648,4.21385 "/>
     <polygon id="_428794064" class="fil1" points="5.11648,4.21385 8.90275,8.00012 8.90288,8.00032 5.11661,4.21405 "/>
     <polygon id="_428794256" class="fil1" points="5.11661,4.21405 8.90288,8.00032 8.90312,8.00104 5.11685,4.21477 "/>
     <polygon id="_428794544" class="fil1" points="5.11685,4.21477 8.90312,8.00104 8.90388,8.00291 5.11761,4.21663 "/>
     <polygon id="_428794304" class="fil1" points="5.11779,4.2168 8.90406,8.00307 8.90445,8.00425 5.11818,4.21798 "/>
     <polygon id="_428794448" class="fil1" points="5.11818,4.21798 8.90445,8.00425 8.90449,8.00442 5.11822,4.21815 "/>
     <polygon id="_428794472" class="fil1" points="5.11822,4.21815 8.90449,8.00442 8.90758,8.01207 5.12131,4.2258 "/>
     <polygon id="_428786624" class="fil1" points="5.12131,4.2258 8.90758,8.01207 8.90799,8.01292 5.12172,4.22665 "/>
     <polygon id="_428787248" class="fil1" points="5.12172,4.22665 8.90799,8.01292 8.90819,8.01366 5.12192,4.22739 "/>
     <polygon id="_428786672" class="fil1" points="5.12192,4.22739 8.90819,8.01366 8.90942,8.01694 5.12315,4.23067 "/>
     <polygon id="_428787032" class="fil1" points="5.12315,4.23067 8.90942,8.01694 8.90956,8.01723 5.1233,4.23096 "/>
     <polygon id="_428786984" class="fil1" points="5.1233,4.23096 8.90956,8.01723 8.90994,8.01835 5.12367,4.23208 "/>
     <polygon id="_428786888" class="fil1" points="5.12367,4.23208 8.90994,8.01835 8.91032,8.01935 5.12406,4.23308 "/>
     <polygon id="_428786576" class="fil1" points="5.12406,4.23308 8.91032,8.01935 8.91074,8.01998 5.12448,4.23371 "/>
     <polygon id="_428786912" class="fil1" points="5.12448,4.23371 8.91074,8.01998 8.91129,8.02195 5.12502,4.23568 "/>
     <polygon id="_428786696" class="fil1" points="5.12502,4.23568 8.91129,8.02195 8.91202,8.02387 5.12576,4.2376 "/>
     <polygon id="_428787008" class="fil1" points="5.12576,4.2376 8.91202,8.02387 8.91233,8.02431 5.12606,4.23804 "/>
     <polygon id="_428786744" class="fil1" points="5.12606,4.23804 8.91233,8.02431 8.91256,8.02528 5.12629,4.23901 "/>
     <polygon id="_428787800" class="fil1" points="5.12629,4.23901 8.91256,8.02528 8.91302,8.0265 5.12675,4.24023 "/>
     <polygon id="_428787848" class="fil1" points="5.12675,4.24023 8.91302,8.0265 8.9131,8.02667 5.12683,4.2404 "/>
     <polygon id="_428787680" class="fil1" points="5.12683,4.2404 8.9131,8.02667 8.91351,8.02747 5.12724,4.2412 "/>
     <polygon id="_428787512" class="fil1" points="5.12724,4.2412 8.91351,8.02747 8.91386,8.02873 5.12759,4.24246 "/>
     <polygon id="_428787536" class="fil1" points="5.12759,4.24246 8.91386,8.02873 8.91451,8.03045 5.12824,4.24418 "/>
     <polygon id="_428787392" class="fil1" points="5.12842,4.24433 8.91469,8.0306 8.91508,8.03178 5.12881,4.24551 "/>
     <polygon id="_428787296" class="fil1" points="5.12881,4.24551 8.91508,8.03178 8.91521,8.03226 5.12894,4.24599 "/>
     <polygon id="_428787656" class="fil1" points="5.12894,4.24599 8.91521,8.03226 8.91649,8.03589 5.13022,4.24962 "/>
     <polygon id="_428787824" class="fil1" points="5.13022,4.24962 8.91649,8.03589 8.91664,8.03612 5.13037,4.24985 "/>
     <polygon id="_428787944" class="fil1" points="5.13037,4.24985 8.91664,8.03612 8.91664,8.03631 5.13037,4.25004 "/>
     <polygon id="_428788400" class="fil1" points="5.13037,4.25004 8.91664,8.03631 8.91761,8.03903 5.13134,4.25276 "/>
     <polygon id="_428788784" class="fil1" points="5.13134,4.25276 8.91761,8.03903 8.91783,8.03927 5.13157,4.253 "/>
     <polygon id="_428788328" class="fil1" points="5.13157,4.253 8.91783,8.03927 8.91821,8.04074 5.13194,4.25447 "/>
     <polygon id="_428788232" class="fil1" points="5.13194,4.25447 8.91821,8.04074 8.91921,8.04358 5.13294,4.25731 "/>
     <polygon id="_428788304" class="fil1" points="5.13294,4.25731 8.91921,8.04358 8.91941,8.04397 5.13314,4.2577 "/>
     <polygon id="_428788136" class="fil1" points="5.13314,4.2577 8.91941,8.04397 8.9198,8.04515 5.13354,4.25888 "/>
     <polygon id="_428788568" class="fil1" points="5.13354,4.25888 8.9198,8.04515 8.91989,8.04549 5.13362,4.25922 "/>
     <polygon id="_428788616" class="fil1" points="5.13362,4.25922 8.91989,8.04549 8.92111,8.04896 5.13484,4.26269 "/>
     <polygon id="_428788664" class="fil1" points="5.13484,4.26269 8.92111,8.04896 8.92211,8.0518 5.13584,4.26552 "/>
     <polygon id="_428788688" class="fil1" points="5.13589,4.26558 8.92216,8.05185 8.92236,8.05256 5.13609,4.26628 "/>
     <polygon id="_428789072" class="fil1" points="5.13609,4.26628 8.92236,8.05256 8.92632,8.06427 5.14005,4.278 "/>
     <polygon id="_428788928" class="fil1" points="5.14005,4.278 8.92632,8.06427 8.92649,8.06445 5.14022,4.27818 "/>
     <polygon id="_428789552" class="fil1" points="5.14022,4.27818 8.92649,8.06445 8.92649,8.06479 5.14022,4.27852 "/>
     <polygon id="_428789000" class="fil1" points="5.14022,4.27852 8.92649,8.06479 8.92756,8.068 8.92862,8.07122 8.92968,8.07446 8.93074,8.07772 8.93179,8.081 8.93284,8.08429 8.93389,8.08759 8.93493,8.09091 8.93597,8.09425 8.93701,8.0976 8.93804,8.10097 8.93907,8.10435 8.9401,8.10775 8.94113,8.11116 8.94215,8.11459 8.94317,8.11803 5.15691,4.33176 5.15589,4.32832 5.15486,4.32489 5.15383,4.32148 5.15281,4.31808 5.15178,4.3147 5.15074,4.31133 5.1497,4.30798 5.14866,4.30464 5.14762,4.30132 5.14657,4.29802 5.14552,4.29473 5.14447,4.29145 5.14341,4.28819 5.14235,4.28495 5.14129,4.28172 "/>
     <polygon id="_428789336" class="fil1" points="5.15691,4.33176 8.94317,8.11803 8.94373,8.11996 5.15746,4.33369 "/>
     <polygon id="_428789312" class="fil1" points="5.15746,4.33369 8.94373,8.11996 8.94509,8.12459 8.94644,8.12925 8.94779,8.13393 8.94913,8.13864 8.95046,8.14337 8.9518,8.14812 8.95312,8.1529 8.95444,8.1577 8.95576,8.16252 8.95707,8.16736 8.95838,8.17223 8.95968,8.17712 8.96098,8.18203 8.96227,8.18696 8.96356,8.19191 8.96485,8.19688 5.17858,4.41061 5.1773,4.40564 5.176,4.40069 5.17471,4.39576 5.17341,4.39085 5.17211,4.38596 5.1708,4.38109 5.16949,4.37625 5.16818,4.37143 5.16685,4.36663 5.16553,4.36185 5.1642,4.3571 5.16286,4.35237 5.16152,4.34766 5.16017,4.34298 5.15882,4.33832 "/>
     <polygon id="_428789216" class="fil1" points="5.17858,4.41061 8.96485,8.19688 8.96514,8.19805 5.17887,4.41178 "/>
     <polygon id="_428789264" class="fil1" points="5.17887,4.41178 8.96514,8.19805 8.96625,8.20237 8.96735,8.20671 8.96846,8.21106 8.96956,8.21542 8.97065,8.21979 8.97174,8.22418 8.97283,8.22857 8.97392,8.23299 5.18765,4.44672 5.18657,4.4423 5.18548,4.43791 5.18438,4.43352 5.18329,4.42915 5.18219,4.42478 5.18109,4.42044 5.17998,4.4161 "/>
     <polygon id="_428789432" class="fil1" points="5.18765,4.44672 8.97392,8.23299 8.97413,8.23359 5.18786,4.44732 "/>
     <polygon id="_428789360" class="fil1" points="5.18786,4.44732 8.97413,8.23359 8.97413,8.23382 5.18786,4.44755 "/>
     <polygon id="_428790176" class="fil1" points="5.18786,4.44755 8.97413,8.23382 8.97428,8.23444 5.18802,4.44817 "/>
     <polygon id="_428789648" class="fil1" points="5.18802,4.44817 8.97428,8.23444 8.97452,8.23517 5.18825,4.4489 "/>
     <polygon id="_428789864" class="fil1" points="5.18825,4.4489 8.97452,8.23517 8.97493,8.23674 5.18866,4.45047 "/>
     <polygon id="_428789768" class="fil1" points="5.18866,4.45047 8.97493,8.23674 8.97493,8.23705 5.18866,4.45078 "/>
     <polygon id="_428790032" class="fil1" points="5.18866,4.45078 8.97493,8.23705 8.9773,8.24682 8.97965,8.25665 8.982,8.26654 8.98433,8.27648 8.98665,8.28646 8.98895,8.29651 8.99124,8.30659 8.99353,8.31672 8.9958,8.3269 8.99807,8.33711 9.00032,8.34736 9.00257,8.35764 9.0048,8.36796 9.00703,8.3783 9.00925,8.38867 9.01146,8.39907 9.01367,8.40949 9.01586,8.41993 9.01805,8.43039 9.02024,8.44086 9.02242,8.45135 9.02459,8.46184 9.02676,8.47234 9.02892,8.48285 9.03108,8.49337 9.03324,8.50388 9.03539,8.51439 9.03754,8.5249 9.03969,8.5354 9.04184,8.54589 9.04398,8.55637 9.04613,8.56684 5.25986,4.78057 5.25772,4.7701 5.25557,4.75962 5.25343,4.74913 5.25128,4.73863 5.24913,4.72812 5.24697,4.71761 5.24481,4.70709 5.24265,4.69658 5.24049,4.68607 5.23832,4.67557 5.23615,4.66507 5.23397,4.65459 5.23178,4.64411 5.22959,4.63366 5.2274,4.62322 5.22519,4.6128 5.22298,4.6024 5.22076,4.59203 5.21853,4.58169 5.2163,4.57137 5.21405,4.56109 5.2118,4.55084 5.20954,4.54063 5.20726,4.53045 5.20498,4.52032 5.20268,4.51024 5.20038,4.50019 5.19806,4.4902 5.19573,4.48026 5.19339,4.47038 5.19103,4.46055 "/>
    </g>
    <path id="_435560752" class="fil1" d="M5.25986 4.78057l0.00201969 0.00979134c0.00602362,0.0294094 0.0120512,0.0586102 0.018122,0.0873346l-0.0909606 0 -0.092122 0 -0.162976 0 -0.0921378 0 -0.13739 0 -0.0255906 0 -0.0228228 0 -0.0692953 0 -0.162591 0 -0.0925276 0 -0.162587 0 -0.092122 0 -0.16298 0 -0.0460551 0 -0.0460827 0 -0.162976 0 -0.092126 0 -0.0547165 0 0 0.00511024 0 0.283642c0,0.0291024 -0.011815,0.0550709 -0.0310984,0.0743543 -0.0189055,0.0188622 -0.044874,0.0306732 -0.0740276,0.0306732l-1.75504 0c-0.0291378,0 -0.055122,-0.011811 -0.0744134,-0.0306732 -0.0188937,-0.0192835 -0.0307047,-0.045252 -0.0307047,-0.0743543l0 -0.283642 0 -0.572772 0 -0.201803c0,-0.0291181 0.011811,-0.0550866 0.0307047,-0.0743583 0.0192913,-0.0188858 0.0452756,-0.030685 0.0744134,-0.030685l0.0771575 0 0 -0.0181024c0,-0.0110157 0.00905906,-0.0200433 0.0200748,-0.0200433l0.196449 0c0.0110315,0 0.019689,0.00902756 0.019689,0.0200433l0 0.0181024 0.0173268 0 0.0558976 0 0 -0.0892992c0,-0.0439331 0.0148701,-0.0843819 0.0392559,-0.117236l-0.000283465 0c0.00114567,-0.00151575 0.00238189,-0.00292126 0.00355118,-0.00437795 0.00161417,-0.00205512 0.00322441,-0.00407874 0.00491339,-0.00606693 0.00337008,-0.00393307 0.00683465,-0.00776772 0.010437,-0.0115748 0.0358268,-0.0354094 0.0850354,-0.0578228 0.139358,-0.0578228l0.58739 0c0.0539291,0 0.103531,0.0224134 0.138969,0.0578228l0.00192126 0.00205118c0.0350866,-0.0151575 0.0828937,-0.0233858 0.148051,-0.0273189 -0.0115157,-0.0938661 0.0252953,-0.136283 0.135453,-0.104961 -0.0102402,-0.158528 0.132669,-0.217547 0.270055,-0.143571 0.0145079,0.0152244 0.0304055,0.0286102 0.047248,0.0406181l0 -0.116307c-0.135185,-0.0873543 -0.236587,-0.222008 -0.281882,-0.288201 -0.0174449,-0.0258425 -0.0557559,-0.123091 -0.0840315,-0.252181 -0.0527244,0.0126457 -0.117657,-0.046815 -0.147055,-0.136094 -0.0303189,-0.0924449 -0.011811,-0.181354 0.0417283,-0.199055 0.022626,-0.00731496 0.0477835,-0.00065748 0.0716024,0.016311 0.000362205,-0.0192638 0.00126378,-0.038563 0.00269685,-0.0578504 -0.0437323,-0.0460945 -0.0755748,-0.0968504 -0.0928071,-0.150752 -0.176906,-0.150724 0.0707165,-0.897476 0.574776,-0.791972 0.59998,0.125496 1.27083,0.157756 1.01729,0.743906l-0.000464567 5.51181e-005c-0.010252,0.0670039 -0.0426535,0.130169 -0.0928661,0.186709 0.000110236,0.0281693 -0.000181102,0.054315 -0.000830709,0.0773465 0.0265748,-0.0223819 0.0554803,-0.0320551 0.0811693,-0.023752 0.0531457,0.0177008 0.0720512,0.10661 0.0413504,0.199055 -0.0303268,0.0920551 -0.0980354,0.152638 -0.151579,0.134937 -0.00212205,-0.000688976 -0.00407087,-0.00168504 -0.00607874,-0.00259449 -0.0283465,0.130972 -0.0672362,0.229835 -0.0848622,0.255933 -0.0482992,0.0709134 -0.137122,0.230858 -0.28187,0.315634l0 0.0844803c0.0361772,-0.0214606 0.0639921,-0.0456614 0.0795236,-0.0708465 0.130689,-0.0357992 0.212571,0.0169094 0.212571,0.196689 0.233374,-0.112248 0.303181,0.0321496 0.243319,0.162268 0.113177,0.0032126 0.24187,0.0542953 0.201732,0.160126 0.00904331,0.00603937 0.017752,0.0119252 0.025815,0.0175l0 0.000125984c0.0487047,0.0338504 0.079815,0.059748 0.101559,0.0789488 0.0222913,0.0196654 0.042626,0.0499409 0.0614173,0.0881299l0 -0.000405512c0.0013622,0.00276772 0.00267323,0.00585433 0.00401969,0.0087126l0.00507087 0.0110079 0.000362205 0.000732283 0 0.000110236 0.000448819 0.00101181 0.000212598 0.000448819 0.000519685 0.000783465 0.00019685 0.000791339 0.000732283 0.00158268 0.000251969 0.00038189 0.00023622 0.000673228 0.000901575 0.00201181 3.93701e-005 8.26772e-005 4.33071e-005 9.44882e-005 0.00117717 0.00290945 0.000366142 0.000535433 0 0.000295276 0.00124016 0.00290551 0.000334646 0.000338583 0 0.00046063 0.000322835 0.000818898 0.000448819 0.000688976 0.000295276 0.00112205 0.000492126 0.00122047 0.000393701 0.000389764 0.000389764 0.00153543 0.00106693 0.00261024 0.000129921 0.000200787 0.000240157 0.000716535 0.000759843 0.00186614 0.000181102 0.000165354 0.000389764 0.0011811 4.33071e-005 0.000169291 0.00309055 0.00765354 0.000405512 0.00084252 0.00019685 0.000744094 0.00123622 0.00327559 0.000141732 0.000291339 0.000377953 0.00112598 0.00038189 0.000996063 0.00042126 0.000629921 0.000547244 0.0019685 0.000732283 0.0019252 0.000307087 0.000433071 0.000224409 0.000972441 0.00046063 0.00122047 8.66142e-005 0.000169291 0.000409449 0.000799213 0.000350394 0.00126378 0.000645669 0.00171654 0.000181102 0.000153543 0.000393701 0.00117717 0.000125984 0.000480315 0.00127953 0.00363386 0.000153543 0.000228346 0 0.000192913 0.000968504 0.0027126 0.000224409 0.000240157 0.000377953 0.00147638 0.001 0.00283465 0.00019685 0.000393701 0.000393701 0.00117717 8.26772e-005 0.000338583 0.00122047 0.0034685 0.001 0.00283858 5.51181e-005 5.51181e-005 0.00019685 0.000704724 0.00396063 0.0117126 0.000169291 0.000185039 0 0.000334646c0.00570079,0.0170787 0.011248,0.0348465 0.016685,0.0532441l0.000559055 0.0019252c0.00725197,0.0246496 0.0142756,0.0503504 0.0211142,0.0769252l0.000295276 0.00116535c0.00296063,0.0115197 0.00588189,0.0231496 0.00877953,0.0349449l0.000208661 0.000602362 -3.93701e-006 0.000224409 0.00015748 0.00061811 0.00023622 0.000732283 0.000409449 0.0015748 0 0.00030315c0.0253386,0.103909 0.0483425,0.21822 0.0711969,0.329795z"/>
   </g>
  </g>
  <path class="fil2" d="M3.41333 0c1.88513,0 3.41333,1.5282 3.41333,3.41333 0,1.88513 -1.5282,3.41333 -3.41333,3.41333 -1.88513,0 -3.41333,-1.5282 -3.41333,-3.41333 0,-1.88513 1.5282,-3.41333 3.41333,-3.41333z"/>
  <path class="fil3" d="M3.58559 3.59739c-0.62415,0.27363 -0.811362,0.419504 -0.88539,0.484992 -0.114055,0.100925 -0.177138,0.477118 -0.244402,0.796531l1.4121 0 1.4121 0c-0.0672874,-0.319413 -0.130378,-0.695622 -0.244425,-0.796531 -0.0740079,-0.0654882 -0.254382,-0.207614 -0.878512,-0.48124l-0.571469 -0.00375197z"/>
  <path class="fil4" d="M3.14898 3.80231l0 1.0766 -0.0922598 0 0 -1.02834c0.0285354,-0.0153307 0.0592362,-0.0314055 0.0922598,-0.0482598zm0.43661 -0.204921l0 0 -0.0188386 0.00828346 0 1.27324 0.092252 0 0 -1.28104 -0.0734134 -0.000484252zm-0.181594 0.0815906l0 0c-0.0321772,0.0148543 -0.0629055,0.029248 -0.0922598,0.0432165l0 1.15672 0.0922598 0 0 -1.19993zm-0.510031 0.264567l0 0c-0.0363583,0.0222992 -0.0667008,0.0422126 -0.0922559,0.0599724l0 0.875394 0.0922559 0 0 -0.935366zm-0.25502 0.226752l0 0c-0.0352323,0.0715472 -0.0650551,0.17128 -0.092252,0.282933l0 0.425681 0.092252 0 0 -0.708614zm1.18283 0.708614l0 0 0.046126 0 0.046126 0 0 -1.27937 -0.092252 -0.000602362 0 1.27998zm0.255016 0l0 0 0.0922323 0 0 -1.2725 -0.0119606 -0.00526772 -0.0802717 -0.000535433 0 1.27831zm0.255016 0l0 0 0.092252 0 0 -1.15626c-0.0293622,-0.0139134 -0.0600827,-0.0282756 -0.092252,-0.0430827l0 1.19934zm0.255012 0l0 0 0.0922283 0 0 -1.02829c-0.0285079,-0.0152638 -0.0591575,-0.0312913 -0.0922283,-0.048126l0 1.07642zm0.255016 0l0 0 0.0922323 0 0 -0.875606c-0.0254843,-0.0177323 -0.0558268,-0.0376575 -0.0922323,-0.0599646l0 0.935571zm0.255016 0l0 0 0.0922323 0 0 -0.425642c-0.0271732,-0.111693 -0.057,-0.211417 -0.0922323,-0.282972l0 0.708614z"/>
  <path class="fil4" d="M2.63003 4.18927l2.47572 0c0.0124016,0.0275157 0.024122,0.0585079 0.0353031,0.0922323l-2.54631 0c0.0111772,-0.0337244 0.022878,-0.0647165 0.0352795,-0.0922323z"/>
  <path class="fil4" d="M2.54891 4.44427l2.63797 0c0.00737402,0.0299606 0.0145394,0.060811 0.021563,0.0922441l-2.68109 0c0.00702362,-0.0314331 0.014189,-0.0622835 0.021563,-0.0922441z"/>
  <path class="fil4" d="M2.49277 4.69929l2.75024 0c0.0063189,0.0307992 0.0126102,0.0616417 0.0188819,0.0922441l-2.788 0c0.00629134,-0.0306024 0.012563,-0.0614449 0.0188819,-0.0922441z"/>
  <path class="fil5" d="M2.63003 4.18927l0.00892126 0 0 0.0922323 -0.0442008 0 0.00368504 -0.0109685 7.48031e-005 -0.000165354 0.00145276 -0.00429528 4.72441e-005 -0.000177165 0.0026811 -0.00764961 0.000232283 -0.000645669 0.000307087 -0.000877953 0.00216142 -0.00601575 0.000535433 -0.00145276 0 -4.72441e-005 0.00150787 -0.0040748 0.00011811 -0.000389764 0.00138189 -0.00369291 0.000259843 -0.000716535 0.00053937 -0.00147244 0.000562992 -0.00145276 0.000145669 -0.000417323 0.000933071 -0.00248819 0.000566929 -0.00145276 2.75591e-005 -7.87402e-005 0.000511811 -0.00135039 0.000562992 -0.00144488 0.000444882 -0.00118898 9.44882e-005 -0.000251969 0.000566929 -0.00141732 0.00053937 -0.00141732 0.000354331 -0.000858268 0.000208661 -0.000566929 0.00053937 -0.00141732 0.000566929 -0.00141339 0.000208661 -0.000531496 0.000358268 -0.000877953 0.000559055 -0.00139764 0.000562992 -0.00139764 7.08661e-005 -0.000185039 0.000496063 -0.00119685 0.000559055 -0.00138583 0.000519685 -0.00126772 4.72441e-005 -0.000114173 0.000562992 -0.00136614 0.000559055 -0.00138189 0.000377953 -0.000940945 0.000188976 -0.000425197 0.000566929 -0.0013622 0.000559055 -0.00135039 0.000259843 -0.00061811 0.000307087 -0.000732283 0.000582677 -0.00135039 0.000566929 -0.00134646 0.00011811 -0.000307087 0.000440945 -0.00102362 0.000594488 -0.00133465 0.000559055 -0.00133071 0.000566929 -0.00131496 0.000582677 -0.00133071 0.000452756 -0.00102362 0.000114173 -0.000291339 0.000586614 -0.00130315 0.000586614 -0.00130315 0.000307087 -0.000708661 0.000259843 -0.000586614 0.000586614 -0.0012874zm0.171685 0l0 0 0.0922559 0 0 0.0922323 -0.0922559 0 0 -0.0922323zm0.255012 0l0 0 0.0922598 0 0 0.0922323 -0.0922598 0 0 -0.0922323zm0.255016 0l0 0 0.0922598 0 0 0.0922323 -0.0922598 0 0 -0.0922323zm0.255016 0l0 0 0.092252 0 0 0.0922323 -0.092252 0 0 -0.0922323zm0.25502 0l0 0 0.092252 0 0 0.0922323 -0.092252 0 0 -0.0922323zm0.255016 0l0 0 0.0922323 0 0 0.0922323 -0.0922323 0 0 -0.0922323zm0.255016 0l0 0 0.092252 0 0 0.0922323 -0.092252 0 0 -0.0922323zm0.255012 0l0 0 0.0922283 0 0 0.0922323 -0.0922283 0 0 -0.0922323zm0.255016 0l0 0 0.0922323 0 0 0.0922323 -0.0922323 0 0 -0.0922323zm0.255016 0l0 0 0.00890157 0 0.000586614 0.0012874 0.000279528 0.000586614 0.000307087 0.000708661 0.000566929 0.00130315 0.000586614 0.00130315 0.000141732 0.000307087 0.000425197 0.00100787 0.000586614 0.00133071 0.000582677 0.00131496 0.000559055 0.00133071 0.000566929 0.00133465 0.000448819 0.00102756 0.00011811 0.00030315 0.000586614 0.00134646 0.000566929 0.00135039 0.00030315 0.000732283 0.000255906 0.00061811 0.000582677 0.00135039 0.000566929 0.0013622 0.000165354 0.000429134 0.000401575 0.000937008 0.000559055 0.00138189 0.000566929 0.00136614 4.72441e-005 0.000122047 0.000515748 0.00125984 0.000559055 0.00138583 0.000480315 0.00119685 8.66142e-005 0.000185039 0.000566929 0.00139764 0.00053937 0.00139764 0.000354331 0.000905512 0.000208661 0.000503937 0.000566929 0.00141339 0.00053937 0.00141732 0.000232283 0.00057874 0.000334646 0.000846457 0.000559055 0.00141732 0.000543307 0.00141732 0.00011811 0.000259843 0.000440945 0.0011811 0.000547244 0.00144488 0.000507874 0.00135433 5.11811e-005 7.48031e-005 0.000535433 0.00145276 0.000940945 0.00248819 0.000165354 0.000417323 0.00053937 0.00145276 0.000543307 0.00147244 0.000279528 0.000720472 0.000279528 0.000744094 0.00108661 0.00294488 0.000141732 0.000401575 0.000393701 0.00107874 0.00053937 0.00150787 0.00053937 0.00147638 2.75591e-005 6.29921e-005 0.000515748 0.00143701 5.11811e-005 0.000122047 0.000933071 0.00259055 9.44882e-005 0.000287402 0.00108268 0.00301575 0.00030315 0.000877953 0.00023622 0.000645669 0.00053937 0.00152756 0.000519685 0.00151969 0.000181102 0.00053937 0.00144094 0.00406299 6.69291e-005 0.000200787 0.00146063 0.00427165 3.93701e-005 0.000165354 0.00108268 0.0031063 0.000326772 0.00105118 0.000704724 0.00208661 0.000543307 0.00156299 0.000212598 0.000692913 0.000307087 0.000893701 0.000519685 0.0015748 -0.044185 0 0 -0.0922323z"/>
  <path class="fil5" d="M2.54891 4.44427l0.0900433 0 0 0.0922441 -0.092252 0 0 -0.0832717 0 -1.5748e-005 0.000137795 -0.000511811 0.000354331 -0.00140945 0.000354331 -0.00141339 0.000326772 -0.00140945 0.00011811 -0.000464567 0.00023622 -0.000940945 0.000326772 -0.00140945 0.000354331 -0.00139764zm0.252807 0l0 0 0.0922559 0 0 0.0922441 -0.0922559 0 0 -0.0922441zm0.255012 0l0 0 0.0922598 0 0 0.0922441 -0.0922598 0 0 -0.0922441zm0.255016 0l0 0 0.0922598 0 0 0.0922441 -0.0922598 0 0 -0.0922441zm0.255016 0l0 0 0.092252 0 0 0.0922441 -0.092252 0 0 -0.0922441zm0.25502 0l0 0 0.092252 0 0 0.0922441 -0.092252 0 0 -0.0922441zm0.255016 0l0 0 0.0922323 0 0 0.0922441 -0.0922323 0 0 -0.0922441zm0.255016 0l0 0 0.092252 0 0 0.0922441 -0.092252 0 0 -0.0922441zm0.255012 0l0 0 0.0922283 0 0 0.0922441 -0.0922283 0 0 -0.0922441zm0.255016 0l0 0 0.0922323 0 0 0.0922441 -0.0922323 0 0 -0.0922441zm0.255016 0l0 0 0.0900236 0 0.000354331 0.00139764 0.000326772 0.00140945 0.000259843 0.000948819 9.44882e-005 0.000456693 0.000346457 0.00140945 0.000354331 0.00141339 0.000330709 0.00140945 0.000141732 0.000551181 0 0.083248 -0.0922323 0 0 -0.0922441z"/>
  <path class="fil5" d="M2.5467 4.69929l0.092252 0 0 0.0922441 -0.092252 0 0 -0.0922441zm0.255016 0l0 0 0.0922559 0 0 0.0922441 -0.0922559 0 0 -0.0922441zm0.255012 0l0 0 0.0922598 0 0 0.0922441 -0.0922598 0 0 -0.0922441zm0.255016 0l0 0 0.0922598 0 0 0.0922441 -0.0922598 0 0 -0.0922441zm0.255016 0l0 0 0.092252 0 0 0.0922441 -0.092252 0 0 -0.0922441zm0.25502 0l0 0 0.092252 0 0 0.0922441 -0.092252 0 0 -0.0922441zm0.255016 0l0 0 0.0922323 0 0 0.0922441 -0.0922323 0 0 -0.0922441zm0.255016 0l0 0 0.092252 0 0 0.0922441 -0.092252 0 0 -0.0922441zm0.255012 0l0 0 0.0922283 0 0 0.0922441 -0.0922283 0 0 -0.0922441zm0.255016 0l0 0 0.0922323 0 0 0.0922441 -0.0922323 0 0 -0.0922441zm0.255016 0l0 0 0.0922323 0 0 0.0922441 -0.0922323 0 0 -0.0922441z"/>
  <path class="fil6" d="M3.03127 4.87891l0.0483819 0c-0.00216142,-0.215051 -0.00218898,-0.370039 -0.00218898,-0.370039 0,0 -0.0214173,0.161067 -0.0461929,0.370039z"/>
  <path class="fil6" d="M4.70453 4.87891l-0.0483819 0c0.00216142,-0.215051 0.00216142,-0.370039 0.00216142,-0.370039 0,0 0.0214213,0.161067 0.0462205,0.370039z"/>
  <path class="fil7" d="M4.17094 3.05196l0 0.691846c-0.166685,0.204138 -0.439406,0.197075 -0.606091,0l0 -0.691846c0,-0.373563 0.606091,-0.373563 0.606091,0z"/>
  <path class="fil8" d="M4.17094 3.12038l0 0.463205c-0.114681,0.0835787 -0.225213,0.130429 -0.303043,0.130429 -0.0778346,0 -0.188386,-0.0468504 -0.303047,-0.130425l0 -0.463209c0,-0.373563 0.606091,-0.373563 0.606091,0z"/>
  <path class="fil9" d="M4.66696 2.30845l-0.263083 0.030685c0.0200866,0.203783 -0.150146,0.343669 -0.23422,0.343669l-0.608165 0c-0.0840591,0 -0.254291,-0.139886 -0.234224,-0.343669l-0.248787 0.0205472c-0.183976,-0.143764 0.0636969,-0.902201 0.571437,-0.795756 0.599685,0.125724 1.27083,0.157732 1.01704,0.744524z"/>
  <path class="fil10" d="M3.86506 2.75366c0.443378,0 0.805008,-0.220453 0.805008,-0.490752 0.0467795,-0.335173 -0.27411,-0.446988 -0.735594,-0.425866 -0.148362,0 -0.368949,-0.0501417 -0.509756,-0.0108071 -0.262197,0.0732598 -0.364665,0.256823 -0.364665,0.436673 0,0.270299 0.361634,0.490752 0.805008,0.490752z"/>
  <path class="fil7" d="M3.8679 1.91546c-1.01713,0 -0.65135,1.12341 -0.584909,1.22123 0.0677835,0.0998228 0.262803,0.354272 0.508764,0.36972 0.0270315,0.00169685 0.115618,-0.00308268 0.143173,-0.000472441 0.290677,0.0275433 0.447484,-0.265587 0.517878,-0.369248 0.0664449,-0.0978346 0.432201,-1.22123 -0.584906,-1.22123z"/>
  <path class="fil8" d="M3.54407 3.07836c0.216559,0.0556693 0.467929,0.0466417 0.652217,0 -0.0601378,0.19902 -0.53722,0.20385 -0.652217,0z"/>
  <path class="fil11" d="M3.2251 2.42072c0.00272835,-0.122516 0.132559,-0.351346 0.217673,-0.388618 0.0851142,-0.0372756 0.515622,0.00927165 0.737898,0.133122 0.240386,0.133909 0.340744,0.283091 0.335787,0.403894 -0.00349606,0.0847953 0.0325236,0.0327047 0.0558268,0.0252717 0.00488189,-0.126134 -0.00140945,-0.383469 -0.0354449,-0.497772 -0.0364528,-0.122449 -0.352031,-0.195571 -0.692492,-0.190988 -0.340484,0.0045748 -0.470362,0.0537677 -0.588827,0.124819 -0.0841535,0.0504685 -0.126736,0.573591 -0.051937,0.546083 0.0283071,-0.0104055 0.0199213,-0.0849055 0.0215157,-0.155811z"/>
  <path class="fil7" d="M3.09346 2.54905c0.0533583,-0.0175709 0.12128,0.0430039 0.151669,0.135315 0.0303937,0.0922992 0.0117677,0.181378 -0.0416181,0.198965 -0.0533583,0.0175827 -0.12128,-0.0429882 -0.151673,-0.135303 -0.0303898,-0.092315 -0.0117677,-0.18139 0.041622,-0.198976z"/>
  <path class="fil7" d="M4.654 2.54906c-0.0533858,-0.0175827 -0.121287,0.0429921 -0.151701,0.135303 -0.0303898,0.0922992 -0.0117677,0.181382 0.0416142,0.198965 0.0533858,0.0175827 0.121307,-0.0430039 0.151701,-0.135303 0.0303898,-0.092315 0.0117638,-0.181398 -0.0416142,-0.198965z"/>
  <path class="fil12" d="M3.23706 3.74678c-0.293043,0 -0.354079,0.0323189 -0.366295,0.204598 -0.012189,0.172291 0.0212638,0.393874 0.20439,0.62 0.183122,0.226138 0.0854724,-0.0323031 0.10989,-0.215354 0.0244331,-0.183051 0.0610433,0.258437 0.146512,0.0538425 0.0854409,-0.204594 -0.00905118,-0.156976 -0.0944961,-0.663087z"/>
  <path class="fil12" d="M4.69512 3.82551c0.133374,0 0.298134,0.0675472 0.180449,0.214917 -0.117669,0.14735 -0.180449,0.485039 -0.188295,0.626248 -0.00784646,0.141228 -0.0941339,0.239472 -0.0941339,0.122815 0,-0.116657 -0.10985,-0.386823 -0.141224,-0.270165 -0.031378,0.116665 -0.149067,0.233311 -0.133378,0.0122835 0.0156929,-0.221031 0.0784449,-0.828878 0.376583,-0.706098z"/>
  <path class="fil9" d="M4.67612 3.87556c-0.253894,0.275035 -1.02859,0.644346 -1.53635,-0.0115079 -0.0559882,-0.170488 -0.0402559,-0.261638 0.107831,-0.219331 -0.0105748,-0.158657 0.132508,-0.217811 0.270024,-0.143768 0.200972,0.211559 0.64839,0.102701 0.733008,-0.034811 0.130823,-0.0356063 0.212413,0.017126 0.212413,0.196961 0.264461,-0.126945 0.318846,0.0749409 0.213071,0.212457z"/>
  <path class="fil10" d="M4.58501 4.141l0 -0.0917913c0.0449331,-0.0599252 0.0954488,-0.102142 0.135378,-0.115055 -0.0286339,0.0238465 -0.0837795,0.104181 -0.135378,0.206846zm0 -0.129886l0 0c0.0506378,-0.0382795 0.0948819,-0.0941339 0.111795,-0.162465 -0.0211614,0.0396929 -0.0643071,0.0793701 -0.111795,0.114791l0 0.0476732zm0 -0.0476732l0 0 0 0.0476732c-0.0498622,0.0377008 -0.105921,0.0583425 -0.148197,0.0570394l0 -0.00960236c0.0394331,-0.0229764 0.0964094,-0.0565118 0.148197,-0.0951102zm0 0.0857677l0 0c-0.0729724,0.0972835 -0.131244,0.241232 -0.105689,0.382398 0.0201299,-0.0989724 0.0616063,-0.202937 0.105689,-0.290606l0 -0.0917913zm-0.148197 -0.365961l0 0 0 -0.00336614c0.00488189,-0.00375197 0.00962598,-0.0075 0.0142087,-0.0111969 -0.00458268,0.00484646 -0.00934646,0.00970866 -0.0142087,0.014563zm-1.25869 0.778835l0 0c-0.00934646,-0.0164094 -0.0182008,-0.0346614 -0.0265866,-0.0542598l0 0.0278425c0.00846063,0.00937402 0.0172874,0.0182283 0.0265866,0.0264173zm1.25869 -0.782201l0 0 0 0.00336614c-0.213941,0.213949 -0.703587,0.42948 -1.13189,-0.000484252 0.43687,0.354319 0.924024,0.157264 1.13189,-0.00288189zm0 0.378669l0 0 -0.014185 0.00827559c0.00450394,0.000748031 0.00927559,0.00118504 0.014185,0.00132677l0 -0.00960236zm-1.28528 -0.120465l0 0 0 -0.0575591c0.0384016,0.0517717 0.0952402,0.105327 0.130118,0.133232 -0.0470197,-0.00284252 -0.0994173,-0.0304252 -0.130118,-0.0756732zm0 0.469736l0 0c-0.0789843,-0.184622 -0.114701,-0.490555 -0.0880472,-0.538531 -0.0822992,0.0630079 -0.0615591,0.400642 0.0880472,0.566374l0 -0.0278425zm0 -0.527295l0 0 0 0.0575591c-0.0183189,-0.0269882 -0.0289331,-0.0602323 -0.0261378,-0.0982795 0.00685827,0.0130906 0.0158307,0.0268543 0.0261378,0.0407205z"/>
  <path class="fil13" d="M2.23561 3.71719l0.587272 0c0.054248,0 0.103543,0.0221654 0.139252,0.057874 0.0357087,0.0357087 0.057874,0.0850039 0.057874,0.139256l0 0.108445 -0.981528 0 0 -0.108445c0,-0.054252 0.0221654,-0.103547 0.057874,-0.139256 0.0357087,-0.0357087 0.0850039,-0.057874 0.139256,-0.057874z"/>
  <path class="fil14" d="M3.02001 4.00377l0.19539 0 0.191512 0c0.0288937,0 0.0551339,0.0117913 0.074126,0.0307874 0.0189961,0.0189921 0.0307874,0.0452323 0.0307874,0.074122l0 1.05934c0,0.0288937 -0.0117913,0.0551299 -0.0307874,0.074126 -0.0189921,0.0189961 -0.0452323,0.0307835 -0.074126,0.0307835l-1.75533 0c-0.0288898,0 -0.0551299,-0.0117874 -0.074126,-0.0307835 -0.0189921,-0.0189961 -0.0307835,-0.0452323 -0.0307835,-0.074126l0 -1.05934c0,-0.0288898 0.0117913,-0.0551299 0.0307835,-0.074122 0.0189961,-0.0189961 0.0452362,-0.0307874 0.074126,-0.0307874l0.330976 0 0.0559291 0 0.981528 0z"/>
  <polygon class="fil15" points="3.51182,4.31097 3.51182,4.88414 1.54667,4.88414 1.54667,4.31097 "/>
  <path class="fil13" d="M2.52924 4.08564c0.146969,0 0.280031,0.0595748 0.376343,0.15589 0.0963189,0.0963189 0.155894,0.229378 0.155894,0.376346 0,0.146965 -0.0595748,0.280028 -0.155894,0.376343 -0.096311,0.096315 -0.229374,0.155894 -0.376343,0.155894 -0.146969,0 -0.280028,-0.0595787 -0.376343,-0.155894 -0.0963189,-0.096315 -0.155894,-0.229378 -0.155894,-0.376343 0,-0.146969 0.0595748,-0.280028 0.155894,-0.376346 0.096315,-0.096315 0.229374,-0.15589 0.376343,-0.15589z"/>
  <path class="fil16" d="M2.8477 4.29943c-0.0814921,-0.0814921 -0.194087,-0.131902 -0.318453,-0.131902 -0.124366,0 -0.236957,0.0504094 -0.318449,0.131902 -0.0814961,0.0814921 -0.131906,0.194087 -0.131906,0.318453 0,0.124366 0.0504094,0.236957 0.131906,0.318449 0.0814921,0.0814921 0.194083,0.131902 0.318449,0.131902 0.124366,0 0.236961,-0.0504094 0.318453,-0.131902 0.0814921,-0.0814921 0.131902,-0.194083 0.131902,-0.318449 0,-0.124366 -0.0504094,-0.236961 -0.131902,-0.318453z"/>
  <path class="fil17" d="M2.66951 4.38234c0.0378189,0.0452992 -0.143028,0.0111496 -0.253756,0.103598 -0.110732,0.0924449 -0.109417,0.276484 -0.147236,0.231181 -0.0378189,-0.0452992 -0.047189,-0.238984 0.0635394,-0.331429 0.110732,-0.0924488 0.299634,-0.0486496 0.337453,-0.00335039z"/>
  <path class="fil11" d="M1.74907 3.96536l0.196217 0c0.0110197,0 0.0200354,0.00901969 0.0200354,0.0200394l0 0.0200354 -0.236291 0 0 -0.0200354c0,-0.0110197 0.00901969,-0.0200394 0.0200394,-0.0200394z"/>
  <path class="fil18" d="M3.32758 4.09791c0.0271535,0 0.0491614,0.0220079 0.0491614,0.0491575 0,0.0271535 -0.0220079,0.0491614 -0.0491614,0.0491614 -0.0271496,0 -0.0491614,-0.0220079 -0.0491614,-0.0491614 0,-0.0271496 0.0220118,-0.0491575 0.0491614,-0.0491575z"/>
  <path class="fil19" d="M2.23561 3.71719l0.587272 0c0.054248,0 0.103543,0.0221654 0.139252,0.057874 0.00682677,0.00682677 0.0131575,0.0141496 0.0189331,0.0219094l-0.903642 0c0.00577559,-0.00775984 0.0121024,-0.0150827 0.0189291,-0.0219094 0.0357087,-0.0357087 0.0850039,-0.057874 0.139256,-0.057874z"/>
 </g>
</svg>
