<?xml version="1.0" encoding="utf-8"?>
<!-- Generator: Adobe Illustrator 23.0.6, SVG Export Plug-In . SVG Version: 6.00 Build 0)  -->
<svg version="1.1" id="Layer_1" xmlns="http://www.w3.org/2000/svg" xmlns:xlink="http://www.w3.org/1999/xlink" x="0px" y="0px"
	 viewBox="0 0 128 128" style="enable-background:new 0 0 128 128;" xml:space="preserve">
<style type="text/css">
	.st0{fill:#318FB5;}
	.st1{fill:#EABFA2;}
	.st2{fill:#80BFBE;}
	.st3{fill:#B8D8D3;}
	.st4{fill:#005086;}
	.st5{fill:#F7D6BF;}
	.st6{fill:#172956;}
</style>
<title>WORK</title>
<g>
	<g>
		<path class="st0" d="M98.5,79.7v15.6H77.4l-2.8-30.3c-0.1-1.6-1.5-2.8-3-2.8H55c2.7-1.4,5.7-2.1,8.8-2.1h15.2
			C89.7,60.2,98.5,68.9,98.5,79.7C98.5,79.7,98.5,79.7,98.5,79.7z"/>
		<ellipse class="st1" cx="71.3" cy="42.4" rx="17.8" ry="17.8"/>
		<path class="st2" d="M77.4,95.3H33.3c-1.9,0-3.5-1.5-3.7-3.4l-2.4-26.3c-0.2-1.7,1.1-3.2,2.8-3.3c0.1,0,0.2,0,0.3,0h41.3
			c1.6,0,2.9,1.2,3,2.8L77.4,95.3z"/>
		<path class="st3" d="M77.4,95.3h6.9c2.1,0,3.9-1.5,4.3-3.6l0.6-3.5H76.7L77.4,95.3z"/>
		<path class="st4" d="M26.4,95.3h75.7c1.8,0,3.2,1.4,3.2,3.2v0c0,1.8-1.4,3.2-3.2,3.2H26.4c-1.8,0-3.2-1.4-3.2-3.2v0
			C23.3,96.7,24.7,95.3,26.4,95.3z"/>
		<circle class="st5" cx="52.3" cy="78.8" r="3.5"/>
	</g>
	<path class="st6" d="M26.6,77.9l-0.2-1.7c-0.1-1,0.6-1.8,1.6-1.9c1-0.1,1.8,0.6,1.9,1.6l0.2,1.7c0.1,1-0.6,1.8-1.6,1.9
		C27.5,79.6,26.7,78.9,26.6,77.9z M107.1,98.5c0,2.7-2.2,5-4.9,5c0,0,0,0,0,0H26.4c-2.7-0.1-4.9-2.3-4.9-5c0.1-2.7,2.2-4.8,4.9-4.9
		h1.8c-0.2-0.5-0.3-0.9-0.4-1.4l-0.6-6.7c-0.1-1,0.6-1.8,1.6-1.9c0.9-0.1,1.8,0.6,1.9,1.5c0,0.1,0.6,6.6,0.6,6.7
		c0.1,1,0.9,1.8,2,1.8h42.1l-2.6-28.4c-0.1-0.7-0.6-1.2-1.3-1.2H30.2c-0.8,0-1.4,0.7-1.3,1.4l0.3,3.3c0.1,1-0.6,1.8-1.6,1.9
		c0,0,0,0,0,0c-1,0.1-1.8-0.6-1.9-1.6l-0.3-3.3c-0.3-2.8,2-5.3,4.8-5.3h24.3c1.9-0.9,3.9-1.5,6-1.8c-9-6-11.5-18.1-5.5-27.1
		S73.1,20,82.1,26s11.5,18.1,5.5,27.1c-1.5,2.2-3.4,4.1-5.6,5.6c10.4,1.6,18.1,10.5,18.1,21.1v13.8h1.9
		C104.9,93.6,107.1,95.8,107.1,98.5z M87,90h-8.3l0.3,3.6h5.3c1.2,0,2.3-0.9,2.5-2.1L87,90z M78.9,61.9h-4c0.7,0.7,1.3,1.8,1.4,3
		l2,21.6h10.8c1.1,0,1.9,1,1.7,2L90.2,92c-0.1,0.5-0.3,1.1-0.5,1.6h7V79.7C96.7,69.9,88.8,61.9,78.9,61.9z M71.3,58.4
		c8.9,0,16.1-7.2,16.1-16C87.4,31,75.8,23,65,27.6c-8.2,3.5-11.9,12.9-8.5,21.1C59.1,54.6,64.9,58.4,71.3,58.4L71.3,58.4z
		 M103.6,98.5c0-0.8-0.6-1.5-1.4-1.5c-0.1,0-75.7,0-75.8,0c-0.8,0-1.4,0.7-1.4,1.5c0,0.8,0.6,1.4,1.4,1.4h75.7
		C103,100,103.6,99.3,103.6,98.5z"/>
</g>
</svg>
