<svg id="Layer_1" data-name="Layer 1" xmlns="http://www.w3.org/2000/svg" viewBox="0 0 512 512"><title>electric-plug</title><path d="M0,256C0,114.61,114.61,0,256,0S512,114.63,512,256,397.38,512,256,512,0,397.39,0,256Z" fill="#009d00"/><path d="M164.47,211.48a5.93,5.93,0,0,0-5.92,5.92v69.8c0,3,.16,8.07.35,11.32a52,52,0,0,0,1.25,7.94A60.12,60.12,0,0,0,193,346.91c7.73,3.64,19.62,5,19.62,5,3.24.37,8.55.67,11.8.67h63.12l7.83,0,.94,0a60,60,0,0,0,54.87-43.59,59,59,0,0,0,1.83-10.4c.23-3.25.41-7.42.41-9.28V217.4a5.93,5.93,0,0,0-5.92-5.92H164.47Z" fill="#fff"/><rect x="218.99" y="335.5" width="74.03" height="59.48" fill="#fff"/><path d="M226.89,239.6a12.57,12.57,0,0,1-12.58,12.58h0a12.58,12.58,0,0,1-12.58-12.58v-110A12.58,12.58,0,0,1,214.32,117h0a12.57,12.57,0,0,1,12.58,12.58Z" fill="#fff"/><path d="M310.26,241.08a12.57,12.57,0,0,1-12.57,12.58h0a12.58,12.58,0,0,1-12.58-12.58v-110a12.58,12.58,0,0,1,12.58-12.58h0a12.57,12.57,0,0,1,12.57,12.58Z" fill="#fff"/></svg>