<svg width="190" height="115" viewBox="0 0 190 115" fill="none" xmlns="http://www.w3.org/2000/svg">
<path d="M142.804 68.0404C142.243 68.8239 140.481 68.6814 138.878 67.711C137.267 66.7496 136.412 65.334 136.973 64.5506C137.534 63.7672 139.288 63.9096 140.899 64.8711C142.51 65.8415 143.356 67.257 142.804 68.0404Z" fill="#717FE0"/>
<path d="M140.056 70.9167C139.504 70.2312 140.287 68.7089 141.818 67.5249C143.341 66.3408 145.032 65.9402 145.584 66.6257C146.145 67.3112 145.353 68.8335 143.821 70.0176C142.299 71.2016 140.608 71.6022 140.056 70.9167Z" fill="#717FE0"/>
<path d="M142.975 68.1897C142.085 68.5903 140.794 67.5309 140.091 65.8305C139.388 64.1301 139.539 62.4209 140.429 62.0202C141.319 61.6196 142.61 62.679 143.314 64.3794C144.017 66.0798 143.866 67.7891 142.975 68.1897Z" fill="#5662B2"/>
<path d="M145.524 66.2137C145.559 66.5075 145.283 66.8013 144.918 66.8636C144.553 66.9348 144.233 66.7479 144.197 66.4541C144.17 66.1603 144.438 65.8665 144.803 65.8042C145.168 65.733 145.488 65.92 145.524 66.2137Z" fill="#5662B2"/>
<path d="M143.012 71.8497C142.994 71.8497 142.968 71.8408 142.95 71.823C142.923 71.7962 142.932 71.7517 142.959 71.725C143.724 71.0929 144.107 68.6981 144.116 68.5023C144.116 68.4578 144.152 68.4311 144.196 68.4311C144.232 68.4222 144.267 68.4578 144.267 68.4934C144.258 68.5201 143.938 71.1018 143.057 71.8319C143.045 71.8378 143.03 71.8437 143.012 71.8497Z" fill="#999999"/>
<path d="M144.334 71.7351C144.307 71.744 144.28 71.744 144.262 71.7262C144.227 71.7084 144.227 71.6639 144.253 71.6283C144.85 70.836 144.672 68.4234 144.636 68.2275C144.627 68.183 144.654 68.1474 144.699 68.1385C144.734 68.1207 144.77 68.1474 144.779 68.183C144.788 68.2097 145.055 70.7914 144.36 71.7084C144.354 71.7203 144.345 71.7292 144.334 71.7351Z" fill="#999999"/>
<path d="M56.6641 110.574V88.7804L63.7966 84.0254L69.3442 88.7804L75.288 84.0254L79.6468 88.7804L84.7981 84.0254L90.742 88.7804L95.8933 84.0254L101.441 88.7804L106.592 84.0254L111.743 88.7804L117.687 84.0254L122.839 88.7804V110.574H56.6641Z" fill="white" stroke="#939393" stroke-width="1.5"/>
<path d="M167.929 31H120L124.689 35.5849V58H157.51C160.844 54.7396 158.899 51.2075 157.51 49.8491H153.342C148.341 44.9585 151.258 41.0189 153.342 39.6604H167.929C171.68 35.9925 169.492 32.3585 167.929 31Z" fill="#E6E6E6"/>
<path d="M20.3384 44H57V83H9.52951C3.13723 76.6096 6.86606 71.253 9.52951 69.3735H28.3303C35.8507 64.1108 31.4638 58.4096 28.3303 56.2169H20.3384C15.0742 50.9542 18.145 45.8795 20.3384 44Z" fill="#E6E6E6"/>
<path d="M5 113H33.9266" stroke="#939393" stroke-width="1.50808" stroke-linecap="round"/>
<path d="M131.406 113H140.124" stroke="#939393" stroke-width="1.50808" stroke-linecap="round"/>
<path d="M134 109H168.078" stroke="#939393" stroke-width="1.51" stroke-linecap="round"/>
<path d="M143.293 113H188.466" stroke="#939393" stroke-width="1.50808" stroke-linecap="round"/>
<path d="M37.8867 113H127.44" stroke="#939393" stroke-width="1.50808" stroke-linecap="round"/>
<path d="M53.4922 2L57.851 17.0577" stroke="#717FE0" stroke-width="2.15439" stroke-linecap="round"/>
<path d="M43.1953 7.83594L53.603 19.5583" stroke="#717FE0" stroke-width="2.15439" stroke-linecap="round"/>
<path d="M36.8516 17.3359L51.4304 23.097" stroke="#717FE0" stroke-width="2.15439" stroke-linecap="round"/>
<path d="M64.1951 78.4756L57.0625 82.4382V23H112.934L124.03 34.4914V83.2307L117.293 78.4756L112.142 83.2307L106.594 78.4756L101.047 83.2307L95.8954 78.4756L90.7441 83.2307L85.9891 78.4756L80.4415 83.2307L75.2902 78.4756L69.3464 83.2307L64.1951 78.4756Z" fill="white" stroke="#939393" stroke-width="1.5"/>
<circle cx="75.2894" cy="46.7757" r="2.77378" fill="#B5B5B5"/>
<circle cx="106.2" cy="46.7757" r="2.77378" fill="#B5B5B5"/>
<path d="M81.625 66.193C84.3988 63.023 91.8484 58.5849 99.4565 66.193" stroke="#B5B5B5" stroke-width="1.6158" stroke-linecap="round"/>
<path d="M112.141 34.8876V23L124.028 34.8876H112.141Z" fill="#B5B5B5"/>
<path d="M135.488 94.7206L135.229 95.0298L133.859 96.6682L132.657 95.6636L132.479 95.516L132.301 95.3684L130.082 93.5131L129.904 93.3655L129.726 93.214L127.783 91.5884L127.605 91.4408L127.427 91.2893C127.481 91.2371 127.536 91.1837 127.59 91.1289C127.833 90.8837 128.067 90.6268 128.293 90.3582C128.516 90.09 128.726 89.8149 128.922 89.5328C128.969 89.4687 129.014 89.405 129.056 89.3417L129.233 89.4893L129.412 89.6408L131.359 91.2657L131.536 91.4133L131.715 91.5648L133.933 93.4162L134.111 93.5638L134.289 93.7114L135.179 94.461L135.488 94.7206Z" fill="#C4C4C4"/>
<path d="M135.39 94.3318L134.445 93.5403L134.266 93.3888L134.089 93.2412L131.856 91.3764L131.677 91.225L131.5 91.0774L129.548 89.4493L129.37 89.2978L129.192 89.1502C129.15 89.2134 129.108 89.2782 129.064 89.3444C129.022 89.4077 128.977 89.4714 128.93 89.5355L129.112 89.6824L129.29 89.8339L131.233 91.4557L131.41 91.6033L131.589 91.7547L133.793 93.5966L133.971 93.7442L134.145 93.8925L135.095 94.6872L135.17 94.7495L135.108 94.8283L133.837 96.3456L132.812 95.4886L132.634 95.341L132.457 95.1934L130.251 93.3476L130.073 93.2L129.896 93.0524L127.953 91.4268L127.775 91.2792L127.597 91.1316C127.543 91.1864 127.489 91.2398 127.435 91.292C127.378 91.3473 127.321 91.4012 127.264 91.4539L127.443 91.6053L127.624 91.7522L129.572 93.381L129.75 93.5325L129.928 93.6801L132.161 95.5488L132.339 95.6964L132.517 95.844L133.897 96.9962L135.417 95.1756L135.821 94.6932L135.39 94.3318Z" fill="#939393"/>
<path d="M142.843 106.349L132.1 97.3722C131.725 97.0565 131.673 96.4923 131.991 96.1128L134.621 92.963C134.94 92.5835 135.501 92.5352 135.88 92.8502L146.619 101.828C147.508 102.569 147.624 103.891 146.885 104.776L145.788 106.087C145.05 106.971 143.728 107.091 142.843 106.349Z" fill="#B5B5B5"/>
<path fill-rule="evenodd" clip-rule="evenodd" d="M144.595 107.029C143.942 107.145 143.24 106.983 142.693 106.527L131.954 97.5496C131.48 97.152 131.418 96.4421 131.815 95.965L134.444 92.8152C134.846 92.3412 135.555 92.2746 136.033 92.6754L146.772 101.653C147.245 102.051 147.539 102.608 147.594 103.227C147.649 103.847 147.461 104.446 147.064 104.923L145.967 106.234C145.602 106.67 145.112 106.936 144.595 107.029ZM135.194 92.8848C135.043 92.9116 134.905 92.988 134.8 93.1104L132.166 96.2609C131.933 96.5414 131.972 96.9607 132.253 97.1936L142.992 106.171C143.371 106.49 143.857 106.642 144.351 106.598C144.845 106.554 145.293 106.319 145.612 105.939L146.708 104.628C147.365 103.842 147.263 102.665 146.472 102.005L135.733 93.0276C135.578 92.8959 135.379 92.8517 135.194 92.8848Z" fill="#939393"/>
<path fill-rule="evenodd" clip-rule="evenodd" d="M131.682 91.225C131.638 91.2887 131.593 91.3524 131.549 91.4161C131.504 91.4798 131.46 91.5422 131.415 91.6033C131.213 91.8837 130.999 92.1582 130.773 92.4268C130.549 92.6924 130.318 92.9502 130.078 93.2C130.027 93.2569 129.973 93.313 129.917 93.3682C129.863 93.423 129.809 93.4778 129.755 93.5325C124.203 98.992 115.309 99.4499 109.21 94.3543C102.721 88.9296 101.861 79.2749 107.281 72.7871C112.707 66.3025 122.361 65.4382 128.845 70.8635C134.945 75.9592 136.074 84.7971 131.682 91.225ZM126.783 73.3305C121.667 69.0556 114.028 69.7361 109.753 74.8524C105.478 79.9686 106.159 87.6078 111.275 91.8827C113.752 93.955 116.887 94.9379 120.106 94.647C122.816 94.4069 125.313 93.2846 127.269 91.4539C127.326 91.4012 127.383 91.3473 127.439 91.2921C127.494 91.2399 127.548 91.1864 127.602 91.1316C127.845 90.8864 128.08 90.6295 128.305 90.3609C128.528 90.0927 128.738 89.8176 128.935 89.5355C128.982 89.4714 129.026 89.4077 129.068 89.3445C129.112 89.2782 129.155 89.2135 129.197 89.1502C132.448 84.1009 131.507 77.281 126.783 73.3305Z" fill="#E6E6E6"/>
<path fill-rule="evenodd" clip-rule="evenodd" d="M134.5 81.2223C134.679 83.2301 134.477 85.2262 133.887 87.1479C133.428 88.66 132.743 90.0727 131.856 91.3742C131.812 91.4379 131.767 91.5016 131.723 91.5653C131.678 91.6264 131.633 91.6888 131.589 91.7525C131.383 92.0308 131.169 92.304 130.946 92.5722C130.723 92.8378 130.491 93.0955 130.251 93.3454C130.2 93.4023 130.147 93.4584 130.09 93.5136C130.036 93.5684 129.982 93.6231 129.928 93.6779C128.807 94.786 127.537 95.7056 126.128 96.4308C124.752 97.1381 123.29 97.6298 121.769 97.901C121.319 97.9813 120.865 98.0423 120.407 98.0839C118.396 98.2633 116.403 98.0568 114.482 97.471C112.493 96.8614 110.667 95.8722 109.057 94.5259C107.447 93.1835 106.15 91.5622 105.199 89.7119C104.283 87.9232 103.724 85.999 103.545 83.9872C103.366 81.9794 103.572 79.9827 104.158 78.0616C104.764 76.0733 105.757 74.247 107.099 72.6373C108.446 71.0269 110.067 69.73 111.918 68.7826C113.706 67.8623 115.63 67.3042 117.642 67.1249C119.65 66.9462 121.643 67.1527 123.567 67.7378C125.556 68.3474 127.382 69.3366 128.989 70.6836C130.598 72.0261 131.895 73.6473 132.846 75.4976C133.767 77.2856 134.321 79.2106 134.5 81.2223ZM128.693 71.0351C125.603 68.4545 121.692 67.2276 117.681 67.5881C117.233 67.6279 116.791 67.6868 116.354 67.7648C112.871 68.3856 109.75 70.1888 107.455 72.9364C102.122 79.3129 102.976 88.8413 109.353 94.1744C112.91 97.1456 117.439 98.1947 121.679 97.439C124.582 96.9215 127.351 95.5556 129.572 93.3789C129.626 93.3241 129.68 93.2693 129.734 93.2145C129.788 93.1598 129.842 93.105 129.896 93.0502C130.136 92.8004 130.367 92.5426 130.591 92.277C130.814 92.0088 131.028 91.7343 131.233 91.4535C131.278 91.3924 131.322 91.3299 131.367 91.2663C131.411 91.2026 131.456 91.1389 131.5 91.0752C133.457 88.2005 134.356 84.7697 134.042 81.2642C133.681 77.253 131.783 73.6196 128.693 71.0351Z" fill="#939393"/>
<path fill-rule="evenodd" clip-rule="evenodd" d="M129.377 89.2889C129.336 89.3547 129.293 89.4194 129.248 89.4831C129.207 89.5464 129.163 89.6098 129.119 89.6735C128.92 89.956 128.709 90.2314 128.485 90.4995C128.26 90.7682 128.025 91.0251 127.782 91.2703C127.728 91.325 127.674 91.3798 127.62 91.4346C127.563 91.4872 127.507 91.5412 127.45 91.5964C122.972 95.7968 115.957 96.091 111.13 92.0515C105.906 87.6881 105.214 79.9156 109.578 74.6958C113.942 69.476 121.71 68.7806 126.934 73.1439C131.765 77.1828 132.717 84.136 129.377 89.2889ZM126.786 73.3216C121.67 69.0467 114.031 69.7271 109.756 74.8434C105.481 79.9597 106.161 87.5988 111.277 91.8738C113.754 93.946 116.889 94.9289 120.108 94.638C122.818 94.398 125.315 93.2756 127.272 91.4449C127.329 91.3923 127.385 91.3384 127.442 91.2831C127.496 91.2309 127.551 91.1774 127.605 91.1227C127.848 90.8775 128.082 90.6206 128.308 90.352C128.531 90.0838 128.741 89.8087 128.938 89.5266C128.985 89.4625 129.029 89.3988 129.071 89.3355C129.115 89.2693 129.158 89.2045 129.199 89.1413C132.451 84.092 131.51 77.2721 126.786 73.3216Z" fill="#FCFCFC"/>
<path fill-rule="evenodd" clip-rule="evenodd" d="M131.53 81.482C131.785 84.3208 131.089 87.0942 129.555 89.4431C129.513 89.5063 129.471 89.5711 129.427 89.6373C129.385 89.7006 129.342 89.764 129.297 89.8277C129.097 90.1077 128.885 90.382 128.659 90.6506C128.436 90.9188 128.203 91.1754 127.96 91.4206C127.906 91.478 127.852 91.5327 127.798 91.5849C127.741 91.6402 127.686 91.6939 127.631 91.7461C125.858 93.4206 123.661 94.5254 121.255 94.9541C120.89 95.0193 120.52 95.0692 120.147 95.104C116.809 95.4001 113.553 94.3831 110.982 92.2319C108.408 90.0814 106.825 87.057 106.529 83.7196C106.228 80.379 107.249 77.1215 109.4 74.551C111.55 71.9766 114.576 70.3976 117.912 70.0976C121.254 69.8008 124.507 70.8185 127.081 72.969C129.651 75.1202 131.234 78.1446 131.53 81.482ZM127.271 91.4477C127.328 91.3951 127.385 91.3411 127.442 91.2859C127.496 91.2337 127.55 91.1802 127.604 91.1254C127.847 90.8802 128.082 90.6233 128.308 90.3547C128.531 90.0865 128.741 89.8114 128.937 89.5294C128.984 89.4652 129.029 89.4015 129.071 89.3383C129.114 89.272 129.157 89.2073 129.199 89.144C132.45 84.0947 131.51 77.2748 126.786 73.3244C121.669 69.0494 114.03 69.7299 109.755 74.8462C105.48 79.9625 106.161 87.6016 111.277 91.8765C113.754 93.9488 116.889 94.9317 120.108 94.6408C122.818 94.4007 125.315 93.2784 127.271 91.4477Z" fill="#616161"/>
<path fill-rule="evenodd" clip-rule="evenodd" d="M131.53 81.482C131.785 84.3208 131.089 87.0942 129.555 89.4431C129.513 89.5063 129.471 89.5711 129.427 89.6373C129.385 89.7006 129.342 89.764 129.297 89.8277C129.097 90.1077 128.885 90.382 128.659 90.6506C128.436 90.9188 128.203 91.1754 127.96 91.4206C127.906 91.478 127.852 91.5327 127.798 91.5849C127.741 91.6402 127.686 91.6939 127.631 91.7461C125.858 93.4206 123.661 94.5254 121.255 94.9541C120.89 95.0193 120.52 95.0692 120.147 95.104C116.809 95.4001 113.553 94.3831 110.982 92.2319C108.408 90.0814 106.825 87.057 106.529 83.7196C106.228 80.379 107.249 77.1215 109.4 74.551C111.55 71.9766 114.576 70.3976 117.912 70.0976C121.254 69.8008 124.507 70.8185 127.081 72.969C129.651 75.1202 131.234 78.1446 131.53 81.482ZM127.271 91.4477C127.328 91.3951 127.385 91.3411 127.442 91.2859C127.496 91.2337 127.55 91.1802 127.604 91.1254C127.847 90.8802 128.082 90.6233 128.308 90.3547C128.531 90.0865 128.741 89.8114 128.937 89.5294C128.984 89.4652 129.029 89.4015 129.071 89.3383C129.114 89.272 129.157 89.2073 129.199 89.144C132.45 84.0947 131.51 77.2748 126.786 73.3244C121.669 69.0494 114.03 69.7299 109.755 74.8462C105.48 79.9625 106.161 87.6016 111.277 91.8765C113.754 93.9488 116.889 94.9317 120.108 94.6408C122.818 94.4007 125.315 93.2784 127.271 91.4477Z" fill="#939393"/>
<path d="M144.268 102.167C144.156 102.187 144.036 102.161 143.942 102.082L135.241 95.0358C135.068 94.8953 135.043 94.6408 135.183 94.4684C135.323 94.2921 135.578 94.2666 135.75 94.4072L144.452 101.453C144.624 101.594 144.649 101.848 144.51 102.024C144.447 102.099 144.361 102.151 144.268 102.167Z" fill="#E6E6E6"/>
<path d="M106.641 76.285C106.58 76.296 106.514 76.2839 106.453 76.2549C106.307 76.1772 106.256 75.9992 106.33 75.8546C107.051 74.4949 107.983 73.2651 109.104 72.2008C110.204 71.1484 111.46 70.2831 112.833 69.628C115.692 68.2579 118.843 67.8755 121.953 68.5201C122.115 68.5551 122.215 68.7126 122.183 68.8696C122.148 69.0312 121.995 69.1342 121.834 69.0992C115.869 67.8638 109.707 70.7548 106.853 76.1318C106.808 76.2154 106.73 76.2692 106.641 76.285Z" fill="white"/>
<path d="M105.305 80.0325C105.269 80.0389 105.232 80.0389 105.194 80.0325C105.036 79.9969 104.932 79.8401 104.964 79.683C105.134 78.8719 105.37 78.0729 105.673 77.3099C105.733 77.1557 105.903 77.0816 106.053 77.1425C106.207 77.2026 106.281 77.3727 106.221 77.5268C105.934 78.2593 105.704 79.0254 105.543 79.8029C105.517 79.9231 105.421 80.0119 105.305 80.0325Z" fill="white"/>
</svg>
