<svg id="_01-Next" data-name="01-Next" xmlns="http://www.w3.org/2000/svg" viewBox="0 0 64 64"><polygon points="1 1 21 32 1 63 1 56 16 32 1 9 1 1" style="fill:#1c69a1"/><polygon points="27 1 47 32 27 63 27 56 42 32 27 9 27 1" style="fill:#fa5f07"/><polygon points="16 1 37 32 18 63 1 63 21 32 1 1 16 1" style="fill:#2483c6"/><polygon points="42 1 63 32 44 63 27 63 47 32 27 1 42 1" style="fill:#fab503"/><polygon points="1 1 1 9 16 32 21 32 1 1" style="fill:#2483c6"/><polygon points="27 1 27 9 42 32 47 32 27 1" style="fill:#fd9c04"/><polygon points="1 1 21 32 37 32 16 1 1 1" style="fill:#6bdcff"/><polygon points="27 1 47 32 63 32 42 1 27 1" style="fill:#ffdb02"/><line x1="8.097" y1="12" x2="6.806" y2="10" style="fill:none;stroke:#000;stroke-linejoin:round;stroke-width:2px"/><polyline points="22.29 56 18 63 1 63 21 32 9.387 14" style="fill:none;stroke:#000;stroke-linejoin:round;stroke-width:2px"/><polyline points="5.516 8 1 1 16 1 37 32 23.516 54" style="fill:none;stroke:#000;stroke-linejoin:round;stroke-width:2px"/><polyline points="1 1 1 9 16 32 1 56 1 63" style="fill:none;stroke:#000;stroke-linejoin:round;stroke-width:2px"/><line x1="34.097" y1="12" x2="32.806" y2="10" style="fill:none;stroke:#000;stroke-linejoin:round;stroke-width:2px"/><polyline points="48.29 56 44 63 27 63 47 32 35.387 14" style="fill:none;stroke:#000;stroke-linejoin:round;stroke-width:2px"/><polyline points="31.516 8 27 1 42 1 63 32 49.516 54" style="fill:none;stroke:#000;stroke-linejoin:round;stroke-width:2px"/><polyline points="27 1 27 9 42 32 27 56 27 63" style="fill:none;stroke:#000;stroke-linejoin:round;stroke-width:2px"/></svg>