<?xml version="1.0" encoding="utf-8"?>
<!-- Generator: Adobe Illustrator 22.0.1, SVG Export Plug-In . SVG Version: 6.00 Build 0)  -->
<svg version="1.1" id="Layer_1" xmlns="http://www.w3.org/2000/svg" xmlns:xlink="http://www.w3.org/1999/xlink" x="0px" y="0px"
	 viewBox="0 0 256 256" style="enable-background:new 0 0 256 256;" xml:space="preserve">
<style type="text/css">
	.st0{fill:#3A312A;}
	.st1{fill:#D6DF58;}
	.st2{fill:#87796F;}
	.st3{fill:#B9C239;}
	.st4{fill:#EF6D7A;}
	.st5{fill:#FCE8CB;}
	.st6{fill:#D5DE58;}
	.st7{fill:#D34E5C;}
	.st8{fill:#695B51;}
	.st9{fill:#8AC6DD;}
	.st10{fill:#D7E057;}
	.st11{fill:#B8C136;}
	.st12{fill:#F16C7A;}
	.st13{fill:#8AC2D9;}
	.st14{fill:#F7E3C7;}
	.st15{fill:#8AC3DA;}
	.st16{fill:#6DA3BC;}
	.st17{fill:#6A5C52;}
	.st18{fill:#D5DC57;}
	.st19{fill:#F6E2C6;}
	.st20{fill:#DBC7AA;}
	.st21{fill:#CE4E61;}
	.st22{fill:#FAE6CA;}
	.st23{fill:#8AC5DC;}
	.st24{fill:#DDC9AC;}
	.st25{fill:#DECAAD;}
	.st26{fill:#6CA6BE;}
	.st27{fill:#F8E4C8;}
	.st28{fill:#89C4DB;}
	.st29{fill:#ED6E7A;}
	.st30{fill:#D24E5C;}
	.st31{fill:#6DA4BD;}
	.st32{fill:#EB6E7A;}
	.st33{fill:#68A7BB;}
	.st34{fill:#B9BC37;}
	.st35{fill:#CC4E61;}
	.st36{fill:#6CA8BF;}
	.st37{fill-rule:evenodd;clip-rule:evenodd;fill:#D5DE58;}
	.st38{fill:#EA6D7A;}
	.st39{fill:#F4E0C4;}
	.st40{fill-rule:evenodd;clip-rule:evenodd;fill:#D6DF58;}
	.st41{fill-rule:evenodd;clip-rule:evenodd;fill:#F16C7A;}
	.st42{fill:#F3DEC3;}
	.st43{fill-rule:evenodd;clip-rule:evenodd;fill:#FAE6CA;}
	.st44{fill:#F59689;}
	.st45{fill-rule:evenodd;clip-rule:evenodd;fill:#F8E4C8;}
	.st46{fill-rule:evenodd;clip-rule:evenodd;fill:#FCE8CB;}
	.st47{fill:#F5978A;}
	.st48{fill:#D4DB56;}
	.st49{fill-rule:evenodd;clip-rule:evenodd;fill:#D4DA55;}
	.st50{fill-rule:evenodd;clip-rule:evenodd;fill:#EB6E7A;}
	.st51{fill:#68A6B9;}
	.st52{fill-rule:evenodd;clip-rule:evenodd;fill:#D5DC57;}
	.st53{fill:#8AC1D8;}
	.st54{fill:#F5E1C5;}
	.st55{fill:#D4D752;}
	.st56{fill:#D3D751;}
	.st57{fill:#D4D853;}
	.st58{fill:#E96C7A;}
	.st59{fill:#D4DA55;}
	.st60{fill:#8BC0D7;}
	.st61{fill:#87796F;stroke:#3A312A;stroke-width:3;stroke-linecap:round;stroke-linejoin:round;stroke-miterlimit:10;}
</style>
<g>
	<g>
		<g>
			<rect x="117.52" y="49.5" class="st2" width="20.96" height="169.02"/>
		</g>
	</g>
	<g>
		<g>
			<path class="st0" d="M138.48,82.41c0.829,0,1.5-0.671,1.5-1.5V49.5c0-0.829-0.671-1.5-1.5-1.5h-20.96c-0.829,0-1.5,0.671-1.5,1.5
				v169.02c0,0.829,0.671,1.5,1.5,1.5h20.96c0.829,0,1.5-0.671,1.5-1.5V95.09c0-0.829-0.671-1.5-1.5-1.5s-1.5,0.671-1.5,1.5v121.93
				h-17.96V51h17.96v29.91C136.98,81.738,137.651,82.41,138.48,82.41z"/>
		</g>
	</g>
	<g>
		<g>
			<path class="st2" d="M228.768,28.536H78.527h-13.72H27.232c-5.789,0-10.482,4.693-10.482,10.482
				c0,5.789,4.693,10.482,10.482,10.482h201.536c5.789,0,10.482-4.693,10.482-10.482C239.25,33.229,234.557,28.536,228.768,28.536z"
				/>
		</g>
	</g>
	<g>
		<g>
			<path class="st0" d="M228.768,27.037H78.526c-0.829,0-1.5,0.671-1.5,1.5c0,0.829,0.671,1.5,1.5,1.5h150.242
				c4.953,0,8.982,4.029,8.982,8.982c0,4.953-4.029,8.982-8.982,8.982H27.232c-4.953,0-8.982-4.029-8.982-8.982
				c0-4.952,4.029-8.982,8.982-8.982h37.575c0.829,0,1.5-0.671,1.5-1.5c0-0.829-0.671-1.5-1.5-1.5H27.232
				c-6.607,0-11.982,5.375-11.982,11.982C15.25,45.625,20.625,51,27.232,51h201.536c6.607,0,11.982-5.375,11.982-11.982
				C240.75,32.412,235.375,27.037,228.768,27.037z"/>
		</g>
	</g>
	<g>
		<g>
			<path class="st2" d="M185.911,218.518H70.089c-11.578,0-20.964,9.386-20.964,20.964h157.75
				C206.875,227.904,197.489,218.518,185.911,218.518z"/>
		</g>
	</g>
	<g>
		<g>
			<path class="st0" d="M185.912,217.018H70.088c-12.386,0-22.463,10.077-22.463,22.464c0,0.829,0.671,1.5,1.5,1.5h157.75
				c0.829,0,1.5-0.671,1.5-1.5C208.375,227.095,198.298,217.018,185.912,217.018z M50.682,237.982
				c0.768-10.035,9.179-17.964,19.406-17.964h115.823c10.228,0,18.638,7.929,19.406,17.964H50.682z"/>
		</g>
	</g>
	<g>
		<g>
			<path class="st4" d="M17.16,141.128v1.936c0,23.417,18.983,42.4,42.4,42.4h3.872c23.417,0,42.4-18.983,42.4-42.4v-1.936H17.16z"
				/>
		</g>
	</g>
	<g>
		<g>
			<path class="st0" d="M105.832,139.627H17.16c-0.829,0-1.5,0.671-1.5,1.5v1.936c0,24.207,19.693,43.9,43.9,43.9h3.872
				c24.207,0,43.9-19.693,43.9-43.9v-1.936C107.332,140.299,106.661,139.627,105.832,139.627z M104.332,143.063
				c0,22.552-18.348,40.9-40.9,40.9H59.56c-22.552,0-40.9-18.348-40.9-40.9v-0.436h85.672V143.063z"/>
		</g>
	</g>
	<g>
		<g>
			<path class="st0" d="M107.185,140.48L63.342,48.852c-0.248-0.519-0.771-0.85-1.347-0.852c-0.567-0.029-1.102,0.325-1.354,0.841
				l-44.829,91.628c-0.228,0.465-0.199,1.014,0.075,1.453c0.274,0.439,0.755,0.706,1.273,0.706h88.672
				c0.515,0,0.995-0.265,1.269-0.7C107.376,141.491,107.408,140.945,107.185,140.48z M19.564,139.627l42.41-86.684l41.478,86.684
				H19.564z"/>
		</g>
	</g>
	<g>
		<g>
			<path class="st4" d="M150.168,141.128v1.936c0,23.417,18.983,42.4,42.4,42.4h3.872c23.417,0,42.4-18.983,42.4-42.4v-1.936
				H150.168z"/>
		</g>
	</g>
	<g>
		<g>
			<path class="st0" d="M238.84,139.627h-88.672c-0.829,0-1.5,0.671-1.5,1.5v1.936c0,24.207,19.693,43.9,43.9,43.9h3.872
				c24.207,0,43.9-19.693,43.9-43.9v-1.936C240.34,140.299,239.669,139.627,238.84,139.627z M237.34,143.063
				c0,22.552-18.348,40.9-40.9,40.9h-3.872c-22.552,0-40.9-18.348-40.9-40.9v-0.436h85.672V143.063z"/>
		</g>
	</g>
	<g>
		<g>
			<path class="st0" d="M240.193,140.48L196.35,48.852c-0.248-0.519-0.772-0.85-1.347-0.852h-0.006
				c-0.573,0-1.096,0.326-1.347,0.841l-44.829,91.628c-0.228,0.465-0.199,1.014,0.075,1.453c0.274,0.439,0.755,0.706,1.273,0.706
				h88.672c0.515,0,0.995-0.265,1.269-0.7C240.384,141.491,240.415,140.945,240.193,140.48z M152.572,139.627l42.41-86.684
				l41.478,86.684H152.572z"/>
		</g>
	</g>
	<g>
		<g>
			<circle class="st6" cx="128" cy="39.018" r="22.5"/>
		</g>
	</g>
	<g>
		<g>
			<path class="st0" d="M128,15.018c-13.233,0-24,10.767-24,24s10.767,24,24,24s24-10.767,24-24S141.233,15.018,128,15.018z
				 M128,60.018c-11.58,0-21-9.42-21-21s9.42-21,21-21s21,9.42,21,21S139.58,60.018,128,60.018z"/>
		</g>
	</g>
	<g>
		<g>
			
				<ellipse transform="matrix(0.9239 -0.3827 0.3827 0.9239 -5.1882 51.9536)" class="st42" cx="128" cy="39.018" rx="9.464" ry="9.464"/>
		</g>
	</g>
	<g>
		<g>
			<path class="st0" d="M128,28.055c-6.045,0-10.963,4.918-10.963,10.963S121.955,49.982,128,49.982s10.963-4.918,10.963-10.964
				S134.045,28.055,128,28.055z M128,46.982c-4.391,0-7.963-3.573-7.963-7.964c0-4.391,3.572-7.963,7.963-7.963
				s7.963,3.572,7.963,7.963C135.963,43.409,132.391,46.982,128,46.982z"/>
		</g>
	</g>
	<g>
		<g>
			<path class="st17" d="M228.77,30.04h-22c4.95,0,8.98,4.03,8.98,8.98c0,4.95-4.03,8.98-8.98,8.98h22c4.95,0,8.98-4.03,8.98-8.98
				C237.75,34.07,233.72,30.04,228.77,30.04z"/>
		</g>
	</g>
	<g>
		<g>
			<path class="st17" d="M185.91,220.02h-22c10.23,0,18.64,7.93,19.41,17.96h22C204.55,227.95,196.14,220.02,185.91,220.02z"/>
		</g>
	</g>
	<g>
		<g>
			<path class="st7" d="M215.34,142.63v0.43c0,19.44-13.63,35.75-31.83,39.89c2.91,0.66,5.95,1.01,9.06,1.01h3.87
				c22.55,0,40.9-18.34,40.9-40.9v-0.43H215.34z"/>
		</g>
	</g>
</g>
</svg>
