<?xml version="1.0" encoding="utf-8"?>
<!-- Generator: Adobe Illustrator 24.0.0, SVG Export Plug-In . SVG Version: 6.00 Build 0)  -->
<svg version="1.1" id="Layer_1" xmlns="http://www.w3.org/2000/svg" xmlns:xlink="http://www.w3.org/1999/xlink" x="0px" y="0px"
	 viewBox="0 0 256 256" style="enable-background:new 0 0 256 256;" xml:space="preserve">
<style type="text/css">
	.st0{fill:#FFB69F;}
	.st1{fill:#72C2E9;}
	.st2{fill:#C2E5FF;}
	.st3{fill:#FC5D3D;}
	.st4{fill:#AFAFAF;}
	.st5{fill:#FFCBC3;}
	.st6{fill:#F0C020;}
	.st7{fill:#F8E5B0;}
	.st8{fill:#EFEFEF;}
	.st9{fill:#EEC21E;}
	.st10{fill:#FFFFFF;}
	.st11{fill:#F1BF21;}
	.st12{fill:#E8A61E;}
	.st13{fill:#7D7B79;}
	.st14{fill:#B34F33;}
	.st15{fill:#F8E5B2;}
	.st16{fill:#C5E5FE;}
	.st17{fill:#4C4944;}
	.st18{fill:#4BA5C8;}
	.st19{fill:#AFAEAF;}
	.st20{fill:#CF941C;}
	.st21{fill:#7C7B7A;}
	.st22{fill:#FAE0E1;}
	.st23{fill:#13BF6D;}
	.st24{fill:#76FFBB;}
	.st25{fill:#F2E1D7;}
	.st26{fill:#878787;}
	.st27{fill:#F9E5AF;}
	.st28{fill:#E8A61F;}
	.st29{fill:none;stroke:#000000;stroke-width:5;stroke-linecap:round;stroke-linejoin:round;stroke-miterlimit:10;}
	.st30{fill:#EFEFF0;}
	.st31{fill:#E8A61B;}
	.st32{fill:#EFEFEE;}
	.st33{fill:#4C4945;}
	.st34{fill:#EA8F7D;}
	.st35{fill:#D6C0B3;}
	.st36{fill:#EEC120;}
</style>
<g>
</g>
<g>
	<path class="st6" d="M200.021,150.494l-0.002-18.628c-0.001-10.1-6.846-18.916-16.63-21.42l-19.298-4.939
		c-10.238-2.62-17.191-12.118-16.595-22.67l3.03-53.647c0.716-12.683-9.375-23.36-22.078-23.36
		c-12.703,0-22.794,10.677-22.078,23.36l3.026,53.573c0.598,10.584-6.395,20.102-16.676,22.69
		c-6.435,1.62-13.681,3.444-20.027,5.041c-9.827,2.474-16.711,11.31-16.711,21.443v18.556H200.021z"/>
	
		<rect x="55.98" y="150.494" transform="matrix(-1 -1.224647e-16 1.224647e-16 -1 256.001 325.7404)" class="st4" width="144.04" height="24.753"/>
	<path class="st8" d="M63.98,169.747c-1.381,0-2.5-1.119-2.5-2.5v-8.753c0-1.381,1.119-2.5,2.5-2.5h128.04
		c1.381,0,2.5,1.119,2.5,2.5s-1.119,2.5-2.5,2.5H66.48v6.253C66.48,168.628,65.361,169.747,63.98,169.747z"/>
	<path class="st27" d="M66.981,141.994c-1.381,0-2.5-1.119-2.5-2.5v-7.556c0-6.248,4.23-11.677,10.287-13.201l20.026-5.04
		c14.25-3.587,23.917-16.734,23.089-31.414l-1.374-24.32c-0.078-1.378,0.977-2.559,2.355-2.637c1.367-0.082,2.559,0.976,2.637,2.355
		l1.374,24.321c0.956,17.151-10.343,32.385-26.86,36.544l-20.026,5.04c-3.831,0.964-6.507,4.398-6.507,8.352v7.556
		C69.481,140.875,68.362,141.994,66.981,141.994z M118.438,50.339c-1.316,0-2.418-1.028-2.494-2.359l-0.252-4.466
		c-0.078-1.378,0.977-2.559,2.355-2.637c1.362-0.077,2.559,0.977,2.637,2.355l0.252,4.466c0.078,1.378-0.977,2.559-2.355,2.637
		C118.534,50.338,118.486,50.339,118.438,50.339z"/>
	<polygon class="st3" points="55.98,250.167 55.98,227.667 77.55,217.477 94.37,227.667 111.18,217.477 128,227.667 144.81,217.477 
		161.63,227.667 178.44,217.477 200.021,227.667 200.021,250.167 178.44,239.977 161.63,250.167 144.81,239.977 128,250.167 
		111.18,239.977 94.37,250.167 77.55,239.977 	"/>
	<polygon class="st8" points="55.98,227.667 55.98,175.243 200.021,175.243 200.021,227.667 178.44,217.477 161.63,227.667 
		144.81,217.477 128,227.667 111.18,217.477 94.37,227.667 77.55,217.477 	"/>
	<circle class="st8" cx="128" cy="28.913" r="8.083"/>
	<path d="M169.07,242.729c-1.23,0.757-1.531,2.313-0.84,3.44c0.737,1.228,2.317,1.524,3.431,0.84l6.93-4.2l20.36,9.62
		c1.633,0.765,3.569-0.405,3.569-2.26c0-12.866,0-105.611,0-118.3c0-11.25-7.62-21.061-18.51-23.851l-19.3-4.939
		c-9.25-2.364-15.271-10.955-14.72-20.09l1.229-21.78c0.08-1.38-0.979-2.561-2.36-2.641c-1.39-0.09-2.55,0.99-2.63,2.36L145,82.7
		c-0.786,11.158,6.687,22.214,18.47,25.229l19.3,4.94c8.681,2.22,14.75,10.029,14.75,19v16.12H58.48v-16.051
		c0-9,6.1-16.83,14.82-19.02c6.35-1.601,13.59-3.42,20.03-5.04c11.562-2.914,19.264-13.629,18.56-25.25l-3.03-53.58
		c-0.612-11.319,8.436-20.7,19.59-20.72c11.103,0.02,20.181,9.345,19.581,20.72l-0.681,11.91c-0.069,1.37,0.98,2.56,2.36,2.64
		c1.589,0,2.564-1.115,2.64-2.359l0.67-11.91c0.891-13.855-10.307-26-24.57-26c-13.501,0-25.23,11.068-24.58,26.01l3.03,53.56
		c0.483,9.901-6.047,17.925-14.79,20.13c-6.44,1.62-13.68,3.44-20.03,5.04c-10.95,2.761-18.6,12.57-18.6,23.87
		c0,11.734,0,106.937,0,118.23c0,1.864,1.938,3.023,3.57,2.26l20.35-9.62l15.68,9.5c0.79,0.467,1.732,0.495,2.59,0l15.51-9.41
		l15.53,9.41c0.78,0.47,1.8,0.47,2.59,0l15.51-9.41l7.15,4.33c1.15,0.692,2.703,0.377,3.439-0.84c0.71-1.17,0.341-2.71-0.83-3.42
		c-0.01-0.01-0.01-0.01-0.01-0.01l-7.251-4.389v-16.658l13.021,7.887c0.79,0.479,1.81,0.479,2.6,0l13.017-7.888v16.651
		L169.07,242.729z M197.52,246.22l-16.573-7.822v-16.975l16.573,7.828V246.22z M75.054,238.393L58.48,246.22v-16.97l16.574-7.832
		V238.393z M108.685,238.564L94.37,247.24l-14.316-8.666v-16.659L93.08,229.8c0.78,0.479,1.8,0.479,2.59,0l13.015-7.888V238.564z
		 M142.309,238.568L128,247.24l-14.315-8.665v-16.66l13.025,7.884c0.78,0.479,1.8,0.479,2.59,0l13.009-7.885V238.568z
		 M161.63,224.74l-14.321-8.668v-23.268c0-1.381-1.119-2.5-2.5-2.5s-2.5,1.119-2.5,2.5v23.264L128,224.74l-14.315-8.665v-23.271
		c0-1.381-1.119-2.5-2.5-2.5s-2.5,1.119-2.5,2.5v23.261L94.37,224.74l-14.316-8.666v-23.271c0-1.381-1.119-2.5-2.5-2.5
		s-2.5,1.119-2.5,2.5v23.089l-16.574,7.822V177.75h97.33c1.38,0,2.5-1.12,2.5-2.5c0-1.37-1.109-2.49-2.479-2.5c0,0-0.011,0-0.021,0
		H58.48v-19.76h139.04v19.76h-21.71c-1.38,0-2.5,1.12-2.5,2.5s1.12,2.5,2.5,2.5h21.71v45.965l-16.573-7.818v-23.094
		c0-1.381-1.119-2.5-2.5-2.5s-2.5,1.119-2.5,2.5v23.259L161.63,224.74z"/>
	<path d="M160.52,247.92c-1.18,0.71-1.56,2.25-0.84,3.43c0.718,1.212,2.269,1.555,3.43,0.84c1.166-0.695,1.566-2.247,0.841-3.43
		C163.229,247.583,161.714,247.185,160.52,247.92z"/>
	<circle cx="165.81" cy="175.25" r="2.5"/>
	<path d="M149.43,48.59c-1.399-0.08-2.56,0.979-2.64,2.35c-0.08,1.343,0.932,2.555,2.359,2.641c1.617,0,2.566-1.142,2.631-2.351
		C151.86,49.849,150.8,48.67,149.43,48.59z"/>
	<path d="M117.417,28.913c0,5.836,4.748,10.584,10.583,10.584s10.583-4.748,10.583-10.584S133.836,18.33,128,18.33
		S117.417,23.077,117.417,28.913z M133.583,28.913c0,3.079-2.505,5.584-5.583,5.584c-3.079,0-5.583-2.505-5.583-5.584
		c0-3.078,2.505-5.583,5.583-5.583C131.078,23.33,133.583,25.835,133.583,28.913z"/>
</g>
</svg>
